<svg width="117" height="64" viewBox="0 0 117 64" fill="none" xmlns="http://www.w3.org/2000/svg">
<path d="M42.1224 32.698C41.7688 32.698 41.4435 32.6595 41.1463 32.5827C40.8542 32.5007 40.5903 32.3828 40.3546 32.2291C40.1241 32.0754 39.9114 31.8884 39.7167 31.668L40.3316 30.8995C40.6288 31.2428 40.9234 31.4836 41.2155 31.6219C41.5075 31.7603 41.8278 31.8295 42.1762 31.8295C42.376 31.8295 42.563 31.8038 42.7373 31.7526C42.9115 31.7014 43.0524 31.6245 43.16 31.522C43.2676 31.4144 43.3214 31.2863 43.3214 31.1377C43.3214 31.0404 43.2958 30.9558 43.2445 30.8841C43.1933 30.8072 43.1216 30.7432 43.0293 30.6919C42.9422 30.6356 42.8372 30.5869 42.7142 30.5459C42.5964 30.5049 42.4708 30.4716 42.3376 30.446C42.2044 30.4153 42.066 30.3896 41.9226 30.3691C41.6151 30.3179 41.341 30.2487 41.1002 30.1616C40.8594 30.0745 40.657 29.9643 40.493 29.8311C40.329 29.6928 40.2035 29.5339 40.1164 29.3546C40.0344 29.1753 39.9934 28.9678 39.9934 28.7321C39.9934 28.4964 40.0472 28.2811 40.1548 28.0864C40.2675 27.8917 40.4213 27.7252 40.616 27.5869C40.8158 27.4485 41.0438 27.3409 41.3 27.2641C41.5613 27.1872 41.8406 27.1488 42.1378 27.1488C42.4708 27.1488 42.768 27.1846 43.0293 27.2564C43.2958 27.3281 43.5289 27.4331 43.7287 27.5715C43.9286 27.7098 44.0977 27.8738 44.236 28.0634L43.6058 28.7397C43.4828 28.5809 43.3444 28.4502 43.1907 28.3478C43.037 28.2402 42.8679 28.1607 42.6835 28.1095C42.5041 28.0531 42.3171 28.025 42.1224 28.025C41.9072 28.025 41.7176 28.0506 41.5536 28.1018C41.3948 28.1531 41.2667 28.2273 41.1693 28.3247C41.0771 28.4221 41.031 28.5399 41.031 28.6783C41.031 28.7859 41.0592 28.8806 41.1155 28.9626C41.177 29.0446 41.2616 29.1163 41.3692 29.1778C41.4819 29.2393 41.6151 29.2906 41.7688 29.3315C41.9277 29.3725 42.1019 29.4084 42.2915 29.4391C42.5835 29.4904 42.8551 29.5544 43.1062 29.6313C43.3573 29.7082 43.575 29.8055 43.7595 29.9234C43.9491 30.0412 44.0951 30.1872 44.1976 30.3615C44.3001 30.5305 44.3513 30.7355 44.3513 30.9763C44.3513 31.3299 44.2565 31.6373 44.0669 31.8986C43.8825 32.1548 43.6237 32.3521 43.2906 32.4904C42.9576 32.6288 42.5682 32.698 42.1224 32.698ZM49.3237 32.6211V28.1633H47.5713V27.241H52.1213V28.1633H50.3228V32.6211H49.3237ZM58.0772 32.6672C57.6007 32.6672 57.1805 32.5673 56.8167 32.3675C56.4529 32.1676 56.166 31.8935 55.9559 31.5451C55.751 31.1915 55.6485 30.7944 55.6485 30.3538V27.2333H56.6553V30.3C56.6553 30.5767 56.7194 30.8226 56.8475 31.0378C56.9756 31.253 57.1472 31.4247 57.3624 31.5528C57.5776 31.6809 57.8159 31.7449 58.0772 31.7449C58.359 31.7449 58.6101 31.6809 58.8304 31.5528C59.0507 31.4247 59.225 31.253 59.3531 31.0378C59.4812 30.8226 59.5452 30.5767 59.5452 30.3V27.2333H60.5136V30.3538C60.5136 30.7944 60.4086 31.1915 60.1985 31.5451C59.9935 31.8935 59.7092 32.1676 59.3454 32.3675C58.9816 32.5673 58.5589 32.6672 58.0772 32.6672ZM64.5648 32.6211V27.241H66.9705C67.4009 27.241 67.7852 27.3076 68.1233 27.4408C68.4666 27.574 68.7587 27.7636 68.9995 28.0096C69.2455 28.2555 69.4299 28.5425 69.5529 28.8704C69.681 29.1932 69.7451 29.5468 69.7451 29.931C69.7451 30.3205 69.681 30.6791 69.5529 31.0071C69.4299 31.335 69.248 31.6194 69.0072 31.8602C68.7664 32.101 68.4743 32.288 68.131 32.4213C67.7877 32.5545 67.4009 32.6211 66.9705 32.6211H64.5648ZM65.564 31.8448L65.4871 31.6988H66.932C67.2241 31.6988 67.4803 31.6552 67.7006 31.5681C67.9261 31.481 68.1131 31.3581 68.2617 31.1992C68.4103 31.0404 68.523 30.8559 68.5999 30.6458C68.6767 30.4306 68.7152 30.1924 68.7152 29.931C68.7152 29.6748 68.6767 29.4391 68.5999 29.2239C68.523 29.0087 68.4077 28.8217 68.254 28.6629C68.1054 28.504 67.9209 28.3811 67.7006 28.294C67.4803 28.2069 67.2241 28.1633 66.932 28.1633H65.464L65.564 28.0326V31.8448ZM73.487 32.6211V27.241H77.4375V28.1479H74.4708V31.7142H77.4683V32.6211H73.487ZM73.9789 30.3153V29.4238H77.0455V30.3153H73.9789ZM81.3959 32.6211V27.241H82.3259L85.8768 31.4452L85.7384 31.4759C85.7128 31.3222 85.6923 31.1659 85.6769 31.0071C85.6616 30.8431 85.6462 30.6766 85.6308 30.5075C85.6206 30.3384 85.6103 30.1642 85.6001 29.9848C85.5949 29.8055 85.5898 29.6236 85.5847 29.4391C85.5847 29.2496 85.5847 29.0549 85.5847 28.855V27.241H86.5762V32.6211H85.6308L82.0646 28.4784L82.2337 28.4246C82.249 28.6347 82.2644 28.8243 82.2798 28.9934C82.2952 29.1625 82.3105 29.3187 82.3259 29.4622C82.3413 29.6006 82.3515 29.7312 82.3566 29.8542C82.3669 29.972 82.3746 30.0899 82.3797 30.2077C82.3848 30.3205 82.3874 30.4306 82.3874 30.5382V32.6211H81.3959ZM91.9156 32.6211V28.1633H90.1633V27.241H94.7133V28.1633H92.9148V32.6211H91.9156Z" fill="#0B0A0A" style="fill:#0B0A0A;fill:color(display-p3 0.0431 0.0392 0.0392);fill-opacity:1;"/>
<path d="M39.6885 42.2217V36.7529H42.2979C42.6989 36.7529 43.0349 36.8049 43.3057 36.9091C43.5818 37.0133 43.7901 37.1695 43.9307 37.3779C44.0766 37.581 44.1495 37.8284 44.1495 38.1201C44.1495 38.4169 44.0609 38.6722 43.8839 38.8857C43.712 39.094 43.4646 39.2373 43.1417 39.3154L43.1573 39.1669C43.3969 39.219 43.613 39.3076 43.8057 39.4326C43.9984 39.5576 44.1521 39.719 44.2667 39.917C44.3813 40.1097 44.4386 40.3362 44.4386 40.5967C44.4386 40.8831 44.3839 41.1305 44.2745 41.3389C44.1703 41.5472 44.0245 41.7165 43.837 41.8467C43.6495 41.9717 43.4359 42.0654 43.1964 42.1279C42.9568 42.1904 42.6989 42.2217 42.4229 42.2217H39.6885ZM40.6807 41.3076H42.4073C42.6156 41.3076 42.7927 41.2816 42.9385 41.2295C43.0896 41.1722 43.2068 41.0889 43.2901 40.9795C43.3734 40.8649 43.4151 40.7269 43.4151 40.5654C43.4151 40.3987 43.3656 40.2633 43.2667 40.1592C43.1729 40.055 43.0453 39.9795 42.8838 39.9326C42.7276 39.8805 42.5557 39.8545 42.3682 39.8545H40.6807V41.3076ZM40.6807 38.9794H42.2823C42.4437 38.9794 42.587 38.9508 42.712 38.8935C42.8422 38.8362 42.9437 38.7581 43.0167 38.6591C43.0896 38.5602 43.126 38.4456 43.126 38.3154C43.126 38.1018 43.0427 37.9404 42.876 37.831C42.7094 37.7216 42.4854 37.6669 42.2042 37.6669H40.6807V38.9794ZM49.5281 42.2217V36.7529H52.2313C52.5698 36.7529 52.8771 36.8284 53.1532 36.9794C53.4292 37.1305 53.6453 37.3362 53.8016 37.5966C53.9631 37.857 54.0438 38.1513 54.0438 38.4794C54.0438 38.8024 53.9605 39.0966 53.7938 39.3623C53.6271 39.6279 53.4032 39.8388 53.1219 39.9951C52.8406 40.1513 52.5281 40.2295 52.1844 40.2295H50.5203V42.2217H49.5281ZM53.0907 42.2217L51.5125 39.7529L52.575 39.5576L54.3094 42.2295L53.0907 42.2217ZM50.5203 39.3466H52.1531C52.3146 39.3466 52.4578 39.3102 52.5828 39.2373C52.713 39.1591 52.8146 39.0576 52.8875 38.9326C52.9657 38.8024 53.0047 38.6591 53.0047 38.5029C53.0047 38.3414 52.963 38.1982 52.8797 38.0732C52.7964 37.9482 52.6818 37.8492 52.536 37.7763C52.3901 37.7034 52.2235 37.6669 52.036 37.6669H50.5203V39.3466ZM58.7723 42.2217L61.1239 36.7529H62.1317L64.4677 42.2217H63.3974L61.9911 38.9248C61.9599 38.8414 61.9208 38.7399 61.8739 38.6201C61.8322 38.5003 61.7854 38.3753 61.7333 38.2451C61.6864 38.1096 61.6395 37.982 61.5927 37.8622C61.551 37.7372 61.5171 37.6331 61.4911 37.5497L61.7177 37.5419C61.6864 37.6513 61.6474 37.7685 61.6005 37.8935C61.5588 38.0133 61.5145 38.1357 61.4677 38.2607C61.4208 38.3805 61.3739 38.5003 61.327 38.6201C61.2802 38.7347 61.2385 38.844 61.202 38.9482L59.7958 42.2217H58.7723ZM59.827 41.0029L60.1942 40.1201H62.9833L63.2724 41.0029H59.827ZM69.2836 42.2217V36.7529H70.229L73.8384 41.0264L73.6977 41.0576C73.6717 40.9013 73.6509 40.7425 73.6352 40.581C73.6196 40.4144 73.604 40.2451 73.5884 40.0732C73.578 39.9013 73.5675 39.7242 73.5571 39.542C73.5519 39.3597 73.5467 39.1748 73.5415 38.9873C73.5415 38.7945 73.5415 38.5966 73.5415 38.3935V36.7529H74.5493V42.2217H73.5884L69.9633 38.0107L70.1352 37.956C70.1508 38.1695 70.1664 38.3623 70.1821 38.5341C70.1977 38.706 70.2133 38.8649 70.229 39.0107C70.2446 39.1513 70.255 39.2841 70.2602 39.4091C70.2706 39.5289 70.2784 39.6487 70.2836 39.7685C70.2888 39.8831 70.2915 39.9951 70.2915 40.1045V42.2217H69.2836ZM82.5394 42.2998C82.1227 42.2998 81.7373 42.2321 81.3831 42.0967C81.0289 41.9613 80.719 41.7685 80.4534 41.5185C80.193 41.2685 79.9898 40.9717 79.844 40.6279C79.6982 40.2789 79.6253 39.8961 79.6253 39.4795C79.6253 39.0784 79.7008 38.7086 79.8518 38.3701C80.0081 38.0315 80.219 37.7372 80.4846 37.4872C80.7555 37.232 81.068 37.0341 81.4222 36.8935C81.7815 36.7529 82.1644 36.6825 82.5706 36.6825C82.8727 36.6825 83.1618 36.7242 83.4378 36.8075C83.7191 36.8909 83.9743 37.0003 84.2034 37.1357C84.4378 37.2711 84.6305 37.4221 84.7816 37.5888L84.1566 38.3544C84.0055 38.2086 83.8467 38.0862 83.68 37.9872C83.5133 37.8831 83.3336 37.8023 83.1409 37.7451C82.9534 37.6878 82.7529 37.6591 82.5394 37.6591C82.2946 37.6591 82.0576 37.7034 81.8284 37.7919C81.5992 37.8753 81.3987 37.9977 81.2268 38.1591C81.055 38.3206 80.9169 38.5133 80.8128 38.7373C80.7138 38.9612 80.6643 39.2112 80.6643 39.4873C80.6643 39.7737 80.7138 40.0315 80.8128 40.2607C80.9169 40.4847 81.0602 40.6774 81.2425 40.8388C81.4248 40.9951 81.6357 41.1175 81.8753 41.206C82.1149 41.2894 82.3727 41.331 82.6487 41.331C82.8779 41.331 83.0888 41.2998 83.2816 41.2373C83.4743 41.1748 83.6488 41.0967 83.805 41.0029C83.9613 40.904 84.1045 40.7972 84.2347 40.6826L84.7269 41.4951C84.5915 41.6253 84.4092 41.7529 84.18 41.8779C83.956 42.0029 83.7008 42.1045 83.4144 42.1826C83.1279 42.2607 82.8362 42.2998 82.5394 42.2998ZM93.7246 42.2217V36.7529H94.7402V42.2217H93.7246ZM89.7792 42.2217V36.7529H90.7948V42.2217H89.7792ZM90.2011 39.9873V39.0341H94.2168V39.9873H90.2011Z" fill="#0B0A0A" style="fill:#0B0A0A;fill:color(display-p3 0.0431 0.0392 0.0392);fill-opacity:1;"/>
<path d="M44.4683 55.1604C43.7848 55.1604 43.1526 55.0493 42.5716 54.8272C41.9906 54.605 41.4823 54.2889 41.0465 53.8788C40.6194 53.4687 40.2862 52.9817 40.0469 52.4178C39.8077 51.8454 39.6881 51.2175 39.6881 50.534C39.6881 49.8761 39.812 49.2695 40.0597 48.7141C40.3161 48.1588 40.6621 47.6761 41.0978 47.266C41.5421 46.8473 42.0547 46.5227 42.6357 46.292C43.2252 46.0613 43.8532 45.946 44.5196 45.946C45.0151 45.946 45.4893 46.0143 45.9421 46.151C46.4035 46.2877 46.8221 46.4671 47.198 46.6893C47.5825 46.9114 47.8986 47.1592 48.1464 47.4326L47.1211 48.6885C46.8734 48.4493 46.6128 48.2485 46.3394 48.0862C46.066 47.9153 45.7712 47.7829 45.4551 47.6889C45.1475 47.5949 44.8186 47.5479 44.4683 47.5479C44.0668 47.5479 43.678 47.6205 43.3021 47.7658C42.9262 47.9025 42.5972 48.1033 42.3153 48.3681C42.0333 48.633 41.8069 48.9491 41.6361 49.3165C41.4737 49.6839 41.3926 50.094 41.3926 50.5468C41.3926 51.0167 41.4737 51.4396 41.6361 51.8155C41.8069 52.1829 42.0419 52.499 42.3409 52.7639C42.64 53.0202 42.986 53.221 43.379 53.3662C43.772 53.5029 44.1949 53.5712 44.6477 53.5712C45.0237 53.5712 45.3697 53.52 45.6858 53.4175C46.0019 53.3149 46.2881 53.1868 46.5444 53.033C46.8007 52.8707 47.0357 52.6955 47.2493 52.5076L48.0567 53.8404C47.8345 54.054 47.5355 54.2633 47.1596 54.4683C46.7922 54.6734 46.3736 54.84 45.9037 54.9681C45.4338 55.0963 44.9553 55.1604 44.4683 55.1604ZM60.2147 55.1604C59.5055 55.1604 58.8519 55.045 58.2539 54.8144C57.6644 54.5837 57.1475 54.259 56.7032 53.8404C56.2589 53.4217 55.9172 52.9305 55.678 52.3666C55.4387 51.8027 55.3191 51.1918 55.3191 50.534C55.3191 49.8761 55.4387 49.2652 55.678 48.7013C55.9172 48.1374 56.2589 47.6462 56.7032 47.2275C57.1475 46.8089 57.6644 46.4842 58.2539 46.2535C58.8519 46.0229 59.5055 45.9075 60.2147 45.9075C60.9238 45.9075 61.5774 46.0229 62.1755 46.2535C62.7735 46.4842 63.2904 46.8132 63.7261 47.2403C64.1619 47.659 64.4994 48.1503 64.7386 48.7141C64.9863 49.2695 65.1102 49.8761 65.1102 50.534C65.1102 51.1833 64.9863 51.7899 64.7386 52.3538C64.4994 52.9177 64.1619 53.4132 63.7261 53.8404C63.2904 54.259 62.7735 54.5837 62.1755 54.8144C61.5774 55.045 60.9238 55.1604 60.2147 55.1604ZM60.2147 53.5712C60.6846 53.5712 61.1118 53.4986 61.4962 53.3534C61.8892 53.1996 62.2267 52.986 62.5087 52.7126C62.7991 52.4307 63.0213 52.106 63.1751 51.7386C63.3374 51.3712 63.4186 50.9697 63.4186 50.534C63.4186 50.0982 63.3374 49.6967 63.1751 49.3293C63.0213 48.9619 62.7991 48.6415 62.5087 48.3681C62.2267 48.0862 61.8892 47.8726 61.4962 47.7273C61.1118 47.5736 60.6846 47.4967 60.2147 47.4967C59.7533 47.4967 59.3261 47.5736 58.9331 47.7273C58.5401 47.8726 58.1984 48.0862 57.9079 48.3681C57.6259 48.6415 57.4081 48.9619 57.2543 49.3293C57.1005 49.6967 57.0236 50.0982 57.0236 50.534C57.0236 50.9697 57.1005 51.3712 57.2543 51.7386C57.4081 52.106 57.6259 52.4307 57.9079 52.7126C58.1984 52.986 58.5401 53.1996 58.9331 53.3534C59.3261 53.4986 59.7533 53.5712 60.2147 53.5712ZM73.0802 55.0322V46.0613H79.6674V47.5736H74.7206V53.52H79.7187V55.0322H73.0802ZM73.9004 51.1875V49.7009H79.0138V51.1875H73.9004ZM90.0484 55.0322V47.5992H87.1264V46.0613H94.7133V47.5992H91.7144V55.0322H90.0484Z" fill="#0B0A0A" style="fill:#0B0A0A;fill:color(display-p3 0.0431 0.0392 0.0392);fill-opacity:1;"/>
<path d="M39.8291 22.1806L39.8291 19.9314L39.8291 11.0871V8.83789H42.6481V11.0871V19.9314V22.1806H39.8291Z" fill="#0B0A0A" style="fill:#0B0A0A;fill:color(display-p3 0.0431 0.0392 0.0392);fill-opacity:1;"/>
<path d="M51.1108 22.1806V8.83789H62.2565V11.0871H53.8864V19.9314H62.3433V22.1806H51.1108ZM52.4986 16.4623V14.2512H61.1506V16.4623H52.4986Z" fill="#0B0A0A" style="fill:#0B0A0A;fill:color(display-p3 0.0431 0.0392 0.0392);fill-opacity:1;"/>
<path d="M67.3528 22.1806V8.83789H78.4985V11.0871H70.1284V19.9314H78.5853V22.1806H67.3528ZM68.7406 16.4623V14.2512H77.3926V16.4623H68.7406Z" fill="#0B0A0A" style="fill:#0B0A0A;fill:color(display-p3 0.0431 0.0392 0.0392);fill-opacity:1;"/>
<path d="M83.5948 22.1806V8.83789H94.7405V11.0871H86.3704V19.9314H94.8273V22.1806H83.5948ZM84.9826 16.4623V14.2512H93.6346V16.4623H84.9826Z" fill="#0B0A0A" style="fill:#0B0A0A;fill:color(display-p3 0.0431 0.0392 0.0392);fill-opacity:1;"/>
<path d="M32.1134 61.7295C32.1134 62.9588 30.6205 63.567 29.7615 62.6876L28.1371 61.0248L28.1371 3.08032L29.7973 1.32081C30.6301 0.438234 32.1134 1.02758 32.1134 2.24102L32.1134 61.7295Z" fill="#0B0A0A" style="fill:#0B0A0A;fill:color(display-p3 0.0431 0.0392 0.0392);fill-opacity:1;"/>
<path d="M18.5112 21.3011L18.5112 42.1516L14.5349 38.8715V24.5693L18.5112 21.3011Z" fill="#0B0A0A" style="fill:#0B0A0A;fill:color(display-p3 0.0431 0.0392 0.0392);fill-opacity:1;"/>
<path d="M21.6227 18.7437L21.6227 44.7183L25.599 47.9985L25.599 15.4754L21.6227 18.7437Z" fill="#0B0A0A" style="fill:#0B0A0A;fill:color(display-p3 0.0431 0.0392 0.0392);fill-opacity:1;"/>
<path d="M25.599 9.08726L21.6227 13.2893V9.54521L25.599 5.52261V9.08726Z" fill="#0B0A0A" style="fill:#0B0A0A;fill:color(display-p3 0.0431 0.0392 0.0392);fill-opacity:1;"/>
<path d="M18.5112 16.5774L14.5349 20.7794V16.6321L18.5112 12.6382V16.5774Z" fill="#0B0A0A" style="fill:#0B0A0A;fill:color(display-p3 0.0431 0.0392 0.0392);fill-opacity:1;"/>
<path d="M11.0384 24.4743L11.0384 20.144L7.06207 24.1379L7.06207 28.6764L11.0384 24.4743Z" fill="#0B0A0A" style="fill:#0B0A0A;fill:color(display-p3 0.0431 0.0392 0.0392);fill-opacity:1;"/>
<path d="M7.06207 30.7114V32.7071L11.0384 35.9872L11.0384 27.4431L7.06207 30.7114Z" fill="#0B0A0A" style="fill:#0B0A0A;fill:color(display-p3 0.0431 0.0392 0.0392);fill-opacity:1;"/>
<path d="M14.5348 42.7079L18.5112 46.9252V51.2998L14.5348 47.2434V42.7079Z" fill="#0B0A0A" style="fill:#0B0A0A;fill:color(display-p3 0.0431 0.0392 0.0392);fill-opacity:1;"/>
<path d="M11.0384 38.9996L7.06207 34.7822L7.06207 39.6202L11.0384 43.6766L11.0384 38.9996Z" fill="#0B0A0A" style="fill:#0B0A0A;fill:color(display-p3 0.0431 0.0392 0.0392);fill-opacity:1;"/>
<path d="M25.599 54.4426L21.6227 50.2253V54.3684L25.599 58.4389V54.4426Z" fill="#0B0A0A" style="fill:#0B0A0A;fill:color(display-p3 0.0431 0.0392 0.0392);fill-opacity:1;"/>
<path d="M3.56563 27.6498L3.56563 36.0533L0.403515 32.9036C-0.125086 32.3771 -0.135688 31.5246 0.379659 30.9851L3.56563 27.6498Z" fill="#0B0A0A" style="fill:#0B0A0A;fill:color(display-p3 0.0431 0.0392 0.0392);fill-opacity:1;"/>
</svg>
