<svg width="73" height="54" viewBox="0 0 73 54" fill="none" xmlns="http://www.w3.org/2000/svg">
<path d="M33.2238 23.2969C33.0759 22.7915 32.9136 22.2952 32.7373 21.8093C32.7107 21.7928 32.6843 21.7745 32.6582 21.7578C32.8696 22.2574 33.0557 22.7726 33.2238 23.2969Z" fill="#0B0A0A" style="fill:#0B0A0A;fill:color(display-p3 0.0431 0.0392 0.0392);fill-opacity:1;"/>
<path d="M32.6191 40.0439C32.649 40.0268 32.6787 40.0073 32.7083 39.9901C32.9103 39.4411 33.0937 38.8784 33.2585 38.3054C33.0728 38.8991 32.861 39.4813 32.6191 40.0439Z" fill="#0B0A0A" style="fill:#0B0A0A;fill:color(display-p3 0.0431 0.0392 0.0392);fill-opacity:1;"/>
<path d="M32.6103 36.4864L32.6252 36.4256C31.8821 36.5918 31.1343 36.7454 30.3818 36.8887C31.1049 36.7981 31.8088 36.6755 32.498 36.5128L32.6103 36.4864Z" fill="#0B0A0A" style="fill:#0B0A0A;fill:color(display-p3 0.0431 0.0392 0.0392);fill-opacity:1;"/>
<path d="M32.6103 36.4864L32.6252 36.4256C31.8821 36.5918 31.1343 36.7454 30.3818 36.8887C31.1049 36.7981 31.8088 36.6755 32.498 36.5128L32.6103 36.4864Z" fill="#0B0A0A" style="fill:#0B0A0A;fill:color(display-p3 0.0431 0.0392 0.0392);fill-opacity:1;"/>
<path d="M33.8424 36.1413C33.8341 36.1436 33.8255 36.1459 33.8171 36.1481L33.8164 36.1504L33.8424 36.1413Z" fill="#0B0A0A" style="fill:#0B0A0A;fill:color(display-p3 0.0431 0.0392 0.0392);fill-opacity:1;"/>
<path d="M33.8424 36.1413C33.8341 36.1436 33.8255 36.1459 33.8171 36.1481L33.8164 36.1504L33.8424 36.1413Z" fill="#0B0A0A" style="fill:#0B0A0A;fill:color(display-p3 0.0431 0.0392 0.0392);fill-opacity:1;"/>
<path d="M35.3374 36.8276V36.9663H34.9433C34.5109 37.1153 34.0726 37.2516 33.6282 37.3708L33.5239 37.3995L33.5205 37.4121C34.44 37.2046 35.3523 36.98 36.2558 36.7382C36.7403 36.1652 37.1713 35.6128 37.5221 35.1452C37.2 35.2414 36.8767 35.3354 36.5523 35.4283C36.3313 35.8512 36.0828 36.2591 35.8058 36.6477C35.651 36.7096 35.4944 36.7692 35.3374 36.8276Z" fill="#0B0A0A" style="fill:#0B0A0A;fill:color(display-p3 0.0431 0.0392 0.0392);fill-opacity:1;"/>
<path d="M35.3375 36.8291C35.207 36.8772 35.0752 36.9231 34.9434 36.9678H35.3375V36.8291Z" fill="#0B0A0A" style="fill:#0B0A0A;fill:color(display-p3 0.0431 0.0392 0.0392);fill-opacity:1;"/>
<path d="M35.3375 36.8291C35.207 36.8772 35.0752 36.9231 34.9434 36.9678H35.3375V36.8291Z" fill="#0B0A0A" style="fill:#0B0A0A;fill:color(display-p3 0.0431 0.0392 0.0392);fill-opacity:1;"/>
<path d="M32.7085 39.9906C32.4494 40.6966 32.1619 41.3819 31.8467 42.042C34.3736 40.9005 36.388 38.8858 37.5859 36.3668C37.1445 36.494 36.7009 36.6177 36.2554 36.7369C35.2372 37.938 33.9798 39.2227 32.7085 39.9906Z" fill="#0B0A0A" style="fill:#0B0A0A;fill:color(display-p3 0.0431 0.0392 0.0392);fill-opacity:1;"/>
<path d="M33.5173 37.4135C33.5103 37.4146 33.5026 37.4169 33.495 37.4181C33.4198 37.7172 33.341 38.0152 33.2559 38.3086C33.3396 38.0427 33.4198 37.7756 33.4931 37.5052L33.5173 37.4135Z" fill="#0B0A0A" style="fill:#0B0A0A;fill:color(display-p3 0.0431 0.0392 0.0392);fill-opacity:1;"/>
<path d="M32.6197 40.0466C32.8616 39.484 33.0734 38.9018 33.2591 38.3081C33.3442 38.0147 33.4231 37.7167 33.4983 37.4176C32.8627 37.5608 32.2243 37.6961 31.5812 37.821C31.7073 37.7993 31.8345 37.7775 31.9603 37.7534L32.2758 37.6938L32.1727 37.9975C31.8425 38.9716 31.4241 39.9218 30.9014 40.8649C29.8408 41.2638 28.7089 41.5067 27.5374 41.5663V38.4926C27.1644 38.543 26.7888 38.59 26.4136 38.6347V41.5663C25.2248 41.5044 24.0877 41.25 23.0323 40.8328C22.7006 40.2335 22.4115 39.6295 22.1607 39.0186C21.7588 39.0427 21.3564 39.0634 20.9529 39.0805C21.0588 39.3751 21.1703 39.6673 21.2911 39.9527C20.886 39.6994 20.5008 39.4163 20.1339 39.1126C19.4244 39.1355 18.7111 39.147 17.9961 39.1493C20.23 41.5652 23.4251 43.0791 26.9752 43.0791C28.7337 43.0791 30.3761 42.709 31.8471 42.0442C32.1624 41.3841 32.4498 40.6988 32.7089 39.9928C32.6793 40.0099 32.6496 40.0294 32.6197 40.0466Z" fill="#0B0A0A" style="fill:#0B0A0A;fill:color(display-p3 0.0431 0.0392 0.0392);fill-opacity:1;"/>
<path d="M32.6197 40.0466C32.8616 39.484 33.0734 38.9018 33.2591 38.3081C33.3442 38.0147 33.4231 37.7167 33.4983 37.4176C32.8627 37.5608 32.2243 37.6961 31.5812 37.821C31.7073 37.7993 31.8345 37.7775 31.9603 37.7534L32.2758 37.6938L32.1727 37.9975C31.8425 38.9716 31.4241 39.9218 30.9014 40.8649C29.8408 41.2638 28.7089 41.5067 27.5374 41.5663V38.4926C27.1644 38.543 26.7888 38.59 26.4136 38.6347V41.5663C25.2248 41.5044 24.0877 41.25 23.0323 40.8328C22.7006 40.2335 22.4115 39.6295 22.1607 39.0186C21.7588 39.0427 21.3564 39.0634 20.9529 39.0805C21.0588 39.3751 21.1703 39.6673 21.2911 39.9527C20.886 39.6994 20.5008 39.4163 20.1339 39.1126C19.4244 39.1355 18.7111 39.147 17.9961 39.1493C20.23 41.5652 23.4251 43.0791 26.9752 43.0791C28.7337 43.0791 30.3761 42.709 31.8471 42.0442C32.1624 41.3841 32.4498 40.6988 32.7089 39.9928C32.6793 40.0099 32.6496 40.0294 32.6197 40.0466Z" fill="#0B0A0A" style="fill:#0B0A0A;fill:color(display-p3 0.0431 0.0392 0.0392);fill-opacity:1;"/>
<path d="M19.624 31.5964C19.6614 32.9842 19.8017 34.4213 20.0711 35.8379L19.624 31.5964Z" fill="#0B0A0A" style="fill:#0B0A0A;fill:color(display-p3 0.0431 0.0392 0.0392);fill-opacity:1;"/>
<path d="M19.624 31.5964C19.6614 32.9842 19.8017 34.4213 20.0711 35.8379L19.624 31.5964Z" fill="#0B0A0A" style="fill:#0B0A0A;fill:color(display-p3 0.0431 0.0392 0.0392);fill-opacity:1;"/>
<path d="M16.9891 34.7884C16.5726 33.7352 16.3188 32.5995 16.2573 31.4122H19.6188L19.6241 31.5944L20.0711 35.836L20.1314 36.1511L19.827 36.0491C18.8613 35.7214 17.9202 35.3053 16.9891 34.7884ZM16.9882 26.9162C17.9165 26.3982 18.859 25.9833 19.8263 25.6553L20.1303 25.5522L20.0704 25.8678C19.8013 27.2852 19.6615 28.7235 19.6241 30.1068L19.6188 30.289H16.2573C16.3188 29.104 16.5721 27.9694 16.9882 26.9162ZM21.2881 21.7507C20.9554 22.5369 20.6787 23.3586 20.4522 24.1991L20.4237 24.3034L20.3199 24.3316C19.4789 24.5579 18.657 24.8352 17.8709 25.1675C18.7357 23.7861 19.9065 22.6153 21.2881 21.7507ZM21.3385 25.218L21.4509 25.1912C22.9569 24.8364 24.5333 24.6644 26.2196 24.6262L26.411 24.6215V30.289H20.7424L20.747 30.0977C20.7846 28.4118 20.9568 26.836 21.3115 25.3303L21.3385 25.218ZM21.7764 23.7059C22.1043 22.7386 22.5204 21.7958 23.0385 20.8676C24.092 20.4522 25.2254 20.1989 26.411 20.1382V23.4984L26.2285 23.5035C24.8444 23.5402 23.4062 23.6811 21.9882 23.95L21.673 24.0101L21.7764 23.7059ZM26.411 37.0806L26.2196 37.0759C24.5258 37.0382 22.9525 36.8662 21.4509 36.5133L21.3371 36.4869L21.3108 36.3734C20.9568 34.8698 20.7846 33.2974 20.747 31.6047L20.7424 31.4122H26.411V37.0806ZM27.5348 24.6215L27.727 24.6255C29.419 24.664 30.9926 24.8352 32.4973 25.1893L32.6103 25.2164L32.6367 25.3287C32.9907 26.8314 33.1615 28.4061 33.1995 30.0977L33.2041 30.289H27.5348V24.6215ZM27.5348 20.1382C28.722 20.1989 29.8562 20.4527 30.9096 20.8694C31.4285 21.7988 31.8446 22.7402 32.1724 23.7063L32.2756 24.0107L31.9601 23.9504C30.5421 23.6811 29.1037 23.5402 27.7176 23.5035L27.5348 23.4984V20.1382ZM17.8709 36.5339C18.657 36.8662 19.4789 37.1436 20.3203 37.3705L20.4242 37.398L20.4522 37.5023C20.5015 37.6846 20.5545 37.8645 20.6083 38.0444C20.9955 38.0249 21.3832 38.0031 21.7695 37.9779L21.6721 37.6914L21.9874 37.751C22.276 37.806 22.5662 37.8541 22.856 37.8988C25.4103 37.6925 27.9205 37.3522 30.3796 36.8869C29.5253 36.9934 28.6441 37.0553 27.727 37.0759L27.5348 37.0806V31.4122H33.2041L33.1995 31.6047C33.161 33.2985 32.9891 34.8698 32.6349 36.3723L32.623 36.4239C32.8875 36.3654 33.1525 36.3024 33.4159 36.2405V24.1705C33.4159 24.1705 33.4331 24.1705 33.4641 24.1705C33.3884 23.8748 33.3089 23.5821 33.2241 23.2926C33.056 22.7684 32.8699 22.2531 32.6585 21.7535C32.6846 21.7702 32.711 21.7885 32.7376 21.805C32.4652 21.0544 32.1603 20.3278 31.8251 19.6275C30.3383 18.9835 28.6983 18.6254 26.9727 18.6254C20.2194 18.6254 14.7441 24.099 14.7441 30.8506C14.7441 33.5794 15.6394 36.0995 17.1507 38.1338C17.7938 38.1326 18.4337 38.1223 19.0722 38.104C18.6263 37.6192 18.2221 37.0955 17.8709 36.5339Z" fill="#0B0A0A" style="fill:#0B0A0A;fill:color(display-p3 0.0431 0.0392 0.0392);fill-opacity:1;"/>
<path d="M33.4199 36.2432C33.5405 36.2145 33.6618 36.1882 33.7822 36.1595C34.1169 34.4633 34.2953 32.6881 34.2953 30.8579C34.2953 28.5234 34.0046 26.2759 33.4681 24.1732C33.4371 24.1732 33.4199 24.1732 33.4199 24.1732V36.2432Z" fill="#0B0A0A" style="fill:#0B0A0A;fill:color(display-p3 0.0431 0.0392 0.0392);fill-opacity:1;"/>
<path d="M33.4199 36.2432C33.5405 36.2145 33.6618 36.1882 33.7822 36.1595C34.1169 34.4633 34.2953 32.6881 34.2953 30.8579C34.2953 28.5234 34.0046 26.2759 33.4681 24.1732C33.4371 24.1732 33.4199 24.1732 33.4199 24.1732V36.2432Z" fill="#0B0A0A" style="fill:#0B0A0A;fill:color(display-p3 0.0431 0.0392 0.0392);fill-opacity:1;"/>
<path d="M35.8043 36.6462C36.0813 36.2577 36.3298 35.8497 36.5508 35.4268C36.1478 35.5414 35.7424 35.6526 35.3359 35.7603V36.8262C35.4929 36.7677 35.6495 36.7081 35.8043 36.6462Z" fill="#0B0A0A" style="fill:#0B0A0A;fill:color(display-p3 0.0431 0.0392 0.0392);fill-opacity:1;"/>
<path d="M35.8043 36.6462C36.0813 36.2577 36.3298 35.8497 36.5508 35.4268C36.1478 35.5414 35.7424 35.6526 35.3359 35.7603V36.8262C35.4929 36.7677 35.6495 36.7081 35.8043 36.6462Z" fill="#0B0A0A" style="fill:#0B0A0A;fill:color(display-p3 0.0431 0.0392 0.0392);fill-opacity:1;"/>
<path d="M33.5247 37.4008L33.629 37.3721C34.0733 37.2529 34.5117 37.1165 34.9441 36.9676H33.6063C33.5705 37.1188 33.5361 37.269 33.499 37.418C33.5066 37.4168 33.5143 37.4145 33.5213 37.4134L33.5247 37.4008Z" fill="#0B0A0A" style="fill:#0B0A0A;fill:color(display-p3 0.0431 0.0392 0.0392);fill-opacity:1;"/>
<path d="M33.5247 37.4008L33.629 37.3721C34.0733 37.2529 34.5117 37.1165 34.9441 36.9676H33.6063C33.5705 37.1188 33.5361 37.269 33.499 37.418C33.5066 37.4168 33.5143 37.4145 33.5213 37.4134L33.5247 37.4008Z" fill="#0B0A0A" style="fill:#0B0A0A;fill:color(display-p3 0.0431 0.0392 0.0392);fill-opacity:1;"/>
<path d="M33.8173 36.1529L33.818 36.1506C33.8054 36.1541 33.7928 36.1564 33.7806 36.1598C33.7267 36.4314 33.6672 36.7007 33.6055 36.9678H34.9432C35.0751 36.9231 35.2069 36.8772 35.3373 36.8291V35.7633C34.8416 35.8951 34.3442 36.0234 33.8436 36.1438L33.8173 36.1529Z" fill="#0B0A0A" style="fill:#0B0A0A;fill:color(display-p3 0.0431 0.0392 0.0392);fill-opacity:1;"/>
<path d="M33.8173 36.1529L33.818 36.1506C33.8054 36.1541 33.7928 36.1564 33.7806 36.1598C33.7267 36.4314 33.6672 36.7007 33.6055 36.9678H34.9432C35.0751 36.9231 35.2069 36.8772 35.3373 36.8291V35.7633C34.8416 35.8951 34.3442 36.0234 33.8436 36.1438L33.8173 36.1529Z" fill="#0B0A0A" style="fill:#0B0A0A;fill:color(display-p3 0.0431 0.0392 0.0392);fill-opacity:1;"/>
<path d="M33.8173 36.1529L33.818 36.1506C33.8054 36.1541 33.7928 36.1564 33.7806 36.1598C33.7267 36.4314 33.6672 36.7007 33.6055 36.9678H34.9432C35.0751 36.9231 35.2069 36.8772 35.3373 36.8291V35.7633C34.8416 35.8951 34.3442 36.0234 33.8436 36.1438L33.8173 36.1529Z" fill="#0B0A0A" style="fill:#0B0A0A;fill:color(display-p3 0.0431 0.0392 0.0392);fill-opacity:1;"/>
<path d="M33.4164 36.9673V36.2429C33.153 36.3048 32.8879 36.3679 32.6234 36.4263L32.6085 36.487L32.4962 36.5134C31.8069 36.6762 31.1031 36.7988 30.38 36.8893C27.9209 37.3546 25.4107 37.695 22.8564 37.9013C23.9897 38.0743 25.1257 38.1706 26.2289 38.2004L26.4115 38.205V38.6348C26.7867 38.5901 27.1623 38.5431 27.5353 38.4926V38.205L27.718 38.2004C28.9808 38.1672 30.2858 38.0457 31.5791 37.8211C32.2222 37.6962 32.8606 37.5609 33.4962 37.4177C33.5333 37.2687 33.5677 37.1185 33.6035 36.9673H33.4164Z" fill="#0B0A0A" style="fill:#0B0A0A;fill:color(display-p3 0.0431 0.0392 0.0392);fill-opacity:1;"/>
<path d="M33.4164 36.9673V36.2429C33.153 36.3048 32.8879 36.3679 32.6234 36.4263L32.6085 36.487L32.4962 36.5134C31.8069 36.6762 31.1031 36.7988 30.38 36.8893C27.9209 37.3546 25.4107 37.695 22.8564 37.9013C23.9897 38.0743 25.1257 38.1706 26.2289 38.2004L26.4115 38.205V38.6348C26.7867 38.5901 27.1623 38.5431 27.5353 38.4926V38.205L27.718 38.2004C28.9808 38.1672 30.2858 38.0457 31.5791 37.8211C32.2222 37.6962 32.8606 37.5609 33.4962 37.4177C33.5333 37.2687 33.5677 37.1185 33.6035 36.9673H33.4164Z" fill="#0B0A0A" style="fill:#0B0A0A;fill:color(display-p3 0.0431 0.0392 0.0392);fill-opacity:1;"/>
<path d="M33.4164 36.9673V36.2429C33.153 36.3048 32.8879 36.3679 32.6234 36.4263L32.6085 36.487L32.4962 36.5134C31.8069 36.6762 31.1031 36.7988 30.38 36.8893C27.9209 37.3546 25.4107 37.695 22.8564 37.9013C23.9897 38.0743 25.1257 38.1706 26.2289 38.2004L26.4115 38.205V38.6348C26.7867 38.5901 27.1623 38.5431 27.5353 38.4926V38.205L27.718 38.2004C28.9808 38.1672 30.2858 38.0457 31.5791 37.8211C32.2222 37.6962 32.8606 37.5609 33.4962 37.4177C33.5333 37.2687 33.5677 37.1185 33.6035 36.9673H33.4164Z" fill="#0B0A0A" style="fill:#0B0A0A;fill:color(display-p3 0.0431 0.0392 0.0392);fill-opacity:1;"/>
<path d="M33.607 36.9678C33.6687 36.7007 33.7283 36.4314 33.7822 36.1598C33.6618 36.1885 33.5405 36.2148 33.4199 36.2435V36.9678H33.607Z" fill="#0B0A0A" style="fill:#0B0A0A;fill:color(display-p3 0.0431 0.0392 0.0392);fill-opacity:1;"/>
<path d="M33.607 36.9678C33.6687 36.7007 33.7283 36.4314 33.7822 36.1598C33.6618 36.1885 33.5405 36.2148 33.4199 36.2435V36.9678H33.607Z" fill="#0B0A0A" style="fill:#0B0A0A;fill:color(display-p3 0.0431 0.0392 0.0392);fill-opacity:1;"/>
<path d="M33.607 36.9678C33.6687 36.7007 33.7283 36.4314 33.7822 36.1598C33.6618 36.1885 33.5405 36.2148 33.4199 36.2435V36.9678H33.607Z" fill="#0B0A0A" style="fill:#0B0A0A;fill:color(display-p3 0.0431 0.0392 0.0392);fill-opacity:1;"/>
<path d="M33.607 36.9678C33.6687 36.7007 33.7283 36.4314 33.7822 36.1598C33.6618 36.1885 33.5405 36.2148 33.4199 36.2435V36.9678H33.607Z" fill="#0B0A0A" style="fill:#0B0A0A;fill:color(display-p3 0.0431 0.0392 0.0392);fill-opacity:1;"/>
<path d="M38.2996 34.9067C38.0405 34.987 37.7804 35.0672 37.5201 35.1463C37.1694 35.6139 36.7383 36.1663 36.2539 36.7393C36.6994 36.6201 37.143 36.4963 37.5843 36.3691C37.6141 36.306 37.6451 36.243 37.6749 36.18C37.8376 35.8522 38.0623 35.3491 38.2996 34.9067Z" fill="#0B0A0A" style="fill:#0B0A0A;fill:color(display-p3 0.0431 0.0392 0.0392);fill-opacity:1;"/>
<path d="M38.2996 34.9067C38.0405 34.987 37.7804 35.0672 37.5201 35.1463C37.1694 35.6139 36.7383 36.1663 36.2539 36.7393C36.6994 36.6201 37.143 36.4963 37.5843 36.3691C37.6141 36.306 37.6451 36.243 37.6749 36.18C37.8376 35.8522 38.0623 35.3491 38.2996 34.9067Z" fill="#0B0A0A" style="fill:#0B0A0A;fill:color(display-p3 0.0431 0.0392 0.0392);fill-opacity:1;"/>
<path d="M21.7716 37.9799C21.3853 38.005 20.9976 38.0268 20.6104 38.0463C20.7147 38.3958 20.8293 38.7408 20.9525 39.0801C21.356 39.0629 21.7583 39.0422 22.1602 39.0182C22.0213 38.6801 21.8931 38.3397 21.7771 37.9971L21.7716 37.9799Z" fill="#0B0A0A" style="fill:#0B0A0A;fill:color(display-p3 0.0431 0.0392 0.0392);fill-opacity:1;"/>
<path d="M21.7716 37.9799C21.3853 38.005 20.9976 38.0268 20.6104 38.0463C20.7147 38.3958 20.8293 38.7408 20.9525 39.0801C21.356 39.0629 21.7583 39.0422 22.1602 39.0182C22.0213 38.6801 21.8931 38.3397 21.7771 37.9971L21.7716 37.9799Z" fill="#0B0A0A" style="fill:#0B0A0A;fill:color(display-p3 0.0431 0.0392 0.0392);fill-opacity:1;"/>
<path d="M21.7716 37.9799C21.3853 38.005 20.9976 38.0268 20.6104 38.0463C20.7147 38.3958 20.8293 38.7408 20.9525 39.0801C21.356 39.0629 21.7583 39.0422 22.1602 39.0182C22.0213 38.6801 21.8931 38.3397 21.7771 37.9971L21.7716 37.9799Z" fill="#0B0A0A" style="fill:#0B0A0A;fill:color(display-p3 0.0431 0.0392 0.0392);fill-opacity:1;"/>
<path d="M19.0719 38.1056C18.4334 38.1239 17.7935 38.1342 17.1504 38.1354C17.4132 38.4883 17.6952 38.8264 17.9932 39.1484C18.7082 39.1461 19.4215 39.1347 20.1311 39.1118C19.7548 38.8001 19.4013 38.4643 19.0719 38.1056Z" fill="#0B0A0A" style="fill:#0B0A0A;fill:color(display-p3 0.0431 0.0392 0.0392);fill-opacity:1;"/>
<path d="M19.0719 38.1056C18.4334 38.1239 17.7935 38.1342 17.1504 38.1354C17.4132 38.4883 17.6952 38.8264 17.9932 39.1484C18.7082 39.1461 19.4215 39.1347 20.1311 39.1118C19.7548 38.8001 19.4013 38.4643 19.0719 38.1056Z" fill="#0B0A0A" style="fill:#0B0A0A;fill:color(display-p3 0.0431 0.0392 0.0392);fill-opacity:1;"/>
<path d="M19.0719 38.1056C18.4334 38.1239 17.7935 38.1342 17.1504 38.1354C17.4132 38.4883 17.6952 38.8264 17.9932 39.1484C18.7082 39.1461 19.4215 39.1347 20.1311 39.1118C19.7548 38.8001 19.4013 38.4643 19.0719 38.1056Z" fill="#0B0A0A" style="fill:#0B0A0A;fill:color(display-p3 0.0431 0.0392 0.0392);fill-opacity:1;"/>
<path d="M17.7914 9.36722C9.10734 16.337 6.02238 27.6867 9.14496 37.71C9.29421 37.7261 9.44394 37.741 9.59366 37.7559C6.87159 27.9342 10.018 16.9999 18.4717 10.2141C29.6617 1.23204 45.9454 2.89087 55.1125 13.8425C55.0025 13.6981 54.897 13.5526 54.7824 13.4105C45.6841 2.08058 29.1229 0.26984 17.7914 9.36722Z" fill="#0B0A0A" style="fill:#0B0A0A;fill:color(display-p3 0.0431 0.0392 0.0392);fill-opacity:1;"/>
<path d="M13.7467 46.3506C13.8609 46.4927 13.9817 46.6268 14.0982 46.7666C12.1829 44.2797 10.7812 41.5544 9.87723 38.7201C9.73896 38.7041 9.60162 38.6869 9.46387 38.6709C10.4252 41.3813 11.8441 43.9817 13.7467 46.3506Z" fill="#0B0A0A" style="fill:#0B0A0A;fill:color(display-p3 0.0431 0.0392 0.0392);fill-opacity:1;"/>
<path d="M9.46127 38.6704C9.59902 38.6865 9.73636 38.7037 9.87464 38.7197C9.77258 38.4 9.68043 38.078 9.59128 37.7559C9.44155 37.741 9.29183 37.7261 9.14258 37.7101C9.24253 38.0321 9.348 38.3519 9.46127 38.6704Z" fill="#0B0A0A" style="fill:#0B0A0A;fill:color(display-p3 0.0431 0.0392 0.0392);fill-opacity:1;"/>
<path d="M9.46127 38.6704C9.59902 38.6865 9.73636 38.7037 9.87464 38.7197C9.77258 38.4 9.68043 38.078 9.59128 37.7559C9.44155 37.741 9.29183 37.7261 9.14258 37.7101C9.24253 38.0321 9.348 38.3519 9.46127 38.6704Z" fill="#0B0A0A" style="fill:#0B0A0A;fill:color(display-p3 0.0431 0.0392 0.0392);fill-opacity:1;"/>
<path d="M26.3547 1.98118C10.9034 6.46295 2.0123 22.6182 6.49537 38.0645C6.55153 38.257 6.61756 38.4461 6.67737 38.6387C2.58134 23.3688 11.4326 7.56199 26.6902 3.13597C41.9484 -1.29011 57.8869 7.3264 62.6008 22.4171C62.548 22.2228 62.5057 22.0279 62.4482 21.8338C57.9637 6.38843 41.8051 -2.50152 26.3547 1.98118Z" fill="#0B0A0A" style="fill:#0B0A0A;fill:color(display-p3 0.0431 0.0392 0.0392);fill-opacity:1;"/>
<path d="M1.65523 48.9778C1.71185 48.9778 1.76894 48.971 1.81846 48.971C2.4008 48.9492 2.66353 48.7933 2.84121 48.4099C2.91205 48.2753 2.94048 48.0977 2.91916 47.8776C2.86964 47.3447 2.57137 47.0678 1.84689 47.0181C1.79003 47.0181 1.73341 47.0181 1.67632 47.0181H0.866786V48.9778H1.65523ZM0.149414 46.5356H1.73341C1.81846 46.5356 1.89664 46.5356 1.9817 46.5425C3.03311 46.5998 3.54437 47.0181 3.63653 47.7997C3.69339 48.2324 3.5799 48.6226 3.32428 48.9354C3.04709 49.2689 2.64932 49.4603 2.15938 49.4752H2.10252H1.7545H0.866786V51.6475H0.149414V46.5356Z" fill="#0B0A0A" style="fill:#0B0A0A;fill:color(display-p3 0.0431 0.0392 0.0392);fill-opacity:1;"/>
<path d="M4.22655 50.0427C4.31872 51.0089 4.8584 51.4421 5.58999 51.2644C6.03726 51.151 6.31422 50.782 6.37796 50.0427C6.3924 49.9224 6.3924 49.8021 6.37796 49.6811C6.31422 48.9357 6.03726 48.5735 5.58999 48.46C4.8584 48.2755 4.31872 48.7087 4.22655 49.6811C4.21921 49.7379 4.21921 49.8021 4.21921 49.8582C4.21921 49.9224 4.21921 49.9793 4.22655 50.0427ZM5.68238 48.02C6.52035 48.1689 7.08133 48.8577 7.08133 49.8582C7.08133 50.8599 6.52035 51.5487 5.68238 51.6977C4.45375 51.9177 3.53027 51.1292 3.53027 49.8582C3.53027 48.5873 4.45375 47.7999 5.68238 48.02Z" fill="#0B0A0A" style="fill:#0B0A0A;fill:color(display-p3 0.0431 0.0392 0.0392);fill-opacity:1;"/>
<path d="M7.94935 48.0835L8.84393 50.9307L9.72501 48.0835H10.5416L11.4296 50.9307L12.3386 48.0835H12.9278L11.7987 51.6475H11.0529L10.1152 48.6581L9.19197 51.6475H8.41823L7.28906 48.0835H7.94935Z" fill="#0B0A0A" style="fill:#0B0A0A;fill:color(display-p3 0.0431 0.0392 0.0392);fill-opacity:1;"/>
<path d="M15.673 49.5914C15.6799 49.5559 15.6799 49.5135 15.6799 49.4779C15.6588 48.7463 15.2897 48.3915 14.7216 48.4126C14.2385 48.427 13.8905 48.7394 13.7914 49.4069C13.777 49.463 13.777 49.5272 13.777 49.5914H15.673ZM13.7697 49.9536C13.7628 50.0246 13.7628 50.1025 13.7697 50.1805C13.827 50.969 14.203 51.3311 14.7571 51.338C15.2042 51.3517 15.4953 51.1317 15.6233 50.6561C15.6375 50.6279 15.6451 50.5926 15.6451 50.5568H16.2485C16.2485 50.6279 16.2343 50.7058 16.213 50.7769C16.0639 51.3591 15.5664 51.7288 14.7571 51.7425C13.7839 51.7639 13.2302 51.2314 13.1236 50.1518C13.0027 48.8958 13.5706 48.1497 14.4449 48.0293C15.6233 47.8661 16.2767 48.4339 16.3333 49.7335C16.3333 49.8046 16.3333 49.8756 16.3264 49.9536H13.7697Z" fill="#0B0A0A" style="fill:#0B0A0A;fill:color(display-p3 0.0431 0.0392 0.0392);fill-opacity:1;"/>
<path d="M17.0156 48.0835H17.6546V48.587C17.6759 48.5515 17.697 48.516 17.7183 48.4878C17.9316 48.1825 18.1945 48.0335 18.585 48.0197C18.6916 48.0124 18.8051 48.0266 18.9117 48.0477V48.6088L18.8479 48.6019L18.7626 48.5946C17.9671 48.5515 17.6546 48.8644 17.6546 49.6024V51.6475H17.0156V48.0835Z" fill="#0B0A0A" style="fill:#0B0A0A;fill:color(display-p3 0.0431 0.0392 0.0392);fill-opacity:1;"/>
<path d="M22.8757 48.3844C23.2804 48.1494 23.4436 47.9225 23.4861 47.6246C23.5502 47.1414 23.188 46.7936 22.7404 46.8716C22.2079 46.9571 22.0022 47.4682 22.3638 48.0715C22.4069 48.1283 22.4424 48.185 22.4848 48.2423C22.5559 48.3413 22.6126 48.4199 22.6768 48.4834C22.7478 48.455 22.8115 48.4268 22.8757 48.3844ZM22.0371 49.2072C21.9591 49.2783 21.8812 49.3567 21.8101 49.4346C21.2491 50.0954 21.5189 51.0467 22.329 51.3091C22.8895 51.4936 23.4718 51.3309 23.9125 50.8546C23.9618 50.798 24.0048 50.7414 24.0473 50.6845L22.5346 48.9024C22.3638 48.9734 22.2005 49.0725 22.0371 49.2072ZM22.2647 48.5895L22.1868 48.4903C22.0022 48.2423 21.8956 48.0502 21.8388 47.8801C21.5969 47.134 22.0657 46.4602 22.8826 46.4739C22.9679 46.4739 23.0527 46.4808 23.1383 46.5025C23.8059 46.6515 24.1252 47.4538 23.7137 48.0933C23.5858 48.2915 23.3794 48.4834 23.1027 48.6399C23.0316 48.6755 22.9537 48.711 22.8826 48.7461L24.2461 50.351C24.3671 50.0244 24.4306 49.6833 24.4382 49.3356H24.8284C24.8141 49.5414 24.786 49.7539 24.7362 49.9602C24.672 50.1945 24.5872 50.4221 24.4806 50.6345L25.361 51.6499H24.8639L24.2816 50.9332C24.2392 50.9894 24.2036 51.0398 24.1608 51.0891C23.8983 51.4019 23.5429 51.6146 23.1525 51.6999C22.3214 51.8844 21.5545 51.5223 21.2346 50.8903C21.1281 50.6703 21.0714 50.4358 21.0788 50.1945C21.0932 49.6405 21.4054 49.1362 22.0515 48.7672C22.1368 48.7179 22.2223 48.6824 22.3072 48.6468L22.2647 48.5895Z" fill="#0B0A0A" style="fill:#0B0A0A;fill:color(display-p3 0.0431 0.0392 0.0392);fill-opacity:1;"/>
<path d="M27.79 46.5356H30.9429V47.0467H28.507V48.7509H30.8083V49.2689H28.507V51.1363H31.0208V51.6475H27.79V46.5356Z" fill="#0B0A0A" style="fill:#0B0A0A;fill:color(display-p3 0.0431 0.0392 0.0392);fill-opacity:1;"/>
<path d="M31.6895 48.0835H32.3286V48.7367C32.3497 48.6936 32.371 48.6512 32.3921 48.6088C32.6198 48.218 32.9109 48.0266 33.3511 47.9842C34.1965 47.9058 34.679 48.3315 34.7146 49.0844L34.7222 49.2403V49.3469V51.6475H34.0825V49.4397V49.3824L34.0756 49.2265C34.0543 48.9286 33.9977 48.7933 33.8697 48.6581C33.6847 48.4598 33.3867 48.3746 33.0673 48.4598C32.5985 48.5733 32.3286 48.971 32.3286 49.8225V51.6475H31.6895V48.0835Z" fill="#0B0A0A" style="fill:#0B0A0A;fill:color(display-p3 0.0431 0.0392 0.0392);fill-opacity:1;"/>
<path d="M37.9738 49.5914C37.9807 49.5559 37.9807 49.5135 37.9807 49.4779C37.9596 48.7463 37.5905 48.3915 37.0224 48.4126C36.5393 48.427 36.1912 48.7394 36.0922 49.4069C36.0778 49.463 36.0778 49.5272 36.0778 49.5914H37.9738ZM36.0705 49.9536C36.0636 50.0246 36.0636 50.1025 36.0705 50.1805C36.1277 50.969 36.5038 51.3311 37.0579 51.338C37.5049 51.3517 37.7961 51.1317 37.9241 50.6561C37.9383 50.6279 37.9458 50.5926 37.9458 50.5568H38.5492C38.5492 50.6279 38.535 50.7058 38.5137 50.7769C38.3647 51.3591 37.8672 51.7288 37.0579 51.7425C36.0847 51.7639 35.531 51.2314 35.4244 50.1518C35.3035 48.8958 35.8714 48.1497 36.7456 48.0293C37.9241 47.8661 38.5775 48.4339 38.6341 49.7335C38.6341 49.8046 38.6341 49.8756 38.6272 49.9536H36.0705Z" fill="#0B0A0A" style="fill:#0B0A0A;fill:color(display-p3 0.0431 0.0392 0.0392);fill-opacity:1;"/>
<path d="M39.3193 48.0835H39.9583V48.587C39.9796 48.5515 40.0007 48.516 40.0221 48.4878C40.2353 48.1825 40.4982 48.0335 40.8887 48.0197C40.9953 48.0124 41.1088 48.0266 41.2154 48.0477V48.6088L41.1516 48.6019L41.0664 48.5946C40.2708 48.5515 39.9583 48.8644 39.9583 49.6024V51.6475H39.3193V48.0835Z" fill="#0B0A0A" style="fill:#0B0A0A;fill:color(display-p3 0.0431 0.0392 0.0392);fill-opacity:1;"/>
<path d="M43.1534 51.1587C43.4091 51.0807 43.6216 50.8607 43.7851 50.4488C43.8349 50.314 43.8635 50.1719 43.8848 50.0087C43.9983 48.851 43.4091 48.3187 42.6846 48.4819C42.2724 48.5812 41.9601 48.9578 41.8891 49.6035C41.8746 49.6676 41.8746 49.7387 41.8677 49.8098C41.8391 50.8962 42.4645 51.3787 43.1534 51.1587ZM43.8704 48.0845H44.5169V51.6274C44.5169 52.6142 43.8493 53.2388 42.677 53.1753C41.8322 53.1253 41.392 52.7563 41.3354 52.2027C41.3354 52.1523 41.3278 52.1099 41.3354 52.0606H41.9812C41.9812 52.0819 41.9812 52.1099 41.9888 52.1317C42.0243 52.4652 42.2582 52.6852 42.7481 52.7207C43.4228 52.77 43.8206 52.4154 43.8635 51.7764C43.8704 51.734 43.8704 51.6916 43.8704 51.6561V50.8744L43.8349 50.9386L43.7638 51.0383C43.4015 51.5919 42.7837 51.7975 42.1165 51.5277C41.6048 51.3145 41.2923 50.8744 41.1933 50.1433C41.1719 49.9301 41.1719 49.71 41.2075 49.49C41.3423 48.6522 41.8609 48.1269 42.429 48.0414C43.139 47.9279 43.6434 48.1698 43.8704 48.5956V48.0845Z" fill="#0B0A0A" style="fill:#0B0A0A;fill:color(display-p3 0.0431 0.0392 0.0392);fill-opacity:1;"/>
<path d="M45.54 48.0856L46.5912 50.9328L47.6355 48.0856H48.2179L46.3998 53.0273H45.7743L46.2576 51.7064L44.8584 48.0856H45.54Z" fill="#0B0A0A" style="fill:#0B0A0A;fill:color(display-p3 0.0431 0.0392 0.0392);fill-opacity:1;"/>
<path d="M50.9322 50.2304C50.868 50.8337 51.3793 51.3238 52.2528 51.2452C52.3949 51.2383 52.516 51.2028 52.6295 51.1535C53.0414 50.9758 53.2118 50.6985 53.2049 50.3363C53.1904 49.9536 53.0414 49.769 52.5939 49.5845L52.2248 49.463L51.777 49.3003C51.706 49.2785 51.6356 49.2506 51.5645 49.2224C50.4703 48.796 50.1435 48.2918 50.4068 47.4254C50.5768 46.8505 51.1523 46.4531 52.0826 46.4531C53.2049 46.4386 53.8439 47.0208 53.8725 47.7806H53.1481C53.1407 47.3264 52.7572 46.9715 52.0758 46.9715C51.5214 46.9715 51.2161 47.1774 51.0812 47.575C50.918 48.0862 51.1668 48.4625 52.0403 48.7605L52.5302 48.9237L52.7785 49.0092L52.9704 49.0803C53.7659 49.3714 54.0708 49.9318 53.8863 50.6847C53.7304 51.3093 53.2329 51.6784 52.3101 51.7357C52.1251 51.7494 51.9405 51.7425 51.756 51.7288C50.8045 51.6428 50.3499 51.2738 50.229 50.5495C50.2146 50.4429 50.2077 50.3363 50.2146 50.2304H50.9322Z" fill="#0B0A0A" style="fill:#0B0A0A;fill:color(display-p3 0.0431 0.0392 0.0392);fill-opacity:1;"/>
<path d="M55.0522 50.0427C55.1444 51.0089 55.6843 51.4421 56.4157 51.2644C56.8635 51.151 57.1402 50.782 57.2043 50.0427C57.2181 49.9224 57.2181 49.8021 57.2043 49.6811C57.1402 48.9357 56.8635 48.5735 56.4157 48.46C55.6843 48.2755 55.1444 48.7087 55.0522 49.6811C55.0454 49.7379 55.0454 49.8021 55.0454 49.8582C55.0454 49.9224 55.0454 49.9793 55.0522 50.0427ZM56.5081 48.02C57.3465 48.1689 57.9071 48.8577 57.9071 49.8582C57.9071 50.8599 57.3465 51.5487 56.5081 51.6977C55.2797 51.9177 54.3564 51.1292 54.3564 49.8582C54.3564 48.5873 55.2797 47.7999 56.5081 48.02Z" fill="#0B0A0A" style="fill:#0B0A0A;fill:color(display-p3 0.0431 0.0392 0.0392);fill-opacity:1;"/>
<path d="M60.9068 49.2415C60.8992 49.1991 60.8927 49.1498 60.8857 49.0925C60.8716 49.029 60.8498 48.9653 60.8281 48.908C60.6227 48.4255 59.9413 48.2616 59.4436 48.6811C59.2165 48.8725 59.0674 49.178 59.0322 49.6821C59.0175 49.8386 59.0245 50.0014 59.0457 50.1579C59.1378 50.8964 59.4366 51.2155 59.9765 51.2512C60.5018 51.2865 60.8217 51.0385 60.8992 50.5412C60.9068 50.5056 60.9068 50.4701 60.9138 50.4414H61.5172C61.5172 50.5201 61.5101 50.598 61.489 50.6691C61.354 51.3576 60.807 51.7766 59.9478 51.7411C58.9465 51.7055 58.3712 51.0809 58.3499 49.9166C58.3357 48.7946 58.8966 48.0989 59.7206 47.9992C60.7436 47.8647 61.3616 48.2972 61.5031 49.0643C61.5101 49.1212 61.5172 49.1854 61.5248 49.2415H60.9068Z" fill="#0B0A0A" style="fill:#0B0A0A;fill:color(display-p3 0.0431 0.0392 0.0392);fill-opacity:1;"/>
<path d="M62.1133 48.0835H62.7524V51.6475H62.1133V48.0835ZM62.1133 46.5356H62.7524V47.2954H62.1133V46.5356Z" fill="#0B0A0A" style="fill:#0B0A0A;fill:color(display-p3 0.0431 0.0392 0.0392);fill-opacity:1;"/>
<path d="M66.0033 49.5914C66.0097 49.5559 66.0097 49.5135 66.0097 49.4779C65.9886 48.7463 65.6194 48.3915 65.0513 48.4126C64.5682 48.427 64.2202 48.7394 64.1216 49.4069C64.1069 49.463 64.1069 49.5272 64.1069 49.5914H66.0033ZM64.0993 49.9536C64.0928 50.0246 64.0928 50.1025 64.0993 50.1805C64.1568 50.969 64.533 51.3311 65.0871 51.338C65.5343 51.3517 65.8254 51.1317 65.9534 50.6561C65.9674 50.6279 65.9751 50.5926 65.9751 50.5568H66.5784C66.5784 50.6279 66.5643 50.7058 66.5426 50.7769C66.3941 51.3591 65.8964 51.7288 65.0871 51.7425C64.114 51.7639 63.5599 51.2314 63.4537 50.1518C63.3328 48.8958 63.9009 48.1497 64.7748 48.0293C65.9534 47.8661 66.6066 48.4339 66.6635 49.7335C66.6635 49.8046 66.6635 49.8756 66.6565 49.9536H64.0993Z" fill="#0B0A0A" style="fill:#0B0A0A;fill:color(display-p3 0.0431 0.0392 0.0392);fill-opacity:1;"/>
<path d="M66.7568 48.0845H67.403V47.3599L68.0422 47.1046V48.0845H68.8445V48.517H68.0422V50.6544C68.0422 50.6688 68.0422 50.683 68.0422 50.7041C68.0844 51.1373 68.1772 51.2228 68.6532 51.2153C68.7242 51.2153 68.7946 51.2084 68.8803 51.1873V51.6629C68.7312 51.6984 68.6033 51.7122 68.4683 51.7195C67.673 51.7408 67.403 51.4784 67.403 50.6613V48.517H66.7568V48.0845Z" fill="#0B0A0A" style="fill:#0B0A0A;fill:color(display-p3 0.0431 0.0392 0.0392);fill-opacity:1;"/>
<path d="M69.2976 48.0856L70.3488 50.9328L71.3929 48.0856H71.9751L70.1575 53.0273H69.5318L70.0148 51.7064L68.6162 48.0856H69.2976Z" fill="#0B0A0A" style="fill:#0B0A0A;fill:color(display-p3 0.0431 0.0392 0.0392);fill-opacity:1;"/>
<path d="M21.3921 45.8367C21.4983 45.878 21.6038 45.9112 21.7097 45.9502C13.541 42.6026 9.51281 33.3241 12.7081 25.0533C15.9047 16.781 25.1246 12.6186 33.4233 15.6304C33.3192 15.588 33.2181 15.5421 33.1126 15.5016C24.7332 12.2656 15.3185 16.4338 12.0822 24.8114C8.84566 33.1877 13.0148 42.6014 21.3921 45.8367Z" fill="#0B0A0A" style="fill:#0B0A0A;fill:color(display-p3 0.0431 0.0392 0.0392);fill-opacity:1;"/>
<path d="M39.9391 30.9744H40.2956L40.5455 30.956C41.1691 30.9377 41.5966 30.6535 41.8821 30.0644C42.007 29.8157 42.0793 29.4948 42.0437 29.0478C41.9543 28.0129 41.419 27.5132 40.2233 27.4606C40.1511 27.4606 40.0617 27.4606 39.9746 27.4606H38.9211V30.9744H39.9391ZM35.0146 25.2134H40.8297L41.5084 25.2489C44.255 25.3555 45.5045 26.4611 45.7005 28.8335C45.932 31.4373 44.3272 33.2928 41.686 33.4166L41.3123 33.4349H40.973H38.9761V38.0547H35.0146V25.2134Z" fill="#0B0A0A" style="fill:#0B0A0A;fill:color(display-p3 0.0431 0.0392 0.0392);fill-opacity:1;"/>
<path d="M46.5938 25.2134H55.8343V27.7642H50.4993V30.2065H55.5844V32.847H50.4993V35.5035H55.942V38.0547H46.5938V25.2134Z" fill="#0B0A0A" style="fill:#0B0A0A;fill:color(display-p3 0.0431 0.0392 0.0392);fill-opacity:1;"/>
<path d="M60.4227 33.7522C60.3869 33.9127 60.3869 34.0732 60.4045 34.2336C60.4767 35.4106 61.2608 36.0719 62.5086 35.9469C62.7234 35.9286 62.9018 35.8736 63.0638 35.8037C63.6701 35.5 63.9541 35.0541 63.9371 34.4307C63.9019 33.7523 63.5269 33.2697 62.7598 33.0211L62.6336 32.9855L61.9563 32.7896L60.9039 32.5053C60.7801 32.4687 60.6551 32.432 60.5289 32.3792C57.3354 31.3444 56.4092 30.1674 56.9617 27.8673C57.4077 25.9774 59.1033 24.8167 62.2955 24.8529C62.5813 24.8529 62.8848 24.8701 63.1689 24.8889C65.4173 25.0844 66.5783 25.7438 67.2374 26.9401C67.5584 27.528 67.7004 28.1882 67.6652 28.8655H63.9371C63.9371 28.7761 63.9371 28.6867 63.9371 28.5984C63.9189 28.3841 63.8479 28.171 63.7593 27.9738C63.4189 27.3504 62.832 27.0638 61.9393 27.1533C61.7432 27.1716 61.5642 27.2254 61.404 27.2954C60.7607 27.6358 60.4937 28.2054 60.6357 28.8827C60.7801 29.4717 61.1904 29.8121 62.3665 30.1502L63.5439 30.4883L64.9543 30.8814C67.2022 31.5232 68.2187 33.1104 67.7186 35.2685C67.2902 37.1239 65.9168 38.0866 62.974 38.2459C62.3853 38.2654 61.8495 38.2654 61.3142 38.2115C58.9072 38.0144 57.6404 37.2133 56.9789 35.8037C56.6763 35.1619 56.5686 34.4651 56.6407 33.7522H60.4227Z" fill="#0B0A0A" style="fill:#0B0A0A;fill:color(display-p3 0.0431 0.0392 0.0392);fill-opacity:1;"/>
<path d="M35.0703 17.7634H36.2696V23.9844H35.0703V17.7634Z" fill="#0B0A0A" style="fill:#0B0A0A;fill:color(display-p3 0.0431 0.0392 0.0392);fill-opacity:1;"/>
<path d="M37.082 17.7634H41.2735V18.7052H38.4994V20.3124H41.1355V21.2799H38.4994V23.0425H41.3429V23.9844H37.082V17.7634Z" fill="#0B0A0A" style="fill:#0B0A0A;fill:color(display-p3 0.0431 0.0392 0.0392);fill-opacity:1;"/>
<path d="M42.0352 17.7634H46.2268V18.7052H43.4527V20.3124H46.0881V21.2799H43.4527V23.0425H46.2956V23.9844H42.0352V17.7634Z" fill="#0B0A0A" style="fill:#0B0A0A;fill:color(display-p3 0.0431 0.0392 0.0392);fill-opacity:1;"/>
<path d="M46.9854 17.7634H51.1775V18.7052H48.4022V20.3124H51.0387V21.2799H48.4022V23.0425H51.2463V23.9844H46.9854V17.7634Z" fill="#0B0A0A" style="fill:#0B0A0A;fill:color(display-p3 0.0431 0.0392 0.0392);fill-opacity:1;"/>
<path d="M19.8379 42.7964C13.5255 38.9503 11.4766 30.772 15.1769 24.414C15.1274 24.4919 15.0747 24.5687 15.0249 24.6489C11.1292 31.0402 13.1532 39.3789 19.5462 43.2755C25.9391 47.1698 34.2809 45.147 38.1759 38.7554C38.224 38.6741 38.2687 38.5927 38.3157 38.5113C34.3602 44.715 26.1514 46.6426 19.8379 42.7964Z" fill="#0B0A0A" style="fill:#0B0A0A;fill:color(display-p3 0.0431 0.0392 0.0392);fill-opacity:1;"/>
<path fill-rule="evenodd" clip-rule="evenodd" d="M72.8086 44.6447V44.5973H72.8351C72.8495 44.5973 72.869 44.5987 72.869 44.6188C72.869 44.6407 72.859 44.6447 72.8422 44.6447H72.8086ZM72.8086 44.6781H72.8265L72.8672 44.7609H72.912L72.8668 44.6747C72.8903 44.6726 72.9093 44.6596 72.9093 44.6233C72.9093 44.5783 72.8825 44.5638 72.8368 44.5638H72.7709V44.7609H72.8086V44.6781ZM73.0005 44.6626C73.0005 44.5468 72.9228 44.4794 72.8359 44.4794C72.7487 44.4794 72.6709 44.5468 72.6709 44.6626C72.6709 44.7783 72.7487 44.8457 72.8359 44.8457C72.9228 44.8457 73.0005 44.7783 73.0005 44.6626ZM72.9532 44.6626C72.9532 44.7467 72.8994 44.8035 72.8359 44.8035V44.8031C72.7709 44.8035 72.7184 44.7467 72.7184 44.6626C72.7184 44.5783 72.7709 44.5222 72.8359 44.5222C72.8994 44.5222 72.9532 44.5783 72.9532 44.6626Z" fill="#0B0A0A" style="fill:#0B0A0A;fill:color(display-p3 0.0431 0.0392 0.0392);fill-opacity:1;"/>
</svg>
