<svg width="83" height="52" viewBox="0 0 83 52" fill="none" xmlns="http://www.w3.org/2000/svg">
<path d="M59.8471 45.2856H59.5938V45.1475H60.2563V45.2856H60.0029V46.0859H59.8471V45.2856Z" fill="#0B0A0A" style="fill:#0B0A0A;fill:color(display-p3 0.0431 0.0392 0.0392);fill-opacity:1;"/>
<path d="M60.4167 45.1475H60.5967L60.7756 45.7516C60.7889 45.7989 60.8065 45.8694 60.8203 45.9317C60.8352 45.8694 60.8526 45.8002 60.8675 45.7516L61.0463 45.1475H61.2265L61.3618 46.0859H61.2048L61.1317 45.5469C61.1262 45.5024 61.1208 45.4401 61.1179 45.3819C61.1019 45.4415 61.0842 45.5024 61.0707 45.5469L60.9095 46.0778H60.7336L60.571 45.5469C60.5574 45.5024 60.5398 45.4415 60.5249 45.3819C60.5208 45.4415 60.5168 45.5024 60.5116 45.5469L60.4384 46.0859H60.2812L60.4167 45.1475Z" fill="#0B0A0A" style="fill:#0B0A0A;fill:color(display-p3 0.0431 0.0392 0.0392);fill-opacity:1;"/>
<path d="M60.6729 12.2392C60.5193 12.2302 60.3843 12.351 60.3764 12.5066C60.3682 12.6622 60.4879 12.7949 60.6437 12.8033C65.1799 13.0386 69.0677 14.4987 70.2279 16.2275C70.2636 15.9649 70.2905 15.6996 70.3083 15.4315C68.7324 13.7486 65.083 12.4682 60.6729 12.2392Z" fill="#0B0A0A" style="fill:#0B0A0A;fill:color(display-p3 0.0431 0.0392 0.0392);fill-opacity:1;"/>
<path d="M58.7259 3.04589C52.3232 3.04589 47.1143 8.25496 47.1143 14.6577C47.1143 21.0604 52.3232 26.2695 58.7259 26.2695C65.1286 26.2695 70.3374 21.0604 70.3374 14.6577C70.3374 8.25496 65.1286 3.04589 58.7259 3.04589ZM58.7259 26.834C52.012 26.834 46.5498 21.3716 46.5498 14.6577C46.5498 7.94379 52.012 2.48136 58.7259 2.48136C65.44 2.48136 70.902 7.94379 70.902 14.6577C70.902 21.3716 65.44 26.834 58.7259 26.834Z" fill="#0B0A0A" style="fill:#0B0A0A;fill:color(display-p3 0.0431 0.0392 0.0392);fill-opacity:1;"/>
<path d="M51.6303 14.207L51.5838 14.198C51.5199 14.172 51.4892 14.0998 51.515 14.0361C53.0783 10.1722 55.503 7.65731 58.722 6.56121C65.2394 4.34147 72.8927 8.75454 72.9693 8.79948C73.0284 8.83425 73.0483 8.91035 73.0138 8.96951C72.9792 9.02868 72.9029 9.04855 72.8437 9.014C72.7681 8.96996 65.2119 4.61357 58.8013 6.79696C55.6541 7.8689 53.2801 10.3359 51.7453 14.1294C51.7259 14.1777 51.6791 14.207 51.6303 14.207Z" fill="#0B0A0A" style="fill:#0B0A0A;fill:color(display-p3 0.0431 0.0392 0.0392);fill-opacity:1;"/>
<path d="M50.6221 14.4564L51.3246 12.938L52.6853 13.5676L51.983 15.0859L50.6221 14.4564Z" fill="#0B0A0A" style="fill:#0B0A0A;fill:color(display-p3 0.0431 0.0392 0.0392);fill-opacity:1;"/>
<path d="M67.2979 15.9774L67.6686 15.1895L68.3748 15.5219L68.004 16.3096L67.2979 15.9774Z" fill="#0B0A0A" style="fill:#0B0A0A;fill:color(display-p3 0.0431 0.0392 0.0392);fill-opacity:1;"/>
<path d="M49.7402 17.2115L50.1108 16.4239L50.8169 16.7561L50.4459 17.5439L49.7402 17.2115Z" fill="#0B0A0A" style="fill:#0B0A0A;fill:color(display-p3 0.0431 0.0392 0.0392);fill-opacity:1;"/>
<path d="M61.4384 5.24316L61.085 4.51334L61.7389 4.19652L62.0925 4.92612L61.4384 5.24316Z" fill="#0B0A0A" style="fill:#0B0A0A;fill:color(display-p3 0.0431 0.0392 0.0392);fill-opacity:1;"/>
<path d="M56.4792 18.6377L55.9043 16.9071L57.4552 16.3918L58.0303 18.1224L56.4792 18.6377Z" fill="#0B0A0A" style="fill:#0B0A0A;fill:color(display-p3 0.0431 0.0392 0.0392);fill-opacity:1;"/>
<path d="M53.0234 6.1933L51.7216 7.75684L51.0889 7.23024L52.3907 5.66671L53.0234 6.1933Z" fill="#0B0A0A" style="fill:#0B0A0A;fill:color(display-p3 0.0431 0.0392 0.0392);fill-opacity:1;"/>
<path d="M56.0147 25.21L54.1357 24.4298L54.4894 23.5782L56.3681 24.3584L56.0147 25.21Z" fill="#0B0A0A" style="fill:#0B0A0A;fill:color(display-p3 0.0431 0.0392 0.0392);fill-opacity:1;"/>
<path d="M38.0964 18.6299L38.0515 18.6215C37.7453 18.5086 37.5755 18.4506 37.5746 18.4504C37.5082 18.4278 37.4732 18.3569 37.4965 18.2921C37.5195 18.2275 37.5926 18.1927 37.6584 18.2157C37.6584 18.2157 37.8304 18.2745 38.1414 18.3892C38.2069 18.4133 38.2403 18.4851 38.2152 18.5495C38.196 18.5992 38.1479 18.6299 38.0964 18.6299ZM39.0453 18.9937L38.9977 18.9844C38.8267 18.9169 38.6691 18.8555 38.5255 18.8004C38.46 18.7753 38.4279 18.7031 38.4537 18.6391C38.4792 18.5755 38.553 18.5441 38.6185 18.5689C38.7626 18.6245 38.9213 18.6859 39.0932 18.7541C39.158 18.7798 39.1896 18.8523 39.1632 18.916C39.1431 18.9643 39.0957 18.9937 39.0453 18.9937ZM39.9858 19.3767L39.9359 19.3665C39.7731 19.2985 39.6168 19.2339 39.4676 19.1732C39.403 19.1468 39.3721 19.0741 39.3994 19.0106C39.4265 18.9472 39.501 18.9169 39.5656 18.9438C39.7155 19.0047 39.8722 19.0695 40.0359 19.138C40.1005 19.1648 40.1306 19.238 40.1028 19.301C40.0822 19.3482 40.0353 19.3767 39.9858 19.3767ZM71.8027 19.5659L71.7966 19.5657C71.7266 19.5627 71.6722 19.5045 71.6756 19.4358C71.6785 19.3751 71.6808 19.3141 71.6823 19.2529C71.6842 19.1854 71.7406 19.1319 71.8095 19.1319H71.8129C71.8831 19.1339 71.9384 19.191 71.9364 19.2597C71.9348 19.3225 71.9328 19.385 71.9296 19.4473C71.9265 19.5139 71.87 19.5659 71.8027 19.5659ZM40.9182 19.7768L40.8663 19.7657C40.7073 19.6957 40.5524 19.6284 40.402 19.5639C40.3376 19.5363 40.3085 19.4631 40.3367 19.4001C40.365 19.3374 40.4404 19.3087 40.5041 19.3365C40.6554 19.4013 40.8107 19.4688 40.9706 19.5392C41.0347 19.5672 41.0632 19.6409 41.0345 19.7034C41.013 19.7495 40.9668 19.7768 40.9182 19.7768ZM41.8434 20.1936L41.7889 20.1815C41.6327 20.1094 41.4789 20.0394 41.3285 19.9717C41.2648 19.943 41.2368 19.8692 41.2664 19.8066C41.2953 19.7443 41.371 19.7172 41.4349 19.7459C41.5864 19.8141 41.7406 19.8843 41.8978 19.957C41.961 19.9861 41.9881 20.0602 41.9583 20.1223C41.9364 20.1672 41.891 20.1936 41.8434 20.1936ZM71.6975 20.5538L71.6767 20.552C71.6074 20.5409 71.5602 20.477 71.5717 20.4093C71.5983 20.2494 71.6207 20.0877 71.6379 19.9243C71.6449 19.8561 71.7047 19.8066 71.7774 19.8132C71.8472 19.8204 71.8978 19.8816 71.8905 19.9498C71.8729 20.1185 71.8503 20.2849 71.8226 20.4495C71.8126 20.5105 71.7587 20.5538 71.6975 20.5538ZM42.7595 20.627L42.703 20.6141C42.549 20.5396 42.3971 20.4667 42.2471 20.3958C42.1839 20.3659 42.1572 20.2917 42.188 20.2298C42.2184 20.1677 42.2952 20.1424 42.3578 20.172C42.5082 20.2433 42.6613 20.3165 42.8157 20.3915C42.8789 20.4217 42.9047 20.4965 42.8733 20.5579C42.8514 20.6017 42.806 20.627 42.7595 20.627ZM43.6673 21.0777L43.6083 21.0635C43.4566 20.9863 43.3062 20.9106 43.1569 20.8365C43.0946 20.8056 43.0693 20.7306 43.1009 20.6694C43.133 20.608 43.2098 20.5841 43.2721 20.6148C43.4218 20.6893 43.5733 20.7654 43.726 20.8431C43.7883 20.8747 43.8122 20.9499 43.7799 21.0109C43.7571 21.0533 43.7131 21.0777 43.6673 21.0777ZM71.4737 21.5221L71.4378 21.5171C71.3707 21.4979 71.3319 21.4291 71.3518 21.3631C71.398 21.2073 71.4396 21.0495 71.4762 20.8896C71.492 20.8225 71.5606 20.7803 71.6282 20.7954C71.6968 20.8106 71.7399 20.877 71.7246 20.944C71.6864 21.1093 71.6435 21.2721 71.5956 21.4325C71.5794 21.4869 71.5288 21.5221 71.4737 21.5221ZM44.5655 21.5456C44.545 21.5456 44.524 21.5406 44.5046 21.5305C44.3549 21.4503 44.2058 21.3717 44.0579 21.2947C43.996 21.2624 43.9726 21.187 44.0055 21.1265C44.0387 21.0655 44.1157 21.0429 44.1776 21.0752C44.3264 21.1527 44.4759 21.2317 44.6267 21.3123C44.6879 21.3451 44.7107 21.4207 44.6773 21.481C44.6543 21.5221 44.6107 21.5456 44.5655 21.5456ZM45.4532 22.0324C45.4315 22.0324 45.4101 22.027 45.39 22.0157C45.2425 21.9326 45.0953 21.8509 44.9487 21.7705C44.8873 21.7371 44.8659 21.6612 44.8997 21.6016C44.9345 21.5411 45.0115 21.5201 45.0729 21.5539C45.2206 21.6346 45.3683 21.7168 45.5167 21.8003C45.5779 21.8346 45.5986 21.9105 45.5634 21.9701C45.5399 22.0101 45.4972 22.0324 45.4532 22.0324ZM71.1316 22.4572L71.0815 22.447C71.0171 22.4202 70.9871 22.347 71.0146 22.2838C71.0799 22.1345 71.1411 21.9825 71.1971 21.8285C71.2208 21.764 71.2933 21.7303 71.3597 21.7531C71.4258 21.7761 71.4604 21.8473 71.4367 21.9121C71.3786 22.0708 71.3156 22.2276 71.2486 22.3818C71.228 22.429 71.1808 22.4572 71.1316 22.4572ZM46.3294 22.5387C46.3066 22.5387 46.284 22.5329 46.2632 22.5204C46.1182 22.4342 45.9733 22.3493 45.8283 22.2657C45.7678 22.2307 45.7479 22.1546 45.7834 22.0954C45.8193 22.0363 45.8978 22.0169 45.9575 22.0514C46.1033 22.1359 46.2494 22.2212 46.3955 22.3079C46.4556 22.3438 46.4746 22.4202 46.4378 22.4789C46.414 22.5173 46.3718 22.5387 46.3294 22.5387ZM47.1929 23.0653C47.1692 23.0653 47.1452 23.0592 47.1242 23.0457C46.9817 22.956 46.8386 22.8677 46.6956 22.7803C46.636 22.744 46.6177 22.6674 46.6552 22.6092C46.6925 22.5507 46.7713 22.5338 46.8305 22.5697C46.9743 22.6573 47.1181 22.7465 47.2618 22.8366C47.3207 22.8738 47.3379 22.9508 47.2997 23.0084C47.2755 23.0452 47.2347 23.0653 47.1929 23.0653ZM70.6775 23.3451C70.6558 23.3451 70.6341 23.3397 70.6143 23.3284C70.5531 23.2941 70.5325 23.218 70.5673 23.1586C70.6504 23.0174 70.7294 22.8741 70.8039 22.728C70.8351 22.6665 70.9114 22.6419 70.9744 22.6724C71.0372 22.7031 71.0627 22.7776 71.0313 22.8391C70.9548 22.9894 70.8733 23.1374 70.7877 23.2828C70.7642 23.3227 70.7215 23.3451 70.6775 23.3451ZM48.0395 23.6136C48.0146 23.6136 47.9898 23.6066 47.9679 23.5919C47.8283 23.4987 47.6883 23.4067 47.5476 23.3157C47.4894 23.278 47.4733 23.2008 47.512 23.1437C47.5512 23.0863 47.6298 23.071 47.6883 23.1087C47.8299 23.2001 47.9708 23.2927 48.1113 23.3867C48.1693 23.4253 48.1842 23.5025 48.1445 23.5594C48.1198 23.5946 48.0801 23.6136 48.0395 23.6136ZM70.1213 24.1761C70.0951 24.1761 70.0687 24.1682 70.0457 24.1517C69.9894 24.1111 69.9775 24.0332 70.0192 23.9778C70.1186 23.8462 70.2137 23.7123 70.3056 23.5757C70.3444 23.5178 70.4239 23.5027 70.4817 23.5398C70.5406 23.5775 70.5569 23.6545 70.5183 23.712C70.4241 23.8525 70.3259 23.9905 70.2236 24.1255C70.1988 24.1587 70.1601 24.1761 70.1213 24.1761ZM48.8704 24.1863C48.8445 24.1863 48.8181 24.1786 48.7955 24.1623C48.6589 24.0652 48.5218 23.969 48.3838 23.874C48.3265 23.8344 48.3125 23.757 48.3531 23.7008C48.3933 23.6443 48.4728 23.631 48.5301 23.6707C48.669 23.7665 48.8079 23.8636 48.9454 23.9616C49.0021 24.002 49.0147 24.0799 48.9732 24.1352C48.9484 24.1686 48.9095 24.1863 48.8704 24.1863ZM49.6838 24.7862C49.6563 24.7862 49.6287 24.7777 49.6057 24.7598C49.4725 24.658 49.3383 24.5573 49.2033 24.4577C49.1471 24.4164 49.1362 24.3385 49.1782 24.2836C49.2207 24.2287 49.3006 24.2181 49.3564 24.2592C49.4926 24.3597 49.6281 24.4613 49.7622 24.564C49.8175 24.6065 49.8274 24.6846 49.7841 24.7388C49.759 24.77 49.7213 24.7862 49.6838 24.7862ZM69.4728 24.943C69.4421 24.943 69.4111 24.9321 69.3865 24.9102C69.335 24.8637 69.3316 24.7851 69.379 24.7345C69.4926 24.6139 69.6028 24.4904 69.7094 24.3646C69.7539 24.3118 69.8345 24.3046 69.8885 24.3479C69.9425 24.3915 69.9501 24.4701 69.9054 24.5229C69.7964 24.6521 69.683 24.779 69.5662 24.903C69.5414 24.9296 69.5073 24.943 69.4728 24.943ZM50.4742 25.4145C50.4455 25.4145 50.4161 25.4047 50.392 25.3849C50.2639 25.2785 50.1339 25.1733 50.0027 25.0692C49.9478 25.0258 49.9394 24.9475 49.9839 24.8942C50.0284 24.8409 50.1088 24.833 50.1626 24.8761C50.2951 24.9813 50.4268 25.0877 50.5566 25.1952C50.6101 25.2397 50.6167 25.318 50.5713 25.3704C50.546 25.3996 50.5105 25.4145 50.4742 25.4145ZM68.7468 25.6398C68.7115 25.6398 68.6768 25.6258 68.6517 25.598C68.605 25.5468 68.6099 25.4682 68.6623 25.4226C68.7879 25.3135 68.9103 25.202 69.0293 25.0877C69.0789 25.0396 69.1598 25.0403 69.209 25.0893C69.2582 25.1385 69.2576 25.2171 69.2072 25.2652C69.0853 25.3824 68.9599 25.4967 68.831 25.6087C68.8071 25.6297 68.7768 25.6398 68.7468 25.6398ZM51.2647 26.0406C51.2383 26.0406 51.2115 26.0325 51.1887 26.0158C51.0523 25.9158 50.917 25.8123 50.7838 25.7064C50.7291 25.6631 50.721 25.5847 50.7655 25.5317C50.81 25.4781 50.8899 25.4705 50.9441 25.5136C51.0753 25.6177 51.2074 25.7186 51.3413 25.8169C51.3973 25.8582 51.4088 25.9363 51.3668 25.991C51.3415 26.0235 51.3034 26.0406 51.2647 26.0406ZM67.9555 26.264C67.9165 26.264 67.8778 26.2464 67.853 26.2132C67.8117 26.1578 67.8236 26.0799 67.8801 26.0395C68.0156 25.9422 68.1486 25.8424 68.2787 25.7399C68.3331 25.6965 68.4137 25.7051 68.4575 25.7584C68.5013 25.8119 68.4927 25.8902 68.4381 25.9334C68.3051 26.0381 68.1694 26.1404 68.0307 26.2398C68.0079 26.2563 67.9817 26.264 67.9555 26.264ZM52.1009 26.6074C52.0775 26.6074 52.054 26.6013 52.0327 26.588C51.8884 26.4984 51.746 26.4055 51.6046 26.3098C51.5468 26.2707 51.5328 26.1933 51.5728 26.1368C51.6127 26.0804 51.6918 26.0666 51.7496 26.1057C51.888 26.1996 52.028 26.2904 52.1691 26.3785C52.2285 26.4153 52.2457 26.492 52.2082 26.5501C52.1838 26.5873 52.1429 26.6074 52.1009 26.6074ZM67.1098 26.8161C67.0669 26.8161 67.0252 26.7946 67.0015 26.7562C66.9649 26.6975 66.9838 26.621 67.0437 26.5855C67.1878 26.4999 67.3293 26.4121 67.4682 26.3213C67.5265 26.2832 67.6057 26.2985 67.6446 26.3556C67.6834 26.4128 67.6678 26.4898 67.6091 26.5282C67.4673 26.6208 67.323 26.7106 67.176 26.798C67.1555 26.8102 67.1327 26.8161 67.1098 26.8161ZM52.9791 27.1101C52.9586 27.1101 52.9383 27.1053 52.9191 27.0954C52.7687 27.0166 52.6189 26.9349 52.4708 26.8502C52.4103 26.8154 52.39 26.7393 52.4254 26.6799C52.4609 26.6205 52.5388 26.6009 52.5993 26.6354C52.7447 26.7188 52.8915 26.7989 53.0392 26.8761C53.1011 26.9087 53.1243 26.9839 53.0909 27.0444C53.0681 27.0864 53.0241 27.1101 52.9791 27.1101ZM66.2197 27.2962C66.173 27.2962 66.1282 27.2709 66.1059 27.2275C66.0743 27.1661 66.0998 27.0913 66.1628 27.0606C66.3134 26.987 66.4618 26.9107 66.6083 26.8317C66.6693 26.7991 66.747 26.8201 66.7808 26.8804C66.8149 26.9405 66.7926 27.0161 66.7312 27.0493C66.5817 27.13 66.4302 27.2079 66.2764 27.2831L66.2197 27.2962ZM53.893 27.5466L53.8417 27.536C53.6852 27.4682 53.5301 27.3975 53.3759 27.3242C53.3131 27.2939 53.2867 27.2196 53.3176 27.158C53.3483 27.0961 53.4242 27.0706 53.4877 27.1006C53.6389 27.1731 53.7911 27.2422 53.9447 27.3086C54.0088 27.3364 54.0377 27.4097 54.0095 27.4725C53.9883 27.519 53.942 27.5466 53.893 27.5466ZM65.2927 27.7058C65.2426 27.7058 65.195 27.6764 65.1751 27.6281C65.1487 27.5646 65.1798 27.4919 65.2451 27.4662C65.4011 27.4041 65.5554 27.3395 65.7078 27.272C65.7719 27.2435 65.8471 27.2713 65.876 27.3341C65.9051 27.3966 65.8765 27.4703 65.8126 27.4985C65.6574 27.5671 65.4998 27.6333 65.3406 27.6965L65.2927 27.7058ZM54.8382 27.9156L54.7953 27.9083C54.6343 27.8519 54.4745 27.7927 54.315 27.7306C54.25 27.7053 54.2182 27.6328 54.2441 27.5692C54.2701 27.5055 54.3442 27.4741 54.4092 27.4998C54.5657 27.5608 54.7229 27.6188 54.8807 27.6739C54.9469 27.6972 54.9814 27.7683 54.9579 27.8329C54.9394 27.8837 54.8904 27.9156 54.8382 27.9156ZM64.3373 28.0459C64.2838 28.0459 64.2337 28.0124 64.2163 27.9598C64.1948 27.8943 64.2314 27.8243 64.2982 27.8031C64.4586 27.7525 64.6173 27.6992 64.7749 27.6432C64.8411 27.6197 64.9138 27.6529 64.9375 27.7173C64.9617 27.7819 64.9276 27.8532 64.8614 27.8767C64.7013 27.9339 64.5396 27.988 64.3764 28.0398L64.3373 28.0459ZM55.8077 28.2161L55.7733 28.2114C55.6087 28.1667 55.4448 28.119 55.2815 28.0684C55.2147 28.0477 55.1776 27.9779 55.1986 27.9124C55.2201 27.8471 55.2912 27.8108 55.3581 27.8313C55.5188 27.8812 55.6799 27.928 55.8418 27.972C55.9093 27.9903 55.9488 28.059 55.9301 28.1251C55.9142 28.18 55.8634 28.2161 55.8077 28.2161ZM63.3591 28.3177C63.3017 28.3177 63.25 28.2796 63.2358 28.2229C63.2189 28.1563 63.2604 28.0888 63.3288 28.0725C63.4923 28.0332 63.6549 27.991 63.8157 27.9463C63.8839 27.928 63.9539 27.9659 63.9729 28.0319C63.9923 28.0978 63.953 28.1667 63.8855 28.1854C63.7215 28.231 63.5562 28.2739 63.3893 28.3139L63.3591 28.3177ZM56.7965 28.4487L56.771 28.4462C56.6037 28.413 56.4368 28.3767 56.2699 28.3376C56.2017 28.3216 56.1597 28.2543 56.176 28.1877C56.1929 28.1211 56.2609 28.0809 56.3295 28.0958C56.4932 28.1344 56.6574 28.1698 56.8218 28.2026C56.8907 28.2163 56.9351 28.2818 56.9211 28.3491C56.9087 28.4083 56.8557 28.4487 56.7965 28.4487ZM62.3637 28.5219C62.3032 28.5219 62.2494 28.4794 62.2388 28.4189C62.2264 28.3514 62.2727 28.287 62.3423 28.2753C62.508 28.2468 62.6733 28.2159 62.8372 28.1823C62.905 28.1685 62.9732 28.2107 62.9879 28.2782C63.0023 28.3455 62.9585 28.4112 62.8896 28.4255C62.7225 28.46 62.5545 28.4914 62.3854 28.5201L62.3637 28.5219ZM57.7998 28.6133L57.7829 28.6122C57.6135 28.5903 57.4444 28.5655 57.2757 28.5377C57.2064 28.5264 57.1594 28.4623 57.1711 28.3945C57.1829 28.3268 57.249 28.2807 57.3175 28.2927C57.4834 28.3198 57.6501 28.3442 57.8163 28.3658C57.8861 28.3749 57.935 28.4374 57.9256 28.5054C57.917 28.5679 57.8623 28.6133 57.7998 28.6133ZM61.355 28.6592C61.2909 28.6592 61.2358 28.612 61.2288 28.5481C61.2215 28.4799 61.2721 28.4187 61.3417 28.4115C61.5099 28.3943 61.6772 28.3742 61.8439 28.3514C61.9118 28.341 61.9778 28.3891 61.9873 28.4571C61.997 28.5253 61.9484 28.588 61.8789 28.5975C61.7093 28.6208 61.539 28.6411 61.3688 28.6587L61.355 28.6592ZM58.8123 28.7102L58.804 28.71C58.6335 28.6996 58.463 28.686 58.2925 28.6696C58.2227 28.663 58.1715 28.602 58.1785 28.5338C58.1855 28.4654 58.2487 28.4148 58.3174 28.4223C58.4849 28.4383 58.6525 28.4514 58.82 28.462C58.8902 28.4663 58.9433 28.5255 58.939 28.5939C58.9347 28.6598 58.8787 28.7102 58.8123 28.7102ZM60.3382 28.7298C60.2702 28.7298 60.2137 28.6772 60.2112 28.6104C60.2085 28.5417 60.2634 28.4839 60.3336 28.4815C60.5023 28.4751 60.6706 28.4663 60.8383 28.4546C60.9065 28.4487 60.9691 28.5013 60.974 28.5697C60.979 28.6384 60.9264 28.6978 60.8564 28.7027C60.6855 28.7145 60.5143 28.7235 60.3429 28.7298H60.3382ZM59.7736 28.7402C59.6214 28.7402 59.469 28.738 59.3161 28.7335C59.2461 28.7317 59.1908 28.6743 59.1931 28.6057C59.1949 28.537 59.2441 28.4871 59.324 28.4851C59.474 28.4894 59.6239 28.4918 59.7736 28.4918L59.8278 28.4916H59.8285C59.8985 28.4916 59.9552 28.5467 59.9559 28.6151C59.9563 28.6838 59.8996 28.7398 59.8294 28.7402H59.7736Z" fill="#0B0A0A" style="fill:#0B0A0A;fill:color(display-p3 0.0431 0.0392 0.0392);fill-opacity:1;"/>
<path d="M71.2266 19.6073L71.3117 18.2795L72.5015 18.3558L72.4164 19.6836L71.2266 19.6073Z" fill="#0B0A0A" style="fill:#0B0A0A;fill:color(display-p3 0.0431 0.0392 0.0392);fill-opacity:1;"/>
<path d="M72.0566 9.1851L72.7219 8.03278L73.7545 8.62915L73.0893 9.78125L72.0566 9.1851Z" fill="#0B0A0A" style="fill:#0B0A0A;fill:color(display-p3 0.0431 0.0392 0.0392);fill-opacity:1;"/>
<path d="M49.8477 28.5859C49.7797 28.5859 49.7244 28.5315 49.7232 28.4635C49.6221 21.4444 51.7066 16.0668 55.9187 12.4793C64.2616 5.37412 78.2841 7.74426 78.4248 7.76932C78.4926 7.78106 78.5375 7.84565 78.5255 7.91339C78.5138 7.98113 78.4483 8.02562 78.3817 8.0141C78.2417 7.98949 64.3318 5.6399 56.079 12.6695C51.9265 16.2064 49.8718 21.5189 49.9719 28.4599C49.973 28.5286 49.9181 28.585 49.8497 28.5859H49.8477Z" fill="#0B0A0A" style="fill:#0B0A0A;fill:color(display-p3 0.0431 0.0392 0.0392);fill-opacity:1;"/>
<path d="M60.1436 13.1924L60.235 11.7651L61.5142 11.8468L61.4228 13.2744L60.1436 13.1924Z" fill="#0B0A0A" style="fill:#0B0A0A;fill:color(display-p3 0.0431 0.0392 0.0392);fill-opacity:1;"/>
<path d="M57.8513 0.340996L57.8391 0.340544C57.6544 0.324511 57.469 0.314573 57.2882 0.310961C57.2105 0.309605 57.1491 0.245247 57.1506 0.168018C57.1522 0.0905647 57.2184 0.020792 57.2934 0.0305023C57.481 0.0341148 57.6725 0.0442734 57.8633 0.0609837C57.9408 0.0675316 57.9977 0.135727 57.9911 0.212955C57.9846 0.285892 57.9234 0.340996 57.8513 0.340996ZM56.1713 0.362673C56.1008 0.362673 56.0403 0.310059 56.032 0.238474C56.0234 0.161472 56.0787 0.0916939 56.1555 0.0828857C56.3443 0.0614338 56.5353 0.0460796 56.7236 0.0377235C56.7982 0.0368195 56.8668 0.0939541 56.8704 0.17141C56.8738 0.248863 56.8137 0.314575 56.7365 0.317961C56.5545 0.326317 56.3698 0.340994 56.1873 0.361994L56.1713 0.362673ZM58.9603 0.508999L58.9305 0.50606C58.7485 0.466768 58.5656 0.433125 58.3872 0.406252C58.3106 0.39451 58.2578 0.322926 58.2693 0.246149C58.2813 0.169598 58.3538 0.119244 58.4292 0.128502C58.6135 0.156502 58.8018 0.191278 58.9897 0.231699C59.0655 0.248184 59.1136 0.322926 59.0972 0.398348C59.0832 0.464285 59.0251 0.508999 58.9603 0.508999ZM55.0691 0.562288C55.0061 0.562288 54.949 0.519836 54.9329 0.456156C54.9144 0.380735 54.9598 0.304634 55.035 0.285892C55.2177 0.240278 55.4051 0.200087 55.5921 0.165989C55.6664 0.15357 55.7413 0.203024 55.7551 0.279121C55.7691 0.354996 55.7185 0.428385 55.6422 0.44216C55.4611 0.475128 55.28 0.514191 55.103 0.558224L55.0691 0.562288ZM60.0411 0.809557L59.9959 0.801878C59.8182 0.741812 59.6423 0.687616 59.4673 0.638615C59.3925 0.617615 59.3487 0.540382 59.3697 0.465639C59.3907 0.391346 59.4677 0.348446 59.5427 0.368317C59.7224 0.418447 59.9035 0.474222 60.0862 0.536322C60.1596 0.561161 60.1987 0.640871 60.1741 0.71426C60.1542 0.772745 60.0993 0.809557 60.0411 0.809557ZM53.9996 0.900782C53.9434 0.900782 53.8901 0.866684 53.8687 0.810909C53.8409 0.738647 53.877 0.657129 53.9493 0.62958C54.1261 0.561609 54.307 0.498159 54.4872 0.441029C54.5612 0.417093 54.6398 0.458643 54.6633 0.532259C54.6868 0.606325 54.6459 0.684904 54.5721 0.708614C54.3973 0.763939 54.2216 0.825361 54.0498 0.891525L53.9996 0.900782ZM61.0834 1.22483L61.0249 1.21241C60.8538 1.13405 60.6839 1.06134 60.5153 0.99382C60.4435 0.965141 60.4085 0.883396 60.4374 0.811586C60.466 0.739552 60.5485 0.703875 60.6194 0.733231C60.7923 0.802328 60.9664 0.876846 61.1419 0.957008C61.2121 0.9893 61.2431 1.0724 61.2108 1.14308C61.1873 1.19456 61.1365 1.22483 61.0834 1.22483ZM52.9763 1.36212C52.9257 1.36212 52.8767 1.33457 52.8516 1.28625C52.8162 1.21737 52.843 1.1327 52.9119 1.09702C53.0804 1.01031 53.2508 0.927206 53.4238 0.8493C53.4938 0.816784 53.5778 0.848621 53.6092 0.919527C53.6413 0.989981 53.6099 1.07308 53.5394 1.10492C53.3712 1.18102 53.2048 1.26163 53.0408 1.34654C53.0203 1.35715 52.9979 1.36212 52.9763 1.36212ZM62.0813 1.73697C62.0578 1.73697 62.0341 1.73133 62.012 1.71868C61.8482 1.62542 61.6854 1.53735 61.5238 1.45425C61.4549 1.41857 61.4275 1.33389 61.4632 1.26525C61.4989 1.19615 61.5836 1.1695 61.652 1.20473C61.8175 1.28964 61.9837 1.37974 62.1508 1.4748C62.2181 1.51319 62.2418 1.599 62.2034 1.66629C62.1777 1.71168 62.1303 1.73697 62.0813 1.73697ZM52.0071 1.92733C51.961 1.92733 51.9158 1.90498 51.889 1.86343C51.8472 1.79862 51.8655 1.71145 51.9305 1.66923C52.0893 1.56626 52.2505 1.4669 52.414 1.37138C52.4817 1.33231 52.5673 1.35512 52.6059 1.42151C52.6452 1.48857 52.6224 1.57461 52.5556 1.61368C52.3957 1.70694 52.2385 1.80427 52.0832 1.90498C52.0595 1.92011 52.033 1.92733 52.0071 1.92733ZM62.9841 2.39793C62.9498 2.39793 62.9157 2.38573 62.8888 2.36067C62.751 2.23331 62.6104 2.1125 62.471 2.0014C62.4105 1.9533 62.4004 1.86523 62.4489 1.80449C62.4972 1.74397 62.5853 1.73403 62.6458 1.78213C62.7906 1.89707 62.9362 2.0224 63.0791 2.15472C63.1363 2.20711 63.1397 2.29608 63.0871 2.35276C63.0595 2.38302 63.0218 2.39793 62.9841 2.39793ZM51.0925 2.57925C51.0505 2.57925 51.0092 2.56051 50.9816 2.52506C50.934 2.46364 50.9448 2.3758 51.0063 2.32815C51.1553 2.21209 51.3073 2.09895 51.4615 1.98898C51.5243 1.94382 51.6121 1.95917 51.6573 2.02195C51.7022 2.08495 51.6873 2.17279 51.6243 2.2175C51.4732 2.32521 51.3247 2.43631 51.1786 2.5499C51.1528 2.56977 51.1228 2.57925 51.0925 2.57925ZM63.7609 3.2077C63.7214 3.2077 63.6825 3.19121 63.6545 3.15869C63.5308 3.01417 63.4066 2.87733 63.2831 2.74816C63.2295 2.69216 63.2316 2.60342 63.2873 2.5499C63.3436 2.49615 63.4325 2.49864 63.4858 2.55419C63.6127 2.68697 63.7403 2.82765 63.8677 2.97601C63.9181 3.03495 63.911 3.12347 63.8526 3.17405C63.8259 3.19663 63.7936 3.2077 63.7609 3.2077ZM50.2304 3.30254C50.192 3.30254 50.1538 3.28695 50.126 3.25624C50.0741 3.19866 50.0788 3.10991 50.1364 3.0582C50.2767 2.93175 50.4191 2.8071 50.5643 2.68539C50.6237 2.63548 50.7123 2.64293 50.7622 2.70232C50.8121 2.76171 50.8042 2.85 50.7452 2.90014C50.6025 3.02004 50.4623 3.14243 50.3243 3.2664C50.2974 3.29057 50.2638 3.30254 50.2304 3.30254ZM49.4229 4.08295C49.3876 4.08295 49.3522 4.06985 49.3251 4.04343C49.2693 3.98923 49.2684 3.90049 49.3221 3.84494C49.4533 3.71013 49.587 3.5769 49.7232 3.44548C49.7787 3.39106 49.8679 3.39309 49.9215 3.44909C49.9754 3.50464 49.9738 3.59361 49.9181 3.64735C49.7839 3.77674 49.6523 3.90817 49.5233 4.04049C49.4958 4.06894 49.4592 4.08295 49.4229 4.08295ZM64.4462 4.09695C64.4017 4.09695 64.3582 4.07617 64.3306 4.03666C64.2236 3.88197 64.1143 3.73248 64.0036 3.58864C63.9564 3.52699 63.968 3.43893 64.0296 3.39173C64.0908 3.34454 64.1789 3.35583 64.2265 3.4177C64.3394 3.56516 64.4516 3.71826 64.5614 3.877C64.6057 3.94068 64.5896 4.02808 64.5259 4.07211C64.5018 4.08905 64.4738 4.09695 64.4462 4.09695ZM48.663 4.91055C48.6303 4.91055 48.5975 4.89949 48.5709 4.87623C48.5124 4.82542 48.5063 4.7369 48.5571 4.67842C48.6795 4.53683 48.8053 4.39615 48.9335 4.25637C48.9859 4.19969 49.0749 4.1954 49.1318 4.24801C49.1889 4.30018 49.1928 4.38892 49.1401 4.44628C49.0139 4.58402 48.8899 4.7229 48.7689 4.86246C48.7414 4.8943 48.7021 4.91055 48.663 4.91055ZM65.037 5.05146C64.9873 5.05146 64.9392 5.02527 64.9139 4.97897C64.8233 4.81481 64.7298 4.65539 64.6339 4.50002C64.5935 4.43431 64.6138 4.34783 64.6799 4.30695C64.7459 4.26631 64.8319 4.28708 64.873 4.35279C64.9712 4.51177 65.067 4.67571 65.1596 4.84349C65.1971 4.91146 65.172 4.99704 65.1045 5.03407C65.083 5.04627 65.0595 5.05146 65.037 5.05146ZM47.9483 5.77768C47.918 5.77768 47.8876 5.76842 47.8618 5.7481C47.8011 5.70045 47.79 5.61216 47.8381 5.55096C47.9528 5.40441 48.0709 5.25718 48.1919 5.11017C48.2409 5.05011 48.3295 5.04198 48.3893 5.09098C48.4494 5.1402 48.458 5.22872 48.4085 5.28856C48.289 5.43376 48.1723 5.57896 48.0587 5.72416C48.0312 5.75939 47.9898 5.77768 47.9483 5.77768ZM65.5247 6.0622C65.4698 6.0622 65.4174 6.02969 65.3951 5.97617C65.3233 5.80432 65.2474 5.63564 65.1679 5.47102C65.1341 5.40125 65.1634 5.31724 65.2332 5.2836C65.3032 5.24995 65.3865 5.27908 65.4206 5.34908C65.5021 5.51844 65.5805 5.69119 65.6541 5.86778C65.6839 5.93913 65.6503 6.02155 65.5787 6.05136L65.5247 6.0622ZM47.2751 6.67777C47.2467 6.67777 47.2185 6.66941 47.1936 6.6518C47.1309 6.60664 47.1159 6.51902 47.1611 6.45602C47.2691 6.30495 47.3799 6.15253 47.4944 5.99965C47.5407 5.9371 47.6292 5.92491 47.6906 5.9712C47.7532 6.01749 47.7656 6.10556 47.7191 6.16766C47.606 6.31895 47.4962 6.46957 47.3894 6.61906C47.3621 6.65745 47.319 6.67777 47.2751 6.67777ZM65.8971 7.12036C65.8361 7.12036 65.7801 7.08039 65.7625 7.01875C65.7124 6.84487 65.6555 6.66783 65.5936 6.49238C65.5678 6.41921 65.6065 6.33905 65.6794 6.3133C65.753 6.28711 65.8327 6.32595 65.8585 6.39889C65.9224 6.57977 65.9806 6.762 66.0319 6.94152C66.0533 7.01604 66.0104 7.09372 65.9357 7.11494L65.8971 7.12036ZM46.6411 7.60609C46.6149 7.60609 46.588 7.59863 46.5645 7.58305C46.4997 7.5406 46.4816 7.45389 46.5239 7.38908C46.6248 7.23508 46.7289 7.07814 46.8375 6.91939C46.8813 6.85548 46.9683 6.839 47.0326 6.88258C47.0965 6.92662 47.1132 7.01378 47.0694 7.07768C46.9619 7.23507 46.8585 7.39021 46.7585 7.54263C46.7316 7.58373 46.6869 7.60609 46.6411 7.60609ZM66.1396 8.21533C66.0719 8.21533 66.012 8.1661 66.0014 8.09678C65.973 7.91545 65.9384 7.73277 65.8989 7.55438C65.8819 7.47896 65.9296 7.40376 66.0052 7.38705C66.08 7.36966 66.1554 7.41753 66.1726 7.49341C66.2137 7.67767 66.2491 7.866 66.2787 8.05342C66.2904 8.12998 66.2383 8.20178 66.1617 8.21375L66.1396 8.21533ZM46.0436 8.55857C46.0192 8.55857 45.9943 8.55225 45.9715 8.53847C45.9051 8.49873 45.8835 8.41247 45.9237 8.34608C46.0171 8.19049 46.1158 8.02971 46.2192 7.86465C46.2599 7.79916 46.3459 7.77906 46.4125 7.82038C46.4783 7.86148 46.4979 7.94797 46.4566 8.01391C46.3541 8.17717 46.2567 8.33659 46.1641 8.49083C46.1377 8.53463 46.0912 8.55857 46.0436 8.55857ZM66.2392 9.33288C66.1631 9.33288 66.1008 9.27191 66.099 9.19559C66.0949 9.01313 66.0845 8.82796 66.0685 8.64483C66.0615 8.56805 66.1186 8.49963 66.1958 8.49286C66.2706 8.48495 66.3413 8.54276 66.3478 8.62022C66.365 8.80922 66.3754 9.00094 66.3794 9.18949C66.3812 9.26694 66.3196 9.33108 66.2423 9.33288H66.2392ZM45.4808 9.5334C45.4583 9.5334 45.4348 9.52799 45.4129 9.51579C45.3453 9.47831 45.321 9.39272 45.3587 9.32498C45.4438 9.17143 45.5364 9.00704 45.6369 8.83316C45.6753 8.76609 45.7604 8.74283 45.8284 8.78167C45.8954 8.82051 45.9187 8.90632 45.8801 8.97339C45.7803 9.14591 45.6884 9.30895 45.6037 9.46137C45.5784 9.50744 45.5303 9.5334 45.4808 9.5334ZM45.0276 10.3775C45.0059 10.3775 44.9834 10.3725 44.9626 10.3612C44.8942 10.3253 44.8678 10.2404 44.9039 10.1718L45.089 9.82154C45.1256 9.75357 45.2103 9.72738 45.279 9.76374C45.3474 9.80032 45.3733 9.88522 45.3365 9.95365L45.1521 10.3025C45.127 10.3504 45.0784 10.3775 45.0276 10.3775ZM66.1863 10.4529L66.1696 10.4518C66.0926 10.443 66.0375 10.3732 66.0466 10.2964C66.0678 10.114 66.0831 9.92903 66.092 9.74703C66.0956 9.6698 66.157 9.6095 66.2387 9.61357C66.3162 9.61741 66.3758 9.68312 66.3724 9.76035C66.3632 9.9489 66.3473 10.1402 66.3252 10.3287C66.3171 10.4003 66.2563 10.4529 66.1863 10.4529ZM65.9793 11.5544L65.9438 11.5499C65.8686 11.5307 65.8239 11.4539 65.8436 11.379C65.8899 11.2008 65.9303 11.0199 65.9639 10.8411C65.9786 10.765 66.0524 10.7151 66.1279 10.7293C66.204 10.7438 66.2539 10.8169 66.2396 10.8933C66.2049 11.078 66.1629 11.2652 66.115 11.4497C66.0987 11.5129 66.0416 11.5544 65.9793 11.5544ZM65.6261 12.6187L65.5735 12.6085C65.5017 12.5794 65.4671 12.4977 65.4963 12.4259C65.5645 12.2569 65.6288 12.0828 65.6871 11.9078C65.7117 11.8344 65.7914 11.7945 65.8646 11.8191C65.938 11.8433 65.9779 11.9232 65.9531 11.9966C65.8932 12.177 65.8268 12.357 65.7562 12.5313C65.7343 12.586 65.6814 12.6187 65.6261 12.6187ZM65.1424 13.6303C65.1196 13.6303 65.0963 13.6247 65.0749 13.6127C65.0071 13.5755 64.9823 13.4901 65.0198 13.4221C65.1103 13.2589 65.1955 13.0936 65.2732 12.931C65.3064 12.8608 65.391 12.8316 65.4601 12.8646C65.5301 12.898 65.5597 12.9818 65.5263 13.0518C65.4461 13.2196 65.3585 13.3898 65.2655 13.5581C65.24 13.6044 65.1921 13.6303 65.1424 13.6303ZM64.5478 14.581C64.5201 14.581 64.4918 14.5729 64.4675 14.5557C64.4038 14.5112 64.3886 14.4238 64.4329 14.3604C64.5406 14.2062 64.6429 14.0524 64.7391 13.8988C64.78 13.8333 64.8665 13.8135 64.9326 13.8548C64.9983 13.8957 65.018 13.9824 64.9767 14.0481C64.8782 14.2055 64.7737 14.3633 64.6628 14.5212C64.6355 14.5602 64.5921 14.581 64.5478 14.581ZM63.8609 15.4673C63.8286 15.4673 63.7966 15.4563 63.7699 15.4339C63.7108 15.3838 63.7035 15.295 63.7539 15.2361C63.8758 15.0929 63.9926 14.9493 64.1039 14.8057C64.1515 14.7443 64.2401 14.7339 64.3008 14.7809C64.3618 14.8285 64.3731 14.9166 64.3256 14.9778C64.2114 15.1248 64.0924 15.2713 63.9675 15.4179C63.94 15.4506 63.9002 15.4673 63.8609 15.4673ZM63.0995 16.2911C63.0633 16.2911 63.0277 16.2775 63.0001 16.25C62.9455 16.1951 62.9455 16.1064 63.0001 16.0517C63.1338 15.9183 63.2621 15.785 63.3856 15.6514C63.4384 15.5947 63.5267 15.5911 63.5841 15.6439C63.6408 15.6965 63.6444 15.7853 63.5917 15.8422C63.466 15.9781 63.3348 16.1143 63.1986 16.25C63.1713 16.2775 63.1352 16.2911 63.0995 16.2911ZM62.2782 17.0553C62.2391 17.0553 62.2001 17.039 62.1723 17.0072C62.1217 16.9487 62.1278 16.8599 62.1863 16.8091C62.3288 16.6854 62.4665 16.5616 62.5997 16.4372C62.6562 16.3848 62.7452 16.388 62.7982 16.4444C62.8509 16.5011 62.8477 16.5901 62.791 16.6429C62.6553 16.7689 62.5151 16.8954 62.3703 17.0209C62.3437 17.044 62.3109 17.0553 62.2782 17.0553ZM61.4088 17.7641C61.367 17.7641 61.325 17.7453 61.2975 17.7092C61.2503 17.6478 61.262 17.5597 61.3235 17.5125C61.4729 17.3978 61.6188 17.2829 61.7602 17.1673C61.82 17.1185 61.9088 17.1273 61.9578 17.1871C62.0065 17.2472 61.9977 17.3355 61.9377 17.3845C61.7938 17.5019 61.6461 17.6187 61.4942 17.7352C61.4687 17.7548 61.4386 17.7641 61.4088 17.7641ZM60.5013 18.4232C60.4563 18.4232 60.4123 18.402 60.3852 18.3625C60.3414 18.2988 60.3574 18.2114 60.4213 18.1674C60.5767 18.0606 60.7284 17.9535 60.8766 17.8458C60.9391 17.8007 61.027 17.8144 61.0726 17.877C61.1182 17.9398 61.1044 18.0274 61.0414 18.073C60.8915 18.1821 60.7381 18.2905 60.5803 18.3988C60.5559 18.4156 60.5284 18.4232 60.5013 18.4232ZM59.5621 19.037C59.5151 19.037 59.4693 19.0137 59.4426 18.9706C59.402 18.9049 59.4221 18.8184 59.4878 18.7775C59.6481 18.6782 59.8049 18.5781 59.9582 18.4779C60.023 18.435 60.1102 18.4533 60.1524 18.5185C60.1948 18.5833 60.1768 18.6705 60.1117 18.7127C59.9566 18.8143 59.7979 18.9151 59.6359 19.016C59.6129 19.0304 59.5874 19.037 59.5621 19.037ZM58.5968 19.6101C58.548 19.6101 58.5001 19.5844 58.4744 19.539C58.4362 19.4715 58.4599 19.3856 58.5277 19.3475C58.6916 19.2544 58.8526 19.1614 59.0102 19.0677C59.0773 19.0275 59.1629 19.0499 59.2024 19.1163C59.2424 19.1826 59.2205 19.2689 59.1538 19.3084C58.9942 19.4037 58.8318 19.4979 58.6659 19.5918C58.6437 19.6042 58.6202 19.6101 58.5968 19.6101ZM57.6106 20.1455C57.56 20.1455 57.5113 20.118 57.486 20.0701C57.4503 20.0012 57.4769 19.9165 57.5458 19.8806C57.7131 19.7935 57.8775 19.7063 58.0388 19.6182C58.107 19.5814 58.1923 19.6065 58.2294 19.6747C58.2662 19.7424 58.2413 19.8278 58.1729 19.8648C58.0101 19.9533 57.8443 20.0416 57.6754 20.1297C57.6547 20.1403 57.6325 20.1455 57.6106 20.1455Z" fill="#0B0A0A" style="fill:#0B0A0A;fill:color(display-p3 0.0431 0.0392 0.0392);fill-opacity:1;"/>
<path d="M44.3447 10.5501L44.8424 9.47434L45.8066 9.92032L45.3087 10.9961L44.3447 10.5501Z" fill="#0B0A0A" style="fill:#0B0A0A;fill:color(display-p3 0.0431 0.0392 0.0392);fill-opacity:1;"/>
<path d="M57.1798 4.36909C55.7502 6.30951 54.4746 10.03 56.5166 16.7362C56.5397 16.8112 56.6176 16.8534 56.6941 16.8308C56.7693 16.8078 56.8118 16.7285 56.7887 16.6533C54.7813 10.06 56.0178 6.4258 57.4088 4.538C57.879 3.90008 58.4114 3.40893 58.9437 3.04944C58.7818 3.04628 58.6199 3.04921 58.4577 3.05282C58.0104 3.39967 57.5732 3.83527 57.1798 4.36909Z" fill="#0B0A0A" style="fill:#0B0A0A;fill:color(display-p3 0.0431 0.0392 0.0392);fill-opacity:1;"/>
<path d="M65.1638 6.92737C64.3506 3.71021 62.9224 2.00938 61.0327 2.00825C60.5448 2.01073 59.9398 2.17106 59.3125 2.5003C59.5069 2.50955 59.7011 2.52333 59.8946 2.54185C60.3104 2.37678 60.7019 2.29458 61.0334 2.29277C63.2367 2.2939 64.3457 4.85147 64.8883 6.99714C66.4841 13.3104 65.1816 24.2906 62.6758 25.6457C62.6067 25.6832 62.5809 25.7695 62.6184 25.8386C62.6439 25.8862 62.6929 25.9131 62.7435 25.9131C62.7663 25.9131 62.7896 25.9077 62.811 25.8959C65.4558 24.4656 66.819 13.4744 65.1638 6.92737Z" fill="#0B0A0A" style="fill:#0B0A0A;fill:color(display-p3 0.0431 0.0392 0.0392);fill-opacity:1;"/>
<path d="M30.6346 48.959C31.1664 49.2109 31.679 49.3881 32.2293 49.3881C33.0774 49.3881 33.7023 48.9125 33.7023 48.2132C33.7023 46.5254 30.6721 47.0102 30.6721 44.9217C30.6721 43.7471 31.6417 43.225 32.5181 43.225C33.0402 43.225 33.5252 43.346 34.0286 43.5605L33.842 44.0641C33.3947 43.8776 32.9937 43.7656 32.5181 43.7656C31.707 43.7656 31.2501 44.2411 31.2501 44.9217C31.2501 46.5162 34.2803 46.1434 34.2803 48.2132C34.2803 49.2576 33.3947 49.9287 32.2293 49.9287C31.6324 49.9287 31.0636 49.7609 30.4668 49.4626L30.6346 48.959Z" fill="#0B0A0A" style="fill:#0B0A0A;fill:color(display-p3 0.0431 0.0392 0.0392);fill-opacity:1;"/>
<path d="M39.0827 47.5046C39.0827 46.4602 38.393 45.5933 37.3301 45.5933C36.2765 45.5933 35.5771 46.4602 35.5771 47.5046C35.5771 48.5488 36.2765 49.4066 37.3301 49.4066C38.393 49.4066 39.0827 48.5488 39.0827 47.5046ZM35.0176 47.5046C35.0176 46.1714 35.978 45.071 37.3301 45.071C38.6819 45.071 39.6422 46.1714 39.6422 47.5046C39.6422 48.8378 38.6819 49.9287 37.3301 49.9287C35.978 49.9287 35.0176 48.8378 35.0176 47.5046Z" fill="#0B0A0A" style="fill:#0B0A0A;fill:color(display-p3 0.0431 0.0392 0.0392);fill-opacity:1;"/>
<path d="M44.2857 49.6024C43.7729 49.8449 43.2693 49.9287 42.7472 49.9287C41.2553 49.9287 40.3789 48.8286 40.3789 47.4953C40.3789 46.1714 41.2553 45.071 42.7472 45.071C43.2693 45.071 43.7824 45.1735 44.295 45.388L44.1272 45.8729C43.6611 45.6863 43.2041 45.5933 42.7472 45.5933C41.5538 45.5933 40.9197 46.5069 40.9197 47.4953C40.9197 48.4929 41.5538 49.4066 42.738 49.4066C43.2041 49.4066 43.6518 49.2761 44.1084 49.0988L44.2857 49.6024Z" fill="#0B0A0A" style="fill:#0B0A0A;fill:color(display-p3 0.0431 0.0392 0.0392);fill-opacity:1;"/>
<path d="M45.4035 45.1922H45.9443V49.8076H45.4035V45.1922ZM45.674 43.2715C45.8885 43.2715 46.0656 43.43 46.0656 43.6445C46.0656 43.8588 45.8885 44.0268 45.674 44.0268C45.4407 44.0268 45.2822 43.8588 45.2822 43.6445C45.2822 43.43 45.4407 43.2715 45.674 43.2715Z" fill="#0B0A0A" style="fill:#0B0A0A;fill:color(display-p3 0.0431 0.0392 0.0392);fill-opacity:1;"/>
<path d="M50.7652 47.0102C50.6347 46.0314 50.0754 45.5933 49.292 45.5933C48.5647 45.5933 47.9121 46.0499 47.735 47.0102H50.7652ZM50.9237 49.6489C50.4294 49.8542 49.9541 49.9287 49.4505 49.9287C48.0241 49.9287 47.1475 48.8378 47.1475 47.5046C47.1475 46.162 48.0241 45.071 49.292 45.071C50.7372 45.071 51.334 46.1992 51.334 47.4766H47.6885C47.6885 48.5675 48.3316 49.4066 49.4505 49.4066C49.9168 49.4066 50.3642 49.3041 50.8212 49.1268L50.9237 49.6489Z" fill="#0B0A0A" style="fill:#0B0A0A;fill:color(display-p3 0.0431 0.0392 0.0392);fill-opacity:1;"/>
<path d="M52.6404 45.6585H51.9785V45.1923H52.6404V44.0173L53.1814 43.775V45.1923H54.3281V45.6585H53.1814V48.4555C53.1814 49.0711 53.4425 49.4066 54.0393 49.4066C54.2163 49.4066 54.4028 49.3786 54.5799 49.3228L54.6917 49.8262C54.4586 49.8914 54.2256 49.9287 53.9925 49.9287C53.2187 49.9287 52.6404 49.4534 52.6404 48.5115V45.6585Z" fill="#0B0A0A" style="fill:#0B0A0A;fill:color(display-p3 0.0431 0.0392 0.0392);fill-opacity:1;"/>
<path d="M55.8564 51.4486C56.2017 51.4486 56.4533 51.2433 56.6118 50.7585L56.9196 49.8077H56.733L55.1108 45.1922H55.6794L56.8543 48.5955C56.9196 48.7912 57.0126 49.0988 57.0876 49.3601C57.1528 49.0988 57.2459 48.8005 57.3111 48.5955L58.4115 45.1922H58.9801L57.0876 51.001C56.8728 51.6629 56.3975 51.9707 55.8564 51.9707C55.5676 51.9707 55.2786 51.9242 54.999 51.7937L55.1573 51.2993C55.3904 51.4018 55.6234 51.4486 55.8564 51.4486Z" fill="#0B0A0A" style="fill:#0B0A0A;fill:color(display-p3 0.0431 0.0392 0.0392);fill-opacity:1;"/>
<path d="M2.83825 15.7695H1.76634C1.51777 15.7695 0.511314 15.8086 0.511314 15.8086L0.445864 15.7302C0.485115 14.5145 0.511314 13.3118 0.511314 12.096V11.181C0.511314 9.66444 0.498084 8.135 0.393555 6.61844L0.459007 6.54008H1.36094C1.79228 6.54008 2.5507 6.51389 2.82502 6.50079L2.8775 6.57937C2.83825 8.3703 2.81205 10.1743 2.81205 11.9783C2.81205 13.2203 2.83825 14.4623 2.90353 15.6912L2.83825 15.7695Z" fill="#0B0A0A" style="fill:#0B0A0A;fill:color(display-p3 0.0431 0.0392 0.0392);fill-opacity:1;"/>
<path d="M10.8248 14.0952C10.7855 14.6313 10.7593 15.1934 10.7332 15.6904L10.6285 15.7687C8.71986 15.7687 6.79826 15.7818 4.87672 15.7949L4.81117 15.7032C4.86349 14.5006 4.87672 13.2979 4.87672 12.0821V9.37617C4.87672 8.44785 4.86349 7.53286 4.78516 6.61764L4.86349 6.53928C6.2884 6.53928 9.73955 6.51308 10.6025 6.51308L10.6678 6.59167C10.6285 7.12752 10.5894 7.59812 10.5762 8.10801L10.498 8.18659C9.37348 8.16039 8.26232 8.1473 7.15134 8.1473C7.15134 8.39569 7.13811 8.74864 7.13811 9.11468C7.13811 9.53312 7.13811 9.95132 7.15134 10.2259C8.21011 10.2259 9.25599 10.2128 10.3017 10.1735L10.3802 10.265C10.341 10.7618 10.3149 11.2455 10.2887 11.7422L10.2101 11.8206C8.28863 11.8077 7.15134 11.8077 7.15134 11.8077C7.15134 12.5789 7.1643 13.3372 7.17738 14.0952C8.38008 14.0952 9.56985 14.0693 10.7593 14.0038L10.8248 14.0952Z" fill="#0B0A0A" style="fill:#0B0A0A;fill:color(display-p3 0.0431 0.0392 0.0392);fill-opacity:1;"/>
<path d="M18.1715 14.0952C18.1322 14.6313 18.1059 15.1934 18.0799 15.6904L17.9751 15.7687C16.0665 15.7687 14.1449 15.7818 12.2233 15.7949L12.1578 15.7032C12.2101 14.5006 12.2233 13.2979 12.2233 12.0821V9.37617C12.2233 8.44785 12.2101 7.53286 12.1318 6.61764L12.2101 6.53928C13.6351 6.53928 17.0862 6.51308 17.9491 6.51308L18.0145 6.59167C17.9751 7.12752 17.9361 7.59812 17.9229 8.10801L17.8446 8.18659C16.7202 8.16039 15.6089 8.1473 14.498 8.1473C14.498 8.39569 14.4847 8.74864 14.4847 9.11468C14.4847 9.53312 14.4847 9.95132 14.498 10.2259C15.5567 10.2259 16.6026 10.2128 17.6484 10.1735L17.7268 10.265C17.6876 10.7618 17.6616 11.2455 17.6353 11.7422L17.5568 11.8206C15.6352 11.8077 14.498 11.8077 14.498 11.8077C14.498 12.5789 14.511 13.3372 14.5239 14.0952C15.7267 14.0952 16.9164 14.0693 18.1059 14.0038L18.1715 14.0952Z" fill="#0B0A0A" style="fill:#0B0A0A;fill:color(display-p3 0.0431 0.0392 0.0392);fill-opacity:1;"/>
<path d="M25.5182 14.0952C25.4789 14.6313 25.4529 15.1934 25.4267 15.6904L25.3222 15.7687C23.4136 15.7687 21.4916 15.7818 19.57 15.7949L19.5048 15.7032C19.557 14.5006 19.57 13.2979 19.57 12.0821V9.37617C19.57 8.44785 19.557 7.53286 19.4785 6.61764L19.557 6.53928C20.982 6.53928 24.4331 6.51308 25.2957 6.51308L25.3615 6.59167C25.3222 7.12752 25.2829 7.59812 25.2698 8.10801L25.1914 8.18659C24.0671 8.16039 22.9559 8.1473 21.8447 8.1473C21.8447 8.39569 21.8317 8.74864 21.8317 9.11468C21.8317 9.53312 21.8317 9.95132 21.8447 10.2259C22.9037 10.2259 23.9494 10.2128 24.9952 10.1735L25.0738 10.265C25.0345 10.7618 25.0083 11.2455 24.9823 11.7422L24.9037 11.8206C22.9821 11.8077 21.8447 11.8077 21.8447 11.8077C21.8447 12.5789 21.8578 13.3372 21.871 14.0952C23.0737 14.0952 24.2631 14.0693 25.4529 14.0038L25.5182 14.0952Z" fill="#0B0A0A" style="fill:#0B0A0A;fill:color(display-p3 0.0431 0.0392 0.0392);fill-opacity:1;"/>
<path d="M0.496173 26.4146C1.3802 26.8488 2.2487 27.1126 3.1792 27.1126C4.24945 27.1126 4.9163 26.5388 4.9163 25.6856C4.9163 23.561 0.310053 24.0573 0.310053 20.5522C0.310053 18.6601 1.89207 17.5591 3.69108 17.5591C4.65255 17.5591 5.49009 17.7917 6.42069 18.195L5.89321 19.6528C5.13328 19.3425 4.45099 19.1565 3.69108 19.1565C2.69856 19.1565 2.20212 19.7303 2.20212 20.5522C2.20212 22.5839 6.80836 22.2736 6.80836 25.6856C6.80836 27.5156 5.21092 28.71 3.1792 28.71C2.09362 28.71 1.06997 28.4462 0 27.9034L0.496173 26.4146Z" fill="#0B0A0A" style="fill:#0B0A0A;fill:color(display-p3 0.0431 0.0392 0.0392);fill-opacity:1;"/>
<path d="M8.03288 20.6769H9.76998V28.5088H8.03288V20.6769ZM8.90132 17.2649C9.44422 17.2649 9.97154 17.6835 9.97154 18.2729C9.97154 18.8623 9.47536 19.3121 8.90132 19.3121C8.29663 19.3121 7.8623 18.8623 7.8623 18.2729C7.8623 17.6835 8.34322 17.2649 8.90132 17.2649Z" fill="#0B0A0A" style="fill:#0B0A0A;fill:color(display-p3 0.0431 0.0392 0.0392);fill-opacity:1;"/>
<path d="M16.9966 24.4918C16.9966 22.9875 16.0194 22.0104 14.7788 22.0104C13.4916 22.0104 12.716 23.0805 12.716 24.4918C12.716 25.8876 13.4605 26.9731 14.7788 26.9731C15.942 26.9731 16.9966 26.0892 16.9966 24.4918ZM12.3595 30.0439C13.1348 30.4007 13.8946 30.5712 14.7011 30.5712C16.159 30.5712 16.8881 29.5941 16.8881 28.2293V27.5003C16.3296 28.1362 15.5541 28.5086 14.5772 28.5086C12.3129 28.5086 10.917 26.6165 10.917 24.4918C10.917 22.3669 12.3283 20.4748 14.5772 20.4748C15.5853 20.4748 16.3916 20.8781 16.95 21.545L17.0431 20.6767L18.6249 20.8316V28.4156C18.6249 30.5868 17.0119 32.1064 14.7011 32.1064C13.7242 32.1064 12.8091 31.9204 11.8321 31.4241L12.3595 30.0439Z" fill="#0B0A0A" style="fill:#0B0A0A;fill:color(display-p3 0.0431 0.0392 0.0392);fill-opacity:1;"/>
<path d="M20.1279 20.8318L21.6166 20.6769L21.7717 21.6847C22.33 20.8783 23.183 20.475 24.2532 20.475C25.8196 20.475 26.8432 21.6228 26.8432 23.4684V28.5088H25.1063V23.701C25.1063 22.7239 24.7493 22.0106 23.8964 22.0106C22.6404 22.0106 21.8648 23.0807 21.8648 24.8951V28.5088H20.1279V20.8318Z" fill="#0B0A0A" style="fill:#0B0A0A;fill:color(display-p3 0.0431 0.0392 0.0392);fill-opacity:1;"/>
<path d="M33.9927 24.569C33.9927 23.0337 33.0156 22.0101 31.7749 22.0101C30.5185 22.0101 29.7121 23.1423 29.7121 24.5846C29.7121 25.9647 30.4566 27.1747 31.7749 27.1747C32.9381 27.1747 33.9927 26.2129 33.9927 24.569ZM33.9615 27.5777C33.4035 28.2757 32.5969 28.71 31.5733 28.71C29.3091 28.71 27.9131 26.7248 27.9131 24.5846C27.9131 22.4134 29.3709 20.4745 31.5733 20.4745C32.5348 20.4745 33.3105 20.8623 33.8843 21.4982V20.6764L35.621 20.8313V28.5083H34.1169L33.9615 27.5777Z" fill="#0B0A0A" style="fill:#0B0A0A;fill:color(display-p3 0.0431 0.0392 0.0392);fill-opacity:1;"/>
<path d="M37.1094 17.3883L38.8463 17.0162V26.5076C38.8463 26.9883 39.0168 27.19 39.4666 27.19L39.2962 28.6943C37.9779 28.6943 37.1094 28.2136 37.1094 26.7248V17.3883Z" fill="#0B0A0A" style="fill:#0B0A0A;fill:color(display-p3 0.0431 0.0392 0.0392);fill-opacity:1;"/>
<path d="M3.50441 35.6242C5.03967 35.6242 5.52067 34.9108 5.52067 33.8407C5.52067 32.7396 4.94661 32.1037 3.55088 32.1037H2.37225V35.6242H3.50441ZM0.573242 30.5217H3.69052C5.79958 30.5217 7.33511 31.716 7.33511 33.8407C7.33511 35.9654 5.76871 37.1751 3.67492 37.1751H2.37225V41.2695H0.573242V30.5217Z" fill="#0B0A0A" style="fill:#0B0A0A;fill:color(display-p3 0.0431 0.0392 0.0392);fill-opacity:1;"/>
<path d="M8.38965 33.5925L9.87862 33.4374L10.0647 34.554C10.5763 33.763 11.3674 33.2358 12.5772 33.2358V34.7713C10.9951 34.7713 10.1267 36.0119 10.1267 37.7954V41.2695H8.38965V33.5925Z" fill="#0B0A0A" style="fill:#0B0A0A;fill:color(display-p3 0.0431 0.0392 0.0392);fill-opacity:1;"/>
<path d="M19.1678 37.3616C19.1678 35.8263 18.1598 34.7718 16.9346 34.7718C15.7094 34.7718 14.7014 35.8263 14.7014 37.3616C14.7014 38.8816 15.694 39.9361 16.9346 39.9361C18.191 39.9361 19.1678 38.8816 19.1678 37.3616ZM12.9023 37.3616C12.9023 35.1439 14.5464 33.2363 16.9346 33.2363C19.323 33.2363 20.9668 35.1439 20.9668 37.3616C20.9668 39.5793 19.354 41.4717 16.9346 41.4717C14.5152 41.4717 12.9023 39.5793 12.9023 37.3616Z" fill="#0B0A0A" style="fill:#0B0A0A;fill:color(display-p3 0.0431 0.0392 0.0392);fill-opacity:1;"/>
<path d="M28.5807 40.9132C27.6813 41.3475 26.8128 41.4717 25.9287 41.4717C23.3389 41.4717 21.7725 39.5793 21.7725 37.3462C21.7725 35.1127 23.3233 33.2363 25.9287 33.2363C26.8437 33.2363 27.7124 33.4379 28.6119 33.8256L28.1155 35.2213C27.4022 34.9422 26.6886 34.7718 25.9597 34.7718C24.4397 34.7718 23.5715 35.9659 23.5715 37.3462C23.5715 38.742 24.4397 39.9361 25.9597 39.9361C26.6886 39.9361 27.3866 39.75 28.1155 39.4553L28.5807 40.9132Z" fill="#0B0A0A" style="fill:#0B0A0A;fill:color(display-p3 0.0431 0.0392 0.0392);fill-opacity:1;"/>
<path d="M34.7992 36.4466C34.5512 35.0974 33.7914 34.7718 32.9538 34.7718C32.1319 34.7718 31.3255 35.206 31.0618 36.4466H34.7992ZM36.04 40.9132C35.1562 41.3009 34.334 41.4717 33.3569 41.4717C30.7359 41.4717 29.2627 39.6105 29.2627 37.3616C29.2627 35.1284 30.6584 33.2363 32.9538 33.2363C35.3576 33.2363 36.5517 35.0974 36.5517 37.6407H30.9997C31.1083 38.8971 31.8063 39.9361 33.4034 39.9361C34.241 39.9361 34.939 39.75 35.6988 39.44L36.04 40.9132Z" fill="#0B0A0A" style="fill:#0B0A0A;fill:color(display-p3 0.0431 0.0392 0.0392);fill-opacity:1;"/>
<path d="M37.4968 39.4088C38.1792 39.7189 38.7995 39.9517 39.4663 39.9517C40.1178 39.9517 40.5367 39.5949 40.5367 39.0986C40.5367 37.8115 37.3109 38.1062 37.3109 35.5316C37.3109 34.1049 38.5204 33.2363 39.9164 33.2363C40.6762 33.2363 41.3584 33.4226 42.0876 33.7482L41.5912 35.1284C41.064 34.8957 40.5832 34.7562 40.0401 34.7562C39.3889 34.7562 39.1098 35.0664 39.1098 35.5316C39.1098 36.7569 42.3355 36.6483 42.3355 39.1295C42.3355 40.5255 41.0793 41.4717 39.5284 41.4717C38.7065 41.4717 37.9154 41.2854 37.0781 40.8511L37.4968 39.4088Z" fill="#0B0A0A" style="fill:#0B0A0A;fill:color(display-p3 0.0431 0.0392 0.0392);fill-opacity:1;"/>
<path d="M43.2185 39.4088C43.9009 39.7189 44.5212 39.9517 45.188 39.9517C45.8395 39.9517 46.2584 39.5949 46.2584 39.0986C46.2584 37.8115 43.0324 38.1062 43.0324 35.5316C43.0324 34.1049 44.2421 33.2363 45.6378 33.2363C46.3979 33.2363 47.0801 33.4226 47.8092 33.7482L47.3127 35.1284C46.7854 34.8957 46.3049 34.7562 45.7618 34.7562C45.1106 34.7562 44.8314 35.0664 44.8314 35.5316C44.8314 36.7569 48.0572 36.6483 48.0572 39.1295C48.0572 40.5255 46.801 41.4717 45.2501 41.4717C44.4281 41.4717 43.6371 41.2854 42.7998 40.8511L43.2185 39.4088Z" fill="#0B0A0A" style="fill:#0B0A0A;fill:color(display-p3 0.0431 0.0392 0.0392);fill-opacity:1;"/>
<path d="M49.0652 33.4374H50.8022V41.2695H49.0652V33.4374ZM49.9337 30.0256C50.4764 30.0256 51.0039 30.4442 51.0039 31.0336C51.0039 31.623 50.5075 32.0726 49.9337 32.0726C49.3288 32.0726 48.8945 31.623 48.8945 31.0336C48.8945 30.4442 49.3753 30.0256 49.9337 30.0256Z" fill="#0B0A0A" style="fill:#0B0A0A;fill:color(display-p3 0.0431 0.0392 0.0392);fill-opacity:1;"/>
<path d="M52.29 33.5925L53.7791 33.4374L53.9342 34.4454C54.4924 33.6391 55.3455 33.2358 56.4154 33.2358C57.9819 33.2358 59.0055 34.3836 59.0055 36.2291V41.2695H57.2683V36.4617C57.2683 35.4846 56.9118 34.7713 56.0589 34.7713C54.8024 34.7713 54.0272 35.8412 54.0272 37.6558V41.2695H52.29V33.5925Z" fill="#0B0A0A" style="fill:#0B0A0A;fill:color(display-p3 0.0431 0.0392 0.0392);fill-opacity:1;"/>
<path d="M66.1545 37.2533C66.1545 35.7489 65.1777 34.7721 63.9371 34.7721C62.6495 34.7721 61.8743 35.842 61.8743 37.2533C61.8743 38.6493 62.6188 39.7348 63.9371 39.7348C65.1 39.7348 66.1545 38.8509 66.1545 37.2533ZM61.5175 42.8056C62.2929 43.1621 63.053 43.3329 63.8594 43.3329C65.3172 43.3329 66.0459 42.3558 66.0459 40.991V40.262C65.4877 40.8979 64.7123 41.2703 63.7352 41.2703C61.471 41.2703 60.0752 39.3782 60.0752 37.2533C60.0752 35.1286 61.4865 33.2366 63.7352 33.2366C64.7434 33.2366 65.5498 33.6399 66.1083 34.3066L66.2011 33.4382L67.7831 33.5933V41.177C67.7831 43.3484 66.1701 44.8682 63.8594 44.8682C62.8823 44.8682 61.9673 44.6821 60.9902 44.1858L61.5175 42.8056Z" fill="#0B0A0A" style="fill:#0B0A0A;fill:color(display-p3 0.0431 0.0392 0.0392);fill-opacity:1;"/>
<path d="M70.5647 17.4954C70.5412 17.5932 70.5179 17.6912 70.4922 17.7881C70.5258 17.6914 70.5502 17.5937 70.5647 17.4954Z" fill="#0B0A0A" style="fill:#0B0A0A;fill:color(display-p3 0.0431 0.0392 0.0392);fill-opacity:1;"/>
<path d="M71.1448 17.3854C71.1673 16.9462 71.0495 16.5165 70.8133 16.1037C70.757 16.5761 70.6737 17.0402 70.5649 17.4945C70.5504 17.5927 70.526 17.6905 70.4924 17.7872C70.3469 18.3325 70.1665 18.8634 69.9502 19.376C70.694 18.7895 71.107 18.1132 71.1448 17.3854Z" fill="#0B0A0A" style="fill:#0B0A0A;fill:color(display-p3 0.0431 0.0392 0.0392);fill-opacity:1;"/>
<path d="M44.8137 14.4904C44.7188 14.3671 44.5416 14.3434 44.4181 14.4385C44.2943 14.5333 44.271 14.7106 44.3661 14.8343C45.0508 15.7263 45.8838 16.5133 46.8196 17.2061C46.7613 16.9346 46.7128 16.6598 46.6732 16.3818C45.9746 15.8132 45.3466 15.1848 44.8137 14.4904Z" fill="#0B0A0A" style="fill:#0B0A0A;fill:color(display-p3 0.0431 0.0392 0.0392);fill-opacity:1;"/>
<path d="M60.2261 20.8555C56.0495 20.6389 50.9224 19.4636 47.3311 16.8834C47.3846 17.1585 47.4482 17.4294 47.5207 17.697C51.1785 20.101 56.1317 21.2084 60.197 21.4193C60.6466 21.4426 61.0921 21.4541 61.5327 21.4541C63.8561 21.4541 66.025 21.1325 67.7448 20.5244C68.231 20.3524 68.6666 20.1606 69.0543 19.9531C69.211 19.6483 69.3553 19.3364 69.4852 19.0167C68.9913 19.3823 68.3428 19.714 67.5565 19.9922C65.5786 20.6918 62.9756 20.9986 60.2261 20.8555Z" fill="#0B0A0A" style="fill:#0B0A0A;fill:color(display-p3 0.0431 0.0392 0.0392);fill-opacity:1;"/>
<path d="M47.3307 16.8837C47.1056 16.722 46.8863 16.5546 46.6738 16.3817C46.7133 16.6597 46.7619 16.9345 46.8202 17.2059C47.0482 17.3748 47.2808 17.5396 47.5204 17.6973C47.4479 17.4297 47.3842 17.1587 47.3307 16.8837Z" fill="#0B0A0A" style="fill:#0B0A0A;fill:color(display-p3 0.0431 0.0392 0.0392);fill-opacity:1;"/>
<path d="M69.4855 19.0177C69.3557 19.3374 69.2114 19.6493 69.0547 19.9541C69.3921 19.7735 69.6919 19.5808 69.9507 19.3767C70.167 18.8641 70.3475 18.3332 70.4929 17.7879C70.3411 18.2217 69.9981 18.6381 69.4855 19.0177Z" fill="#0B0A0A" style="fill:#0B0A0A;fill:color(display-p3 0.0431 0.0392 0.0392);fill-opacity:1;"/>
<path d="M58.6222 2.68349C58.5967 2.68146 55.9824 2.50216 53.0954 3.84846C48.2698 6.09914 46.389 10.7994 45.6607 14.3463C44.7008 19.0233 42.5319 22.222 39.3885 23.5963C39.2074 23.6756 39.0288 23.7442 38.8516 23.8079V24.0488C41.4638 23.1295 44.613 20.6871 45.9044 14.3964C47.2015 8.07772 50.5821 5.29796 53.19 4.07879C56.019 2.75597 58.5773 2.92963 58.6035 2.93144C58.6723 2.93776 58.7315 2.88537 58.7367 2.81672C58.7419 2.7483 58.6904 2.68869 58.6222 2.68349Z" fill="#0B0A0A" style="fill:#0B0A0A;fill:color(display-p3 0.0431 0.0392 0.0392);fill-opacity:1;"/>
</svg>
