<svg width="69" height="54" viewBox="0 0 69 54" fill="none" xmlns="http://www.w3.org/2000/svg">
<path d="M52.5616 38.79V48.6317C52.5616 51.1315 52.5616 51.2907 54.3702 51.5043V52.2744H48.4121V51.4772C50.2213 51.2648 50.2213 51.0783 50.2213 48.6047V42.912C50.1412 41.5028 50.4782 41.6361 48.7311 42.1921" fill="#0B0A0A" style="fill:#0B0A0A;fill:color(display-p3 0.0431 0.0392 0.0392);fill-opacity:1;"/>
<path d="M64.6904 43.9497C64.8499 42.1153 64.0523 39.8537 61.7379 39.8537C59.4774 39.8537 58.5455 42.1419 58.4927 43.9497H64.6904ZM58.3604 44.961C58.3604 47.5681 59.1314 51.4238 62.4564 51.4238C64.2377 51.4238 65.7804 50.4402 66.8176 49.0038L67.2699 49.4289C66.1536 51.2651 64.2912 52.5674 62.1105 52.5674C58.3867 52.5674 55.6738 49.5355 55.6738 45.8915C55.6738 42.487 58.0414 38.9767 61.7645 38.9767C65.0895 38.9767 67.3766 41.8228 67.3766 44.961H58.3604Z" fill="#0B0A0A" style="fill:#0B0A0A;fill:color(display-p3 0.0431 0.0392 0.0392);fill-opacity:1;"/>
<path d="M52.4048 26.9023C52.9179 25.5084 52.4048 24.628 51.4514 24.628C50.35 24.628 49.2503 26.2418 48.8096 27.2689C48.0031 28.9565 47.2693 31.3781 46.8296 32.9921C48.2227 31.6712 51.4514 29.3232 52.4048 26.9023ZM19.6088 26.2418C16.4542 28.7361 14.1065 32.5523 13.7397 35.5604C13.4461 38.0543 14.2527 40.1087 16.8943 40.2553C19.6818 40.4023 22.617 37.9808 24.6708 35.7801C26.2848 34.0194 27.7517 31.3781 27.8987 29.8367C27.9724 29.1032 27.8987 28.5162 27.532 27.9292C27.3854 27.636 27.2383 27.5624 27.311 27.4157C27.3854 27.2689 27.679 27.4157 27.8987 27.636C28.1195 27.8558 28.8522 28.7361 28.7055 30.4236C28.6325 32.4052 27.311 34.7529 25.698 36.587C23.7902 38.6415 20.0492 41.1356 16.7479 40.9157C13.4461 40.6956 11.8321 38.5681 12.1986 35.4135C12.5652 32.4787 15.06 28.6631 18.949 25.7282C22.47 23.0875 26.8725 21.2531 30.6872 21.2531C34.8703 21.2531 39.5665 22.8671 38.832 28.9565C38.392 33.4326 30.5402 43.2636 25.698 48.1054V48.1789C28.0462 46.5643 30.4666 44.7305 34.0614 42.0891C37.1448 39.8887 40.8137 37.1742 43.1603 35.3402C44.0413 32.8456 45.0686 30.2037 46.3893 28.0761C48.1496 25.288 50.0569 23.8943 51.5979 23.8943C52.9179 23.8943 53.8721 25.0681 53.2852 26.8289C52.3317 29.8367 48.5903 32.4052 46.6089 34.3129C45.5082 38.8612 44.1138 45.0243 41.7675 48.1789V48.2526C44.261 45.8312 50.57 40.5491 54.9724 36.587C62.0159 30.2037 64.5835 25.4351 65.0238 22.8671C65.171 21.84 65.0969 20.886 64.5835 20.3726C64.0704 19.9325 63.5556 20.0792 63.6297 19.859C63.7028 19.7125 64.1435 19.639 64.3628 19.639C66.4911 19.639 67.5177 21.3266 67.3708 23.2337C67.0045 26.2418 63.849 30.8642 55.7062 37.5408C49.91 42.3094 44.1879 47.0784 39.4196 51.6271C38.9786 52.0671 38.2451 52.7274 37.3654 52.7274C36.6313 52.7274 36.6313 52.0671 37.0716 51.4802C39.5665 48.1054 41.1065 40.8422 42.7937 36.6604V36.587C41.3996 37.7608 36.9251 41.1356 33.3277 43.777C30.2469 45.9778 23.7175 50.747 21.0028 52.5074C20.5626 52.8013 19.9751 53.2412 19.4619 53.2412C18.5813 53.2412 18.3614 52.6543 19.0215 51.8474C21.8101 48.9126 25.1115 45.2443 28.3396 40.6956C31.5671 36.1467 34.4303 31.231 35.0168 27.4892C35.6047 23.6742 33.5483 21.9134 30.5402 21.9134C26.8725 21.9134 22.6896 23.8943 19.6088 26.2418Z" fill="#0B0A0A" style="fill:#0B0A0A;fill:color(display-p3 0.0431 0.0392 0.0392);fill-opacity:1;"/>
<path d="M52.4279 37.0052C52.4279 37.7336 51.8363 38.3252 51.1075 38.3252C50.3777 38.3252 49.7861 37.7336 49.7861 37.0052C49.7861 36.2741 50.3777 35.6835 51.1075 35.6835C51.8363 35.6835 52.4279 36.2741 52.4279 37.0052Z" fill="#0B0A0A" style="fill:#0B0A0A;fill:color(display-p3 0.0431 0.0392 0.0392);fill-opacity:1;"/>
<path d="M0.707381 45.5677C0.831096 46.2786 0.897692 46.3455 1.06633 46.357C1.22665 46.3766 1.56223 46.376 2.58974 46.2995L4.3459 46.1686C4.87271 46.1294 5.31072 46.0812 5.60746 46.0351C5.82584 46.0027 5.85608 45.9363 5.8736 45.815C5.88543 45.7345 5.89231 45.4697 5.90464 45.3972C5.91786 45.3402 5.92424 45.3078 5.95046 45.3055C6.01198 45.3008 6.17349 45.3372 6.20101 45.3507C6.23152 45.9965 6.24684 46.3231 6.27758 46.6166C6.30357 46.9665 6.3603 47.3704 6.3708 47.3932C6.37432 47.4411 6.34238 47.4837 6.30746 47.4939C6.22165 47.5248 6.14402 47.5461 6.09064 47.5421C6.03082 46.9788 5.97383 46.8069 5.73458 46.7927C5.59334 46.7957 5.28317 46.7788 4.2997 46.8519L2.20067 47.0078C1.05049 47.0938 0.963381 47.1084 0.921969 47.3832C0.919633 47.471 0.910936 47.592 0.918722 47.8152C0.921192 47.8469 0.896007 47.8648 0.869653 47.8668C0.843299 47.8689 0.807471 47.8635 0.735032 47.8369C0.671292 47.8093 0.653117 47.803 0.642602 47.7798C0.628971 47.7166 0.625336 47.6695 0.618066 47.5737C0.611316 47.4786 0.599892 47.2072 0.569255 46.7937C0.529531 46.3809 0.48046 45.8412 0.474488 45.7615C0.466699 45.6578 0.475007 45.6495 0.500711 45.6395L0.707381 45.5677Z" fill="#0B0A0A" style="fill:#0B0A0A;fill:color(display-p3 0.0431 0.0392 0.0392);fill-opacity:1;"/>
<path d="M3.09102 42.73C3.09647 42.3711 3.0918 42.0999 3.077 41.9005C3.04922 41.4216 3.01456 41.3811 2.49684 41.2694C2.47088 41.2371 2.45621 41.0534 2.46543 41.0134C2.72065 41.0334 3.1249 41.0873 3.39765 41.0922C3.69727 41.0882 3.94406 41.068 4.19966 41.0484C4.21654 41.1122 4.22445 41.176 4.22355 41.2318C4.23159 41.272 4.20511 41.2876 4.16942 41.3027C4.07244 41.3332 3.93053 41.3707 3.82475 41.3934C3.58627 41.4376 3.50553 41.5323 3.47424 41.8504C3.45412 42.0262 3.44996 42.289 3.44373 42.6957C3.43776 43.0939 3.44516 43.174 3.45347 43.2219C3.46165 43.2537 3.47009 43.278 3.50488 43.3026C3.55732 43.3269 3.865 43.3794 4.58679 43.3906C5.22949 43.4003 5.46747 43.4047 5.60921 43.3265C5.7785 43.2175 5.82653 42.9394 5.83666 42.285C5.85095 41.3521 5.76086 40.9052 4.83136 40.6433C4.82305 40.6114 4.83292 40.5316 4.84302 40.4519C4.86107 40.4282 4.86991 40.4282 4.91377 40.4289C5.31869 40.4512 5.88026 40.5871 6.13393 40.6955C6.18614 40.7354 6.20352 40.7596 6.20286 40.7995C6.2021 40.8553 6.20107 40.9111 6.18807 41.174C6.17561 41.4133 6.15836 41.9716 6.14849 42.6329C6.13875 43.2711 6.16404 43.9011 6.18079 44.5396C6.17172 44.5551 5.98698 44.5608 5.91649 44.5512C5.89898 44.5512 5.88156 44.527 5.88156 44.5193C5.81679 44.1514 5.75577 44.1182 5.62377 44.1086C5.49213 44.0906 4.92923 44.0417 4.03117 44.0281L2.50788 44.0048C1.33693 43.9869 0.948771 44.0291 0.895545 44.0361C0.84284 44.0434 0.798703 44.0587 0.779617 44.1378C0.743399 44.2175 0.714709 44.3684 0.658888 44.5589C0.65006 44.5664 0.65006 44.5664 0.623578 44.5664L0.421322 44.5476C0.386012 44.5468 0.377314 44.5472 0.377963 44.5067L0.382377 44.2279C0.385882 43.9805 0.40808 43.6778 0.424308 43.1916L0.436381 42.4183C0.44365 41.9318 0.40847 41.3489 0.405744 40.9504C0.407302 40.8466 0.425476 40.7991 0.452738 40.7599C0.506612 40.6888 0.506612 40.6888 0.66447 40.7234C1.05094 40.7929 1.56151 40.8085 1.79064 40.8121C1.78726 41.0195 1.76065 41.0507 1.70755 41.0581C1.07171 41.16 0.753914 41.2106 0.744569 41.833L0.736261 42.383C0.728989 42.8536 0.742359 43.1165 0.767547 43.2046C0.801428 43.3093 0.889054 43.3261 1.09144 43.3295C1.70781 43.3391 2.32419 43.3402 2.94069 43.3415C3.02001 43.3425 3.08258 43.296 3.08323 43.2398L3.09102 42.73Z" fill="#0B0A0A" style="fill:#0B0A0A;fill:color(display-p3 0.0431 0.0392 0.0392);fill-opacity:1;"/>
<path d="M3.43401 37.7105C3.4797 37.3545 3.50579 37.0842 3.5141 36.8842C3.5402 36.4057 3.51059 36.3618 3.00846 36.1916C2.98639 36.1571 2.99237 35.973 3.00626 35.9344C3.25745 35.9833 3.65339 36.0823 3.92369 36.1172C4.22173 36.1477 4.46942 36.1558 4.72581 36.1647C4.73492 36.2302 4.73555 36.2943 4.72827 36.3501C4.73219 36.3904 4.70374 36.403 4.66675 36.4147C4.56666 36.4332 4.42206 36.4551 4.31392 36.4655C4.07204 36.4822 3.98132 36.5669 3.91395 36.8799C3.87421 37.0514 3.84061 37.3126 3.78853 37.7161C3.73725 38.1115 3.73596 38.1916 3.73855 38.2399C3.74297 38.2727 3.74882 38.2981 3.78062 38.3262C3.83021 38.3564 4.12944 38.4436 4.84552 38.536C5.48293 38.6183 5.71905 38.6485 5.86874 38.5878C6.04919 38.4977 6.12849 38.2272 6.21223 37.5785C6.33168 36.6536 6.29286 36.198 5.39892 35.8334C5.39426 35.8009 5.41307 35.7227 5.43215 35.6447C5.45266 35.6234 5.46136 35.6247 5.505 35.63C5.90469 35.6982 6.44759 35.8966 6.68724 36.0322C6.73463 36.078 6.74889 36.1047 6.7437 36.1435C6.73669 36.199 6.72968 36.2548 6.68711 36.5147C6.64776 36.751 6.56753 37.3033 6.48275 37.9589C6.401 38.5921 6.35554 39.2212 6.29987 39.8573C6.28894 39.8722 6.10463 39.8566 6.0358 39.839C6.01815 39.8373 6.00386 39.8111 6.00503 39.8032C5.98193 39.4306 5.92493 39.391 5.79499 39.366C5.66581 39.3336 5.11228 39.2218 4.22146 39.1069L2.71066 38.9118C1.54918 38.7616 1.15869 38.7593 1.10534 38.7603C1.05198 38.7619 1.00603 38.7716 0.978767 38.849C0.933331 38.9231 0.887635 39.0699 0.810783 39.2531C0.801046 39.2595 0.801046 39.2595 0.774951 39.2561L0.576072 39.2149C0.541021 39.2103 0.532323 39.209 0.537516 39.1694L0.573476 38.8929C0.604891 38.6476 0.661102 38.3494 0.732243 37.8676L0.831295 37.1006C0.893607 36.6181 0.924371 36.0352 0.966953 35.6394C0.980063 35.5363 1.00382 35.4911 1.03511 35.4552C1.09638 35.3904 1.09638 35.3904 1.24982 35.4423C1.62591 35.5555 2.13141 35.629 2.35821 35.6579C2.33185 35.8637 2.30148 35.8919 2.24825 35.8925C1.60488 35.9219 1.28332 35.9371 1.20374 36.5546L1.13338 37.0996C1.07288 37.5661 1.05666 37.8294 1.07171 37.9201C1.09365 38.0268 1.17869 38.0541 1.37938 38.0799C1.99069 38.1591 2.60317 38.2302 3.21591 38.3013C3.29406 38.3113 3.36131 38.2721 3.36858 38.2169L3.43401 37.7105Z" fill="#0B0A0A" style="fill:#0B0A0A;fill:color(display-p3 0.0431 0.0392 0.0392);fill-opacity:1;"/>
<path d="M4.34379 32.7601C4.43039 32.4116 4.48735 32.1466 4.51839 31.9487C4.59965 31.4759 4.57486 31.4288 4.09597 31.2029C4.07792 31.1654 4.10517 30.9834 4.12335 30.9465C4.36728 31.0236 4.74893 31.168 5.01377 31.2339C5.30612 31.2983 5.55122 31.3345 5.80489 31.3731C5.80658 31.4391 5.79944 31.5034 5.78605 31.5574C5.78515 31.5982 5.7553 31.6073 5.71752 31.6142C5.61599 31.6218 5.46957 31.6266 5.36116 31.6242C5.11892 31.6135 5.01886 31.6871 4.91643 31.9902C4.85684 32.1562 4.79333 32.4116 4.6952 32.8063C4.59915 33.1934 4.58825 33.2726 4.58539 33.321C4.58642 33.3541 4.58915 33.3794 4.61733 33.4112C4.66276 33.4472 4.95029 33.5684 5.65119 33.7425C6.27494 33.8977 6.50551 33.9551 6.66141 33.9115C6.85084 33.8433 6.96091 33.5832 7.11863 32.9489C7.34386 32.0435 7.35788 31.5868 6.51173 31.1216C6.51083 31.0885 6.53848 31.0134 6.5664 30.9381C6.58923 30.919 6.5978 30.9212 6.64064 30.9319C7.0297 31.0452 7.54588 31.3048 7.76864 31.4671C7.81019 31.5188 7.82158 31.546 7.81198 31.5847C7.79849 31.6386 7.78513 31.693 7.71281 31.9462C7.64648 32.1764 7.50328 32.7158 7.34362 33.3583C7.18965 33.9771 7.07191 34.5976 6.94353 35.2227C6.93107 35.2361 6.74945 35.2001 6.68325 35.1745C6.6661 35.1707 6.6548 35.1434 6.65662 35.1353C6.677 34.7625 6.62469 34.7163 6.49837 34.6771C6.37428 34.6298 5.83696 34.4547 4.96535 34.2374L3.48699 33.8697C2.35044 33.5871 1.96293 33.5397 1.90984 33.5353C1.85674 33.5299 1.81001 33.5348 1.77366 33.6076C1.72043 33.6766 1.65812 33.8177 1.56063 33.9899C1.55024 33.9962 1.55024 33.9962 1.52454 33.9897L1.33176 33.925C1.29762 33.9166 1.28892 33.9143 1.29866 33.8759L1.36616 33.605C1.42562 33.3649 1.5161 33.0754 1.64203 32.6056L1.8287 31.8551C1.94606 31.3828 2.04381 30.8074 2.1317 30.4184C2.15649 30.3179 2.18518 30.2758 2.22036 30.243C2.28891 30.1863 2.28891 30.1863 2.43508 30.2554C2.79571 30.411 3.28941 30.5421 3.51166 30.5974C3.46142 30.7985 3.42832 30.823 3.37496 30.8183C2.73249 30.7731 2.41184 30.751 2.26165 31.3545L2.12871 31.8883C2.01512 32.3452 1.96852 32.6043 1.97332 32.6962C1.98241 32.805 2.06419 32.8417 2.26048 32.8907C2.8588 33.0394 3.45869 33.1807 4.05871 33.3215C4.13581 33.3409 4.20723 33.3095 4.22072 33.2551L4.34379 32.7601Z" fill="#0B0A0A" style="fill:#0B0A0A;fill:color(display-p3 0.0431 0.0392 0.0392);fill-opacity:1;"/>
<path d="M8.22004 26.9022C7.50186 26.8276 6.26329 26.6764 4.38302 26.5151C3.77066 26.4651 3.72407 26.4603 3.50661 26.8068C3.47792 26.8457 3.46637 26.8491 3.43469 26.8335C3.41886 26.826 3.34032 26.7258 3.31916 26.6886C3.29787 26.6517 3.29618 26.6153 3.32058 26.5653C3.38705 26.429 3.5562 26.1212 3.62981 25.9708C3.75159 25.7198 3.8579 25.4614 3.98382 25.2034C4.0012 25.1675 4.12583 25.1926 4.21297 25.2348C4.24477 25.2505 4.26514 25.2688 4.2554 25.309C4.14753 25.611 4.12221 25.7231 4.23231 25.7588C4.29123 25.7784 4.42403 25.8078 4.55228 25.8255C5.90447 26.005 7.76982 26.177 8.52083 26.2238C8.56742 26.2286 8.6078 26.1863 8.57493 26.1529C8.16175 25.6942 6.93145 24.4389 6.46372 23.9713C6.4066 23.9085 6.34392 23.8955 6.27031 23.8863C5.7958 23.815 5.48128 23.7771 5.28693 23.7533C5.07338 23.7294 5.02884 23.7606 4.86048 24.087C4.84972 24.1081 4.81193 24.1255 4.78857 24.1137C4.63264 24.0114 4.59797 23.9414 4.6224 23.8916C4.70638 23.7191 4.8444 23.4757 4.97354 23.2106C5.14815 22.8523 5.22538 22.6326 5.27786 22.5249C5.32615 22.4867 5.55722 22.555 5.55203 22.6056C5.41455 23.0086 5.41741 23.063 5.6625 23.103C6.63976 23.2683 8.65091 23.5021 9.82211 23.6117C9.86093 23.6125 9.86688 23.5796 9.82989 23.5353C9.27895 22.9569 7.43995 21.0414 6.82617 20.5918C6.67831 20.4931 6.60742 20.5383 6.55757 20.6204C6.48945 20.7204 6.42298 20.8565 6.35857 20.9493C6.34352 20.9599 6.32391 20.9594 6.28809 20.9329C6.14452 20.8453 6.09596 20.8038 6.12438 20.7466C6.15891 20.6754 6.39221 20.2562 6.47605 20.0841C6.58782 19.8552 6.68702 19.6106 6.71493 19.5534C6.75674 19.4673 6.79021 19.4391 6.84112 19.455L7.02596 19.5182C7.04168 19.5262 7.05062 19.5481 7.04361 19.5624C6.85408 19.9316 6.9025 19.9728 7.56172 20.7104C7.95158 21.1577 9.27596 22.5207 10.2901 23.5552C10.4045 23.682 10.6524 23.998 10.8682 24.2181C10.9134 24.267 10.9205 24.3323 10.8996 24.3756C10.8577 24.4615 10.7848 24.4704 10.6566 24.4525C10.493 24.4257 10.2671 24.3869 9.83574 24.3273C9.33372 24.2513 8.03167 24.07 6.96535 23.9675C7.51695 24.5643 8.13057 25.2353 8.93754 26.0719C9.14123 26.2772 9.41188 26.5866 9.62321 26.7961C9.65581 26.8295 9.66475 26.8516 9.66216 26.8767C9.66841 26.9245 9.65206 26.9785 9.62737 27.0284C9.60999 27.0643 9.5722 27.0815 9.50211 27.065C9.36579 27.0429 8.93778 26.9763 8.22004 26.9022Z" fill="#0B0A0A" style="fill:#0B0A0A;fill:color(display-p3 0.0431 0.0392 0.0392);fill-opacity:1;"/>
<path d="M9.71528 19.9143C9.64103 20.0279 9.61235 20.1995 9.66141 20.3655C9.74216 20.6762 9.9957 20.9478 10.4741 21.2618C10.9454 21.5712 11.3755 21.6053 11.6604 21.5728C12.0817 21.5247 12.301 21.335 12.4102 21.1682C12.4673 21.0819 12.5309 20.9043 12.4923 20.7547C12.4339 20.5065 12.2607 20.1929 11.8118 19.898C11.3626 19.6032 10.8129 19.4138 10.3493 19.5102C10.1337 19.5497 9.86406 19.6877 9.71956 19.9073L9.71528 19.9143ZM9.63272 19.4308C9.93897 18.9642 10.9281 18.5165 11.9365 19.1789C12.6873 19.6714 12.7974 20.3544 12.7952 20.486C12.8013 20.9101 12.7204 21.3053 12.5326 21.5921C12.3704 21.8383 11.8718 22.2457 11.3301 22.2524C10.9118 22.2636 10.4616 22.0829 10.2038 21.9137C9.90208 21.7156 9.61897 21.3772 9.49577 21.0673C9.39192 20.8082 9.36154 20.5978 9.36932 20.3449C9.38544 20.0316 9.49693 19.6375 9.62817 19.4374L9.63272 19.4308Z" fill="#0B0A0A" style="fill:#0B0A0A;fill:color(display-p3 0.0431 0.0392 0.0392);fill-opacity:1;"/>
<path d="M15.9777 16.9713C15.4381 17.5901 15.2076 17.8549 15.031 18.1241C15.0152 18.1421 15.0152 18.1421 14.9955 18.1245C14.9823 18.1132 14.9025 18.0434 14.8745 18.0085C14.8614 17.9972 14.8398 17.9679 14.8437 17.9496C14.9754 17.6522 14.9695 17.6044 14.8819 17.5179C14.7236 17.3372 14.3812 17.0068 13.7109 16.4226C13.4324 16.179 13.3238 16.1158 13.1784 16.0952C13.0172 16.0929 12.8052 16.1614 12.6372 16.3534C12.5167 16.492 12.4236 16.7596 12.3994 17.1088C12.3958 17.1796 12.4146 17.2385 12.4692 17.2969C12.59 17.4126 12.9832 17.7662 13.2946 18.038C14.0313 18.6804 14.0685 18.6917 14.3321 18.4558C14.3756 18.4199 14.3939 18.4255 14.4139 18.4428C14.434 18.4601 14.5627 18.5937 14.5575 18.6C14.5103 18.6535 14.218 19.0018 14.1186 19.1161C14.0034 19.2484 13.7939 19.5422 13.734 19.6376C13.7114 19.6499 13.5933 19.5575 13.5258 19.488C13.5492 19.4342 13.5933 19.3036 13.6046 19.2501C13.6267 19.1846 13.6159 19.143 13.5481 19.0736C13.4789 18.9922 13.289 18.7948 12.7581 18.3315C12.2672 17.9034 12.1108 17.7881 12.0259 17.7247C11.9093 17.6442 11.8869 17.6562 11.7555 17.7532C11.6634 17.8317 11.6279 17.833 11.5974 17.8267C11.5739 17.8277 11.4599 17.7702 11.457 17.7469C11.4776 17.2145 11.5008 16.9068 11.5223 16.7881C11.531 16.7114 11.5401 16.6874 11.5767 16.6452C11.6083 16.609 11.6371 16.6027 11.6837 16.6432L12.1696 17.0776C12.2023 16.8523 12.2361 16.3315 12.3081 16.0347C12.3328 15.9397 12.3808 15.8443 12.4385 15.7782C12.7215 15.4535 13.0713 15.4412 13.4901 15.5103C13.5728 15.0002 13.6016 14.7925 13.6717 14.5788C13.7141 14.4359 13.7739 14.287 13.8945 14.1488C13.9836 14.0467 14.1783 13.9307 14.3787 13.9155C14.562 13.9058 14.8009 13.9128 15.4206 14.4216C15.7645 14.7111 16.0764 14.9832 16.3483 15.2205C16.6005 15.4405 16.6853 15.504 16.7342 15.515C16.8321 15.5369 16.9202 15.4758 17.1867 15.2641C17.2024 15.2458 17.2264 15.2454 17.2525 15.2684C17.2794 15.2923 17.3924 15.4432 17.3765 15.4615L17.0204 15.8702C16.8159 16.1045 16.6734 16.3079 16.5713 16.4518C16.5556 16.4701 16.5388 16.4764 16.5199 16.4704C16.4949 16.4591 16.4045 16.402 16.378 16.3784C16.3649 16.3667 16.3516 16.3551 16.3605 16.3315C16.3917 16.2424 16.4082 16.1298 16.3388 16.048C16.1104 15.7749 15.6324 15.3581 15.4863 15.2308C14.929 14.7446 14.6724 14.6369 14.4795 14.6167C14.2786 14.5788 14.134 14.6645 13.961 14.8626C13.8143 15.0314 13.7317 15.287 13.6907 15.5475C13.6823 15.6246 13.6969 15.6479 13.7699 15.7117C14.1495 16.0533 15.0374 16.8174 15.3037 17.0075C15.4136 17.0823 15.4308 17.0763 15.7396 16.8161C15.7551 16.7981 15.7856 16.8034 15.8187 16.8323L15.9777 16.9713Z" fill="#0B0A0A" style="fill:#0B0A0A;fill:color(display-p3 0.0431 0.0392 0.0392);fill-opacity:1;"/>
<path d="M17.524 12.0093C17.3614 11.8239 16.8664 11.7192 16.6147 11.9395C16.5789 11.9711 16.5361 12.0432 16.5229 12.1372C16.4649 12.4217 16.653 12.8425 16.9088 13.11C17.1152 12.7893 17.3447 12.4945 17.5506 12.1854C17.5811 12.1349 17.5937 12.0891 17.5297 12.0159L17.524 12.0093ZM16.6045 11.5038C16.7904 11.341 17.1046 11.2765 17.3109 11.3064C17.5116 11.33 17.7175 11.3955 17.9338 11.5334C17.9763 11.4729 18.0609 11.34 18.1024 11.3506C18.1318 11.3483 18.1496 11.3679 18.1667 11.3998C18.2008 11.4752 18.2632 11.6314 18.2212 11.6919C17.9059 12.1552 17.2771 12.9983 17.0945 13.3104C17.0704 13.3436 17.087 13.3868 17.1569 13.4662C17.7493 14.106 18.3048 14.0997 18.7008 13.7527C18.9769 13.5114 19.1005 13.1808 19.1306 12.8032C19.1372 12.7501 19.2095 12.6876 19.2207 12.7125C19.3541 12.8767 19.3826 12.9332 19.3815 13.0046C19.3319 13.4692 19.1662 13.8484 19.0206 14.093C18.9657 14.1884 18.8934 14.2632 18.8272 14.3213C18.4076 14.6889 17.8938 14.6467 17.7404 14.6171C17.546 14.5885 17.1168 14.4496 16.7396 14.0192C16.229 13.4357 16.1465 12.7241 16.25 12.1888C16.2954 11.9382 16.4305 11.6567 16.5982 11.5095L16.6045 11.5038Z" fill="#0B0A0A" style="fill:#0B0A0A;fill:color(display-p3 0.0431 0.0392 0.0392);fill-opacity:1;"/>
<path d="M20.0568 12.895C20.2039 12.6743 20.2469 12.5687 20.1303 12.3603C20.0115 12.1207 19.727 11.686 19.4797 11.3321C19.2827 11.0509 19.0883 10.8003 18.9909 10.675C18.9404 10.6033 18.8938 10.5926 18.5377 10.7229C18.4867 10.7053 18.4833 10.7289 18.4289 10.5949C18.4138 10.5737 18.4236 10.5451 18.4523 10.5032C18.6278 10.1556 18.7941 9.78106 18.8067 9.72921C18.816 9.7013 18.8373 9.67571 18.8637 9.65777C18.896 9.6345 18.9437 9.63351 18.9638 9.66209C19.0563 9.7804 19.1586 9.913 19.2447 10.036C19.2695 10.0719 19.2965 10.0964 19.3226 10.0782C19.4837 9.69631 19.5549 9.56105 19.6706 9.35135C19.7346 9.22041 19.8482 9.07618 19.9659 8.99409C20.1554 8.86183 20.3214 8.82095 20.5213 8.84255C20.7923 8.86748 21.0655 9.06322 21.3083 9.35567C21.4276 9.49824 21.5484 9.67106 21.7658 9.98146C22.1338 10.5082 22.3571 10.8143 22.4738 10.9801C22.5188 11.0449 22.53 11.0476 22.5497 11.0343C22.6087 10.9927 22.7833 10.8389 22.8762 10.7631C22.8957 10.7491 22.9289 10.7691 22.9594 10.8123C22.9894 10.8555 23.0407 10.9705 23.0538 11.0037C23.0665 11.0492 23.0533 11.0579 23.0272 11.0765C22.4455 11.4826 22.2696 11.6488 22.0215 11.8226C21.9819 11.8502 21.9494 11.8728 21.9229 11.8488L21.7891 11.7269C21.9281 11.5225 21.9594 11.4145 21.8448 11.1941C21.7258 10.9549 21.5459 10.6833 21.1875 10.1706C20.9101 9.77375 20.7621 9.57601 20.4857 9.50123C20.2955 9.45138 20.1115 9.49426 19.9218 9.62652C19.7647 9.73619 19.587 10.011 19.509 10.2054C19.4854 10.2975 19.5091 10.345 19.5582 10.4288C19.7216 10.691 20.4436 11.7225 20.7159 12.112C20.7814 12.2061 20.8045 12.2114 21.1844 12.0313C21.2291 12.0113 21.2454 12.021 21.2593 12.0542L21.3309 12.241L20.7755 12.6292C20.5142 12.8119 20.3305 12.9944 20.1996 13.0854C20.1865 13.0947 20.1698 13.0851 20.1497 13.0562L20.0568 12.895Z" fill="#0B0A0A" style="fill:#0B0A0A;fill:color(display-p3 0.0431 0.0392 0.0392);fill-opacity:1;"/>
<path d="M24.1824 7.25199C24.1554 7.2161 24.1013 7.21411 23.7345 7.31879C23.7021 7.32477 23.687 7.31247 23.6886 7.26262C23.6677 7.09579 23.667 7.07652 23.6984 7.0506C23.9254 6.80899 24.1162 6.56639 24.3706 6.29155C24.381 6.27659 24.3883 6.27294 24.4026 6.26596C24.417 6.25865 24.4245 6.27427 24.4485 6.32146C24.6878 6.87147 25.2073 8.00007 25.4124 8.40951C25.613 8.81063 25.6837 8.95287 25.7383 9.04359C25.8077 9.14662 25.8453 9.18683 25.9126 9.14329C26.1259 9.01701 26.183 8.98876 26.2044 8.97813C26.2258 8.96749 26.2923 8.99308 26.2972 9.02033L26.378 9.23568C26.3946 9.28653 26.3803 9.29384 26.3446 9.31146C26.138 9.41481 25.9303 9.49889 25.702 9.61321C25.388 9.76974 25.1263 9.96017 25.105 9.97014C25.0693 9.98842 25.0509 9.98742 25.0283 9.95951C24.9862 9.91198 24.947 9.83322 24.9233 9.7857C24.9078 9.75446 24.9181 9.73884 24.9399 9.72887C25.1803 9.56868 25.2257 9.51651 25.1583 9.2749C25.1166 9.13765 24.8838 8.56504 24.6218 8.07617L24.1824 7.25199ZM23.3831 4.61958C23.5686 4.52653 23.7764 4.63919 23.871 4.82862C24.0048 5.09615 23.9125 5.33908 23.7274 5.4318C23.556 5.51755 23.3387 5.43945 23.2322 5.22675C23.0944 4.95092 23.2191 4.701 23.376 4.62291L23.3831 4.61958Z" fill="#0B0A0A" style="fill:#0B0A0A;fill:color(display-p3 0.0431 0.0392 0.0392);fill-opacity:1;"/>
<path d="M26.7916 8.83138C26.987 8.65192 27.0541 8.56019 26.9909 8.32956C26.9324 8.06934 26.7604 7.57815 26.6047 7.17603C26.4811 6.85599 26.3517 6.56554 26.2872 6.42097C26.2554 6.33855 26.2126 6.31728 25.8359 6.35915C25.79 6.32958 25.782 6.35185 25.7604 6.20894C25.7511 6.18402 25.7669 6.15942 25.8054 6.12519C26.0586 5.82908 26.3096 5.50572 26.334 5.4582C26.3498 5.43361 26.3764 5.41367 26.4067 5.40237C26.4437 5.38775 26.49 5.39838 26.5034 5.43095C26.5644 5.56787 26.6322 5.72108 26.6858 5.86033C26.702 5.90153 26.7224 5.93177 26.7516 5.92014C26.9999 5.58881 27.1008 5.47382 27.2635 5.29802C27.3572 5.18602 27.5017 5.07303 27.6356 5.02118C27.8515 4.9381 28.0219 4.93843 28.2111 5.00656C28.4682 5.09629 28.6865 5.35186 28.8527 5.69349C28.9345 5.85999 29.0102 6.05706 29.1469 6.41067C29.3788 7.00986 29.5225 7.36047 29.5954 7.54957C29.6246 7.62335 29.6346 7.62867 29.6577 7.62003C29.7242 7.5941 29.9299 7.48609 30.0386 7.43491C30.061 7.42594 30.0886 7.45286 30.1074 7.50238C30.1266 7.55156 30.1489 7.67553 30.1539 7.71108C30.1552 7.75828 30.1402 7.76392 30.1106 7.77556C29.4487 8.03112 29.238 8.1501 28.9552 8.25943C28.9105 8.27672 28.8739 8.29101 28.8533 8.2611L28.7527 8.11088C28.9368 7.94571 28.9933 7.84834 28.9342 7.60706C28.8758 7.34585 28.7661 7.03944 28.5405 6.4562C28.3663 6.00456 28.2692 5.77724 28.019 5.63799C27.8463 5.54427 27.6574 5.54195 27.4413 5.62503C27.2631 5.69449 27.0246 5.91848 26.9022 6.0883C26.8578 6.17172 26.8691 6.22423 26.897 6.31728C26.993 6.6104 27.4471 7.78486 27.6181 8.2282C27.6597 8.33554 27.6811 8.34584 28.093 8.26242C28.1406 8.25345 28.1549 8.26641 28.1599 8.30231L28.1852 8.50038L27.5526 8.74497C27.2553 8.85996 27.0333 8.99289 26.8844 9.05039C26.8697 9.05637 26.8558 9.04274 26.8431 9.00984L26.7916 8.83138Z" fill="#0B0A0A" style="fill:#0B0A0A;fill:color(display-p3 0.0431 0.0392 0.0392);fill-opacity:1;"/>
<path d="M33.7135 3.74582C34.0664 3.68201 34.3333 3.62551 34.5267 3.573C34.9913 3.45337 35.0245 3.41183 35.0338 2.88209C35.0604 2.85052 35.2382 2.8 35.2791 2.80199C35.3087 3.0559 35.3336 3.46334 35.3821 3.73186C35.4429 4.02531 35.5097 4.26393 35.5788 4.51085C35.519 4.5391 35.4579 4.55937 35.4027 4.56934C35.3652 4.58463 35.3449 4.5617 35.323 4.52979C35.2741 4.44006 35.21 4.30879 35.1681 4.20909C35.0787 3.9831 34.9703 3.92229 34.652 3.95286C34.4762 3.96649 34.2156 4.01335 33.8145 4.0858C33.4222 4.15592 33.3453 4.17918 33.3001 4.19646C33.27 4.21042 33.248 4.22338 33.2311 4.2626C33.2168 4.31843 33.2242 4.63049 33.3521 5.34069C33.4663 5.97345 33.5082 6.20774 33.6114 6.33203C33.751 6.4766 34.0335 6.47062 34.6796 6.35463C35.5975 6.18946 36.0199 6.01499 36.0976 5.05222C36.1279 5.03826 36.2073 5.03228 36.2874 5.02696C36.314 5.04025 36.3156 5.04923 36.3236 5.09243C36.3798 5.49389 36.3538 6.07082 36.2973 6.34067C36.2671 6.39983 36.2472 6.4211 36.2076 6.42841C36.1525 6.43838 36.0976 6.44835 35.8371 6.48624C35.6001 6.52013 35.0494 6.6102 34.3977 6.72718C33.7683 6.8405 33.1545 6.98739 32.5314 7.12598C32.5138 7.12033 32.4733 6.93987 32.4686 6.86875C32.4654 6.8518 32.4862 6.82987 32.4941 6.82887C32.8423 6.69461 32.863 6.62781 32.8475 6.49654C32.8397 6.36394 32.7793 5.80196 32.6196 4.91796L32.3496 3.4188C32.1423 2.2666 32.0266 1.89373 32.0091 1.84255C31.992 1.79204 31.9686 1.75182 31.8871 1.7485C31.8018 1.7279 31.6486 1.72923 31.4509 1.71061C31.4411 1.70364 31.4411 1.70364 31.4364 1.67771L31.4162 1.47532C31.4104 1.44076 31.4087 1.43212 31.448 1.42547L31.7222 1.37562C31.9654 1.33175 32.2672 1.29553 32.7475 1.21809L33.5089 1.08051C33.9873 0.994102 34.5543 0.847875 34.9454 0.768447C35.0468 0.750169 35.098 0.759143 35.1412 0.778087C35.2213 0.817302 35.2213 0.817303 35.2179 0.978817C35.2242 1.37197 35.307 1.87512 35.3475 2.10111C35.1428 2.13766 35.1073 2.11739 35.0897 2.06654C34.8677 1.46236 34.7563 1.16027 34.1438 1.27061L33.6011 1.36831C33.138 1.45173 32.8821 1.51587 32.8003 1.55708C32.7047 1.61025 32.7043 1.69965 32.7408 1.89904C32.8497 2.50588 32.9665 3.11073 33.0837 3.71624C33.0977 3.79401 33.1558 3.84618 33.2106 3.83588L33.7135 3.74582Z" fill="#0B0A0A" style="fill:#0B0A0A;fill:color(display-p3 0.0431 0.0392 0.0392);fill-opacity:1;"/>
<path d="M37.0674 6.1185C37.3103 6.01115 37.403 5.94568 37.417 5.70674C37.4459 5.44153 37.4402 4.92177 37.4226 4.4904C37.4087 4.14776 37.3788 3.83171 37.3645 3.67319C37.3608 3.58545 37.3276 3.55156 36.957 3.47013C36.9235 3.4276 36.9078 3.44587 36.9341 3.30397C36.9331 3.27672 36.956 3.25877 37.0036 3.23883C37.3382 3.03976 37.6799 2.81378 37.7181 2.77755C37.742 2.75927 37.7726 2.74864 37.8048 2.74764C37.845 2.74565 37.8856 2.77091 37.8869 2.80547C37.9012 2.95469 37.9161 3.12152 37.9221 3.2714C37.9241 3.31493 37.9338 3.35016 37.9657 3.34883C38.307 3.1142 38.4392 3.0381 38.6499 2.92411C38.7746 2.84801 38.9477 2.78786 39.0913 2.78221C39.3222 2.77224 39.4844 2.8274 39.6413 2.95303C39.8553 3.12019 39.9799 3.43258 40.0278 3.80978C40.0514 3.99356 40.0604 4.20459 40.076 4.58312C40.1026 5.22552 40.1265 5.60338 40.1345 5.80577C40.1381 5.88487 40.1464 5.89351 40.17 5.89251C40.2418 5.88952 40.4718 5.85329 40.5911 5.83967C40.6147 5.83834 40.6323 5.87323 40.6346 5.92574C40.637 5.97858 40.618 6.10288 40.6114 6.1381C40.5971 6.1833 40.5811 6.18363 40.5492 6.18496C39.8404 6.21454 39.6027 6.25974 39.3 6.27237C39.2521 6.27403 39.2126 6.27602 39.2033 6.24079L39.1561 6.06698C39.3834 5.96895 39.4678 5.89517 39.4897 5.64725C39.519 5.38205 39.5127 5.05603 39.4874 4.43124C39.4671 3.94703 39.4485 3.70144 39.2558 3.48908C39.1225 3.34485 38.9441 3.2817 38.7134 3.29134C38.5223 3.29931 38.2246 3.43491 38.0541 3.55654C37.9846 3.62134 37.9793 3.67419 37.975 3.77156C37.9716 4.07963 38.0242 5.33818 38.0438 5.81341C38.0491 5.9274 38.0657 5.94469 38.4824 5.99786C38.5313 6.00417 38.5396 6.02212 38.533 6.05768L38.4931 6.25309L37.8161 6.28134C37.4974 6.2943 37.2442 6.3488 37.085 6.35545C37.069 6.35611 37.0604 6.33883 37.0587 6.30394L37.0674 6.1185Z" fill="#0B0A0A" style="fill:#0B0A0A;fill:color(display-p3 0.0431 0.0392 0.0392);fill-opacity:1;"/>
<path d="M43.303 4.44987C43.3239 4.16905 43.2867 3.79551 43.1694 3.54859C43.073 3.33822 42.851 3.09263 42.4934 3.06637C42.3502 3.05574 42.2179 3.10825 42.0734 3.22955C41.9215 3.34221 41.8387 3.59245 41.8208 3.83805C41.7959 4.18068 41.8989 4.62966 42.1063 4.85665C42.3499 5.13016 42.529 5.19663 42.6719 5.20693C42.9663 5.22919 43.2595 5.04708 43.3027 4.45885L43.303 4.44987ZM42.3063 8.23548C42.7676 8.26938 43.095 8.16968 43.3253 7.9746C43.4951 7.83635 43.6277 7.66985 43.6426 7.45915C43.6516 7.33652 43.6533 7.20392 43.5041 7.06068C43.3392 6.90714 43.1122 6.83768 42.8341 6.81708C42.5556 6.79681 42.2193 6.80745 42.0169 6.83669C41.9364 6.84832 41.8364 6.90282 41.6992 7.02545C41.4785 7.20358 41.3825 7.42591 41.3728 7.55785C41.3612 7.71571 41.5031 8.17632 42.2984 8.23481L42.3063 8.23548ZM42.87 2.72307C43.0767 2.73836 43.3156 2.86132 43.4532 2.95105C43.5054 2.99924 43.5699 2.99492 43.5858 2.99625C43.7211 3.00622 44.1893 2.93444 44.3568 2.94673C44.4203 2.95138 44.5024 3.0368 44.5077 3.07269C44.5137 3.09961 44.522 3.31197 44.5193 3.34719C44.5157 3.3997 44.4718 3.44989 44.3758 3.45122C44.2884 3.4449 44.0491 3.43626 43.6995 3.4017C43.8035 3.62137 43.8769 3.93576 43.8583 4.18168C43.8135 4.79617 43.3681 5.31128 42.736 5.5386C42.4326 5.63996 42.2425 5.73168 42.0597 5.8244C42.0096 5.84767 41.9813 5.90715 41.979 5.93341C41.968 6.0916 42.1531 6.18432 42.3678 6.20027C42.4632 6.20725 42.9653 6.22619 43.0365 6.23151C43.3711 6.2561 43.6699 6.32224 43.9245 6.56152C44.0365 6.66687 44.1235 6.89385 44.1019 7.19228C44.0813 7.47344 43.9989 7.618 43.7626 7.89151C43.3093 8.40597 42.9328 8.52826 42.7277 8.60171C42.5393 8.65854 42.1688 8.6931 41.9384 8.67648C41.0711 8.61268 40.763 8.13113 40.7886 7.77985C40.8108 7.48108 40.9398 7.24346 41.1412 7.11684C41.3515 6.97361 41.5194 6.86195 41.7713 6.70409C41.4413 6.51167 41.2592 6.38405 41.2781 6.12051C41.2841 6.04108 41.2864 6.00619 41.3396 5.93972C41.4247 5.86661 41.7975 5.69047 42.1358 5.53893C41.8949 5.4502 41.7032 5.3392 41.5184 5.13182C41.3117 4.89586 41.211 4.52631 41.2359 4.18401C41.2744 3.65693 41.5586 3.27175 41.9374 3.01685C42.2139 2.84271 42.528 2.69815 42.8623 2.72274L42.87 2.72307Z" fill="#0B0A0A" style="fill:#0B0A0A;fill:color(display-p3 0.0431 0.0392 0.0392);fill-opacity:1;"/>
<path d="M46.3057 1.21175C46.51 1.24432 46.6141 1.45701 46.5805 1.66538C46.5343 1.96116 46.3173 2.10506 46.1126 2.07249C45.9238 2.04258 45.7922 1.85215 45.8294 1.61752C45.8776 1.31311 46.1242 1.18283 46.298 1.21042L46.3057 1.21175ZM45.424 3.8179C45.4226 3.77303 45.3798 3.73914 45.0205 3.61119C44.9906 3.59756 44.9856 3.57895 45.0155 3.53874C45.096 3.39119 45.1063 3.37524 45.1475 3.37258C45.4715 3.30844 45.7686 3.22169 46.1358 3.14592C46.1525 3.14027 46.1604 3.14127 46.177 3.14393C46.192 3.14626 46.1893 3.16354 46.1814 3.21571C46.0554 3.80228 45.8214 5.02228 45.7497 5.47425C45.6795 5.91791 45.6543 6.07444 45.646 6.18012C45.6423 6.30442 45.6503 6.35925 45.7297 6.36257C45.9767 6.38418 46.0395 6.39414 46.0637 6.3978C46.0873 6.40179 46.1259 6.46094 46.1139 6.4862L46.0544 6.70853C46.0388 6.75938 46.0228 6.75705 45.983 6.7504C45.755 6.71451 45.5373 6.662 45.2851 6.62246C44.9384 6.56696 44.6151 6.56895 44.5915 6.56563C44.5523 6.55932 44.5383 6.54768 44.5357 6.51212C44.5297 6.44832 44.5433 6.36191 44.5516 6.30973C44.5569 6.27517 44.5742 6.26819 44.5985 6.27251C44.8869 6.28248 44.9544 6.26653 45.0398 6.03024C45.0853 5.89498 45.2296 5.29379 45.301 4.74345L45.424 3.8179Z" fill="#0B0A0A" style="fill:#0B0A0A;fill:color(display-p3 0.0431 0.0392 0.0392);fill-opacity:1;"/>
<path d="M46.6185 6.62005C46.882 6.58682 46.9894 6.55059 47.0714 6.32627C47.1751 6.08034 47.3184 5.57985 47.4244 5.16178C47.5095 4.82911 47.5719 4.51805 47.6032 4.36252C47.6248 4.27711 47.6025 4.2349 47.2708 4.05079C47.2506 4.00027 47.2303 4.01357 47.2968 3.88495C47.3024 3.85903 47.3303 3.8484 47.3815 3.84275C47.759 3.74803 48.1512 3.62906 48.1984 3.60513C48.226 3.59416 48.2592 3.5935 48.2898 3.60114C48.3283 3.61111 48.3606 3.64634 48.3519 3.68024C48.323 3.82746 48.2891 3.9913 48.2529 4.13719C48.2419 4.17907 48.2409 4.21563 48.2718 4.2236C48.6663 4.09665 48.8142 4.06142 49.0492 4.01191C49.1904 3.97502 49.3735 3.96704 49.5128 4.00227C49.7364 4.0591 49.876 4.15847 49.9907 4.32364C50.1482 4.5453 50.1781 4.87996 50.1159 5.25483C50.0857 5.43794 50.0335 5.643 49.9405 6.00989C49.7823 6.63302 49.6965 7.00157 49.6474 7.19832C49.6274 7.27508 49.6331 7.28538 49.6563 7.29137C49.7258 7.30931 49.9568 7.33989 50.0744 7.36115C50.0977 7.36714 50.1046 7.40536 50.0914 7.45687C50.0787 7.50738 50.0249 7.62137 50.0086 7.65361C49.9824 7.69249 49.9671 7.68817 49.9358 7.6802C49.2479 7.50606 49.0073 7.48113 48.7138 7.40668C48.6673 7.39439 48.6284 7.38475 48.6294 7.34853L48.6344 7.16807C48.88 7.13982 48.983 7.09329 49.0741 6.86232C49.1778 6.61606 49.2655 6.30201 49.4194 5.6955C49.5394 5.22658 49.5922 4.98564 49.4682 4.72742C49.3815 4.55062 49.2286 4.43928 49.0043 4.38212C48.8192 4.33493 48.4952 4.38013 48.2968 4.4476C48.2127 4.49013 48.1911 4.53899 48.1598 4.63104C48.0684 4.92582 47.7587 6.14648 47.6421 6.60743C47.6138 6.71809 47.6244 6.73936 48.0093 6.90952C48.0532 6.92979 48.0568 6.94873 48.0405 6.98097L47.9465 7.1571L47.2891 6.98994C46.9801 6.91151 46.7218 6.89157 46.5673 6.85202C46.552 6.8487 46.5487 6.82943 46.5577 6.7952L46.6185 6.62005Z" fill="#0B0A0A" style="fill:#0B0A0A;fill:color(display-p3 0.0431 0.0392 0.0392);fill-opacity:1;"/>
<path d="M53.1268 6.15128C53.2119 5.91964 53.0676 5.43477 52.7536 5.31845C52.7084 5.30216 52.6246 5.29917 52.5359 5.33208C52.2581 5.41782 51.9786 5.78371 51.8659 6.13632C52.2461 6.1639 52.6147 6.22505 52.9849 6.25829C53.0434 6.26128 53.0899 6.24998 53.1231 6.15925L53.1268 6.15128ZM53.1311 5.10143C53.3628 5.18684 53.5701 5.43244 53.6422 5.62819C53.7177 5.81562 53.7586 6.02732 53.7406 6.28354C53.8141 6.29152 53.9716 6.30315 53.9816 6.34469C53.9978 6.36929 53.9885 6.39421 53.9689 6.42445C53.9191 6.49026 53.8117 6.61987 53.7383 6.61156C53.1813 6.55573 52.1401 6.40618 51.7785 6.39521C51.738 6.38956 51.7077 6.42512 51.6712 6.52449C51.3917 7.35033 51.6632 7.83554 52.157 8.01799C52.5013 8.14494 52.8506 8.09542 53.1963 7.94155C53.2468 7.92228 53.3358 7.95518 53.3196 7.97744C53.2388 8.17286 53.2026 8.22503 53.1394 8.25826C52.7081 8.43673 52.2953 8.47229 52.0102 8.46099C51.9012 8.45833 51.8005 8.43075 51.7184 8.40017C51.1949 8.20675 50.9862 7.73551 50.9391 7.58695C50.8709 7.40218 50.7878 6.95884 50.9866 6.42213C51.2548 5.69465 51.84 5.28256 52.3604 5.11739C52.6024 5.03763 52.9148 5.02168 53.1238 5.09878L53.1311 5.10143Z" fill="#0B0A0A" style="fill:#0B0A0A;fill:color(display-p3 0.0431 0.0392 0.0392);fill-opacity:1;"/>
<path d="M56.2576 7.53024C56.3636 7.30791 56.2639 6.81207 55.9611 6.66817C55.9183 6.64789 55.8345 6.63693 55.7434 6.66185C55.4586 6.72167 55.1476 7.06099 55.003 7.40163C55.3795 7.46411 55.7415 7.55815 56.107 7.62462C56.1645 7.63226 56.212 7.62595 56.2539 7.53888L56.2576 7.53024ZM56.3569 6.48572C56.5803 6.59206 56.764 6.85494 56.8185 7.056C56.8767 7.24975 56.898 7.46443 56.8574 7.718C56.9292 7.73263 57.0851 7.75789 57.0917 7.80009C57.1057 7.82635 57.094 7.85028 57.0721 7.87886C57.0163 7.94001 56.898 8.05964 56.8255 8.04436C56.2752 7.93868 55.2519 7.69574 54.8927 7.65187C54.8531 7.64256 54.8196 7.6758 54.7747 7.77118C54.4218 8.56878 54.6481 9.07625 55.1236 9.30224C55.4547 9.45976 55.8073 9.44215 56.1655 9.31952C56.217 9.30523 56.3034 9.34644 56.2852 9.36671C56.1868 9.55415 56.1462 9.603 56.0804 9.62992C55.6348 9.7695 55.22 9.7675 54.9379 9.73061C54.8289 9.71799 54.7315 9.68143 54.6517 9.64354C54.1479 9.4036 53.9828 8.91607 53.9495 8.76353C53.8983 8.57376 53.8558 8.12445 54.1017 7.60734C54.4347 6.90745 55.0555 6.54919 55.5876 6.43221C55.8358 6.37438 56.1482 6.38602 56.35 6.48173L56.3569 6.48572Z" fill="#0B0A0A" style="fill:#0B0A0A;fill:color(display-p3 0.0431 0.0392 0.0392);fill-opacity:1;"/>
<path d="M56.5791 10.2299C56.7735 10.2614 56.8164 10.2661 56.8881 10.1754C56.9546 10.0919 57.0742 9.88623 57.4594 9.22423L57.8579 8.53929C57.9642 8.35651 57.9769 8.303 57.7565 8.06239C57.7143 8.00756 57.7379 7.88858 57.7785 7.85103C58.1507 7.81281 58.5305 7.80982 58.8376 7.77426C58.8742 7.77526 58.924 7.7839 58.938 7.79221C58.9655 7.80783 58.9689 7.88127 58.9154 7.94208C58.7931 8.13583 58.6708 8.29868 58.5448 8.53131C58.7266 8.5353 59.3643 8.40702 59.494 8.3904C59.5867 8.37312 59.6934 8.36415 59.7558 8.40004C59.935 8.50439 60.024 8.8108 59.927 8.9783C59.8559 9.10027 59.5551 9.2209 59.4577 9.2455C59.3989 9.25181 59.3464 9.26244 59.3055 9.23818C59.2637 9.21425 59.252 9.18734 59.2467 9.13284C59.2401 9.01718 59.1965 8.86963 59.0862 8.80549C58.9346 8.71709 58.6688 8.74633 58.474 8.79552C58.3993 8.81346 58.3278 8.90419 58.1201 9.26211L57.5664 10.2136C57.4558 10.4037 57.4056 10.507 57.4042 10.5569C57.4026 10.6067 57.4169 10.6456 57.497 10.6822L57.8778 10.8836C57.9124 10.9035 57.918 10.9573 57.8931 10.9836L57.7146 11.1963C57.4116 11.0195 57.1081 10.843 56.8047 10.6669C56.6256 10.5625 56.4445 10.4778 56.396 10.4499C56.368 10.4336 56.368 10.4027 56.4152 10.3691L56.5791 10.2299Z" fill="#0B0A0A" style="fill:#0B0A0A;fill:color(display-p3 0.0431 0.0392 0.0392);fill-opacity:1;"/>
<path d="M62.5124 7.73371C62.6848 7.84936 62.6895 8.08599 62.5722 8.26179C62.405 8.51004 62.1481 8.54992 61.9763 8.4346C61.8168 8.32825 61.7772 8.10027 61.9098 7.90254C62.0813 7.64664 62.3601 7.63202 62.506 7.72972L62.5124 7.73371ZM60.6181 9.72937C60.6357 9.68849 60.6111 9.63997 60.3389 9.37278C60.3173 9.34785 60.3203 9.32858 60.3652 9.30564C60.4994 9.20461 60.516 9.19464 60.5539 9.2096C60.8759 9.2877 61.1814 9.33323 61.5466 9.41864C61.5642 9.4203 61.5715 9.42462 61.5848 9.4336C61.5981 9.44257 61.5881 9.45719 61.5582 9.50106C61.1986 9.98061 60.4742 10.9899 60.2189 11.3701C59.969 11.7436 59.8806 11.8749 59.8294 11.967C59.7736 12.0783 59.7576 12.1308 59.8284 12.168C60.0435 12.2913 60.0963 12.3266 60.1166 12.3402C60.1362 12.3531 60.1471 12.4239 60.1252 12.4415L59.9777 12.618C59.9418 12.6576 59.9285 12.6489 59.8956 12.6266C59.7035 12.498 59.5277 12.3588 59.316 12.2169C59.0242 12.0215 58.7301 11.8879 58.7098 11.8749C58.6772 11.8523 58.6686 11.836 58.6816 11.8021C58.7028 11.7423 58.7517 11.6692 58.7809 11.6253C58.8009 11.5958 58.8191 11.5977 58.8384 11.6114C59.097 11.7416 59.1648 11.7553 59.3416 11.5771C59.4399 11.4735 59.8228 10.9872 60.1186 10.518L60.6181 9.72937Z" fill="#0B0A0A" style="fill:#0B0A0A;fill:color(display-p3 0.0431 0.0392 0.0392);fill-opacity:1;"/>
<path d="M60.5232 12.7748C60.7772 12.8529 60.8905 12.8639 61.0573 12.6924C61.2524 12.5103 61.588 12.1131 61.8559 11.7755C62.0696 11.5063 62.254 11.2481 62.3464 11.1191C62.4009 11.05 62.3983 11.0031 62.171 10.6984C62.1733 10.6442 62.1497 10.6482 62.2627 10.5578C62.279 10.5372 62.3085 10.5382 62.3571 10.5538C62.7402 10.622 63.1463 10.6748 63.1999 10.6725C63.2291 10.6731 63.26 10.6861 63.2846 10.7064C63.3162 10.731 63.3311 10.7762 63.3089 10.8041C63.2228 10.926 63.1244 11.062 63.0314 11.1793C63.0038 11.2138 62.9885 11.2464 63.0134 11.266C63.4248 11.3119 63.5747 11.3408 63.809 11.392C63.9533 11.4159 64.1234 11.4837 64.2357 11.5728C64.4165 11.7167 64.5036 11.8642 64.5402 12.0616C64.593 12.3288 64.4837 12.6462 64.273 12.9626C64.1706 13.1171 64.039 13.2829 63.8037 13.5797C63.4042 14.0829 63.1749 14.3846 63.049 14.5435C63.0001 14.6053 63.0005 14.6169 63.0191 14.6319C63.0759 14.6767 63.2733 14.7997 63.3723 14.8672C63.3909 14.8818 63.382 14.9193 63.3484 14.9606C63.3158 15.0021 63.2208 15.0842 63.1929 15.1064C63.1527 15.131 63.1404 15.1214 63.1151 15.1015C62.5591 14.6605 62.3497 14.5395 62.1128 14.3511C62.0749 14.3211 62.044 14.2966 62.0596 14.264L62.1377 14.1011C62.374 14.1759 62.486 14.1753 62.6648 14.0018C62.8599 13.8197 63.0686 13.5697 63.4574 13.0796C63.7585 12.7004 63.9051 12.502 63.8984 12.2158C63.8918 12.0191 63.7981 11.8552 63.6169 11.711C63.4667 11.5924 63.1527 11.5006 62.9446 11.4814C62.8502 11.485 62.8107 11.5209 62.7446 11.5924C62.5405 11.8233 61.7575 12.81 61.4621 13.1826C61.391 13.2723 61.3926 13.2959 61.6728 13.609C61.7054 13.6455 61.7004 13.6645 61.6725 13.6864L61.5146 13.8087L60.9835 13.3876C60.7336 13.1892 60.5066 13.0653 60.382 12.9659C60.3694 12.9559 60.3737 12.937 60.396 12.9101L60.5232 12.7748Z" fill="#0B0A0A" style="fill:#0B0A0A;fill:color(display-p3 0.0431 0.0392 0.0392);fill-opacity:1;"/>
<path d="M66.3332 15.5213C66.5286 15.3179 66.7393 15.0072 66.8065 14.7423C66.866 14.5187 66.852 14.1876 66.5938 13.9391C66.4904 13.8397 66.3558 13.7955 66.1664 13.7965C65.9776 13.7859 65.7546 13.9258 65.5835 14.1036C65.3455 14.3512 65.1378 14.7626 65.1525 15.0693C65.1648 15.4356 65.2605 15.6011 65.3638 15.7004C65.5768 15.9048 65.9181 15.9527 66.3273 15.5279L66.3332 15.5213ZM63.1482 17.7971C63.4818 18.1172 63.7969 18.2498 64.0986 18.2468C64.3173 18.2494 64.5257 18.2052 64.6722 18.0533C64.7576 17.9639 64.8434 17.8633 64.8201 17.6575C64.7912 17.4345 64.6613 17.2361 64.4602 17.0427C64.2591 16.8493 63.9933 16.6426 63.8191 16.5359C63.7497 16.4937 63.6377 16.4711 63.4546 16.4781C63.1708 16.4741 62.9541 16.5834 62.863 16.6788C62.7527 16.7935 62.5679 17.2385 63.1425 17.7915L63.1482 17.7971ZM67.1029 13.9158C67.2528 14.0594 67.3578 14.3073 67.4057 14.4635C67.4156 14.5343 67.4678 14.5718 67.4791 14.5828C67.5768 14.6768 67.9829 14.9211 68.1046 15.0378C68.1501 15.082 68.1584 15.1993 68.1398 15.2305C68.1272 15.2548 67.9982 15.4239 67.9736 15.4492C67.9364 15.4874 67.8713 15.498 67.7962 15.4379C67.7333 15.3774 67.5546 15.2172 67.3083 14.968C67.2478 15.2029 67.1029 15.4917 66.9321 15.6695C66.505 16.1135 65.8334 16.2245 65.2016 15.9962C64.9032 15.8806 64.6982 15.8297 64.4984 15.7838C64.4452 15.7699 64.3858 15.7978 64.3672 15.8167C64.2571 15.9311 64.3402 16.1208 64.4954 16.2697C64.5646 16.3362 64.9388 16.6718 64.9903 16.7217C65.2315 16.954 65.4196 17.1959 65.4625 17.5422C65.4811 17.6951 65.4034 17.9254 65.196 18.1414C65.0006 18.3445 64.8447 18.4023 64.4881 18.4628C63.8105 18.5688 63.4426 18.4222 63.2382 18.3475C63.0574 18.271 62.7504 18.0613 62.5835 17.9011C61.9574 17.2983 62.0275 16.7307 62.2715 16.4768C62.4795 16.2614 62.7304 16.1607 62.966 16.192C63.2199 16.2159 63.42 16.2375 63.7144 16.2764C63.5838 15.9181 63.5247 15.7031 63.7085 15.5127C63.7633 15.4555 63.7876 15.4299 63.8706 15.4126C63.9833 15.411 64.3824 15.5137 64.7397 15.6134C64.6104 15.391 64.5343 15.1833 64.5247 14.9055C64.5164 14.5918 64.6749 14.2428 64.9128 13.9956C65.2791 13.615 65.7437 13.4997 66.198 13.5459C66.522 13.5888 66.8563 13.6779 67.0976 13.9102L67.1029 13.9158Z" fill="#0B0A0A" style="fill:#0B0A0A;fill:color(display-p3 0.0431 0.0392 0.0392);fill-opacity:1;"/>
</svg>
